<?xml version="1.0" encoding="utf-8"?><!-- Uploaded to: SVG Repo, www.svgrepo.com, Generator: SVG Repo Mixer Tools -->
<svg fill="#ff6310" width="35px" height="35px" viewBox="0 0 32 32" xmlns="http://www.w3.org/2000/svg">
  <path d="M16.041 14.287c-0.916 0-1.681 0.749-1.681 1.672 0 0.916 0.765 1.681 1.681 1.681 2.24 0 2.24-3.353 0-3.353zM16.041 15.349c0.344 0 0.609 0.265 0.609 0.609s-0.265 0.609-0.609 0.609c-0.344 0-0.609-0.265-0.609-0.609s0.265-0.609 0.609-0.609zM0.864 0c-0.093 0-0.14 0.016-0.463 0.052-0.328 0.041-0.437 0.432-0.36 0.844 0.073 0.416 0.095 0.276 0.261 0.516 0.167 0.239 5.635 5.52 8.468 8.285l-5.021 5.147c-1.667 1.708-2.547 4.339-3.061 7.244-0.516 2.907-0.647 6.125-0.688 9.048 0.005 0.421 0.317 0.776 0.74 0.823 0.052 0.005 0.104 0.005 0.156 0 0.192-0.016 0.375-0.104 0.511-0.245h0.009l8.281-8.495c5.36 4.964 5.491 6.776 12.391 8.093 2.907 0.511 6.125 0.647 9.048 0.688 0.416 0 0.771-0.312 0.823-0.729l0.011-0.011c0.004-0.057 0-0.12-0.011-0.177-0.021-0.187-0.104-0.359-0.235-0.495v-0.009l-8.505-8.276 4.844-4.969c0.063-0.057 0.12-0.12 0.177-0.177l0.011-0.011c1.667-1.708 2.556-4.328 3.072-7.233 0.511-2.912 0.636-6.125 0.677-9.048 0-0.416-0.312-0.771-0.729-0.823l-0.011-0.015c-0.057 0-0.12 0-0.177 0.009-0.187 0.021-0.359 0.104-0.489 0.24h-0.009l-8.281 8.489-5.147-5.016c-1.708-1.667-4.333-2.556-7.244-3.072-3.005-0.328-6.021-0.631-9.048-0.677zM1.505 1.115c2.719 0.052 5.62 0.161 8.219 0.62 2.807 0.495 5.24 1.375 6.683 2.787h0.009l0.141 0.145c0.031 0.031 0.063 0.073 0.099 0.109 0 0.005 0.005 0.005 0.005 0.011l0.016 0.011 0.016 0.020c0 0 0 0.011 0 0.011 0.004 0.005 0.009 0.005 0.009 0.011 0.172 0.235 0.475 0.692 0.563 0.885 0.063 0.136 0.12 0.276 0.177 0.432 0.24 0.693 0.36 1.557 0.276 2.647v0.009c-0.021 0.245-0.052 0.495-0.088 0.761-0.021 0.124-0.047 0.265-0.068 0.411-0.057 0.292-0.12 0.573-0.188 0.86-0.036 0.151-0.077 0.307-0.12 0.463v0.011c-0.172 0.62-0.4 1.303-0.681 2.027-0.068 0.183-0.136 0.359-0.213 0.552-0.063 0.145-0.131 0.297-0.199 0.453l-0.344 0.067c-1.167-2.208-2.443-3.733-3.583-4.609-0.579-0.437-1.115-0.719-1.636-0.833h-0.005c-0.515-0.113-1.067-0.036-1.427 0.333l0.047 0.1 0.427-0.319zM30.885 1.5c-0.047 2.719-0.156 5.625-0.62 8.224-0.495 2.807-1.369 5.24-2.787 6.688l-0.145 0.135c-0.036 0.037-0.083 0.079-0.125 0.115l-0.020 0.027h-0.011c-0.229 0.167-0.704 0.479-0.896 0.567-0.136 0.063-0.281 0.136-0.432 0.188h-0.011c-0.688 0.235-1.552 0.349-2.641 0.265-0.239-0.020-0.5-0.041-0.765-0.077l-0.401-0.068h-0.009c-0.292-0.057-0.573-0.12-0.86-0.188h-0.011c-0.156-0.041-0.307-0.088-0.457-0.129-0.688-0.188-1.365-0.412-2.032-0.667-0.183-0.073-0.369-0.152-0.563-0.229-0.14-0.057-0.281-0.115-0.421-0.177 0.016-0.084-0.104 0.131 0 0 0.005-0.131-0.016-0.26-0.068-0.38 2.183-1.161 3.708-2.423 4.579-3.557 0.443-0.579 0.729-1.125 0.843-1.641 0.12-0.515 0.037-1.077-0.333-1.437l0.011 0.011 0.147 0.469zM18.531 6.593l3.381 3.292 0.015 0.021 0.021 0.015c0.052 0.052 0.104 0.152 0.041 0.443-0.031 0.131-0.192 0.355-0.276 0.521-0.109 0.224-0.156 0.401-0.364 0.672-0.729 0.932-2.156 2.088-4.183 3.172 0.063-0.145 0.12-0.287 0.177-0.427 0.077-0.193 0.151-0.391 0.224-0.579 0.292-0.76 0.536-1.473 0.719-2.136 0.129-0.468 0.24-0.943 0.328-1.416v-0.011c0.021-0.145 0.057-0.287 0.079-0.432 0.036-0.281 0.067-0.557 0.088-0.839 0.068-0.901-0.093-1.593-0.251-2.292zM10.364 10.016c2.125 0.957 3.511 3.229 4.371 4.823-0.147-0.068-0.287-0.12-0.432-0.183-0.199-0.077-0.391-0.151-0.584-0.224-0.692-0.276-1.407-0.515-2.125-0.719h-0.005c-0.167-0.047-0.328-0.088-0.484-0.129-0.317-0.079-0.635-0.141-0.932-0.199-0.145-0.021-0.297-0.041-0.443-0.068v-0.011c-0.281-0.036-0.557-0.067-0.839-0.088-0.907-0.068-1.604 0.088-2.303 0.245l3.297-3.376 0.036-0.041c0.052-0.052 0.152-0.104 0.443-0.036zM8.807 14.287c0.24 0.016 0.496 0.047 0.761 0.088h0.011c0.124 0.021 0.26 0.041 0.4 0.068 0.276 0.052 0.557 0.115 0.86 0.188l0.235 0.057c0.077 0.020 0.151 0.036 0.229 0.057h0.004c0.631 0.176 1.303 0.4 2.032 0.681 0.183 0.068 0.369 0.141 0.557 0.213 0.161 0.068 0.323 0.141 0.484 0.209l0.021 0.353c-2.188 1.161-3.719 2.428-4.589 3.563-0.443 0.579-0.729 1.115-0.843 1.636v0.011c-0.12 0.515-0.037 1.067 0.333 1.427h-0.011l-0.251-0.448-7.916 8.093c0.052-2.713 0.151-5.609 0.609-8.208 0.495-2.807 1.375-5.235 2.787-6.683v-0.009c0.031-0.037 0.067-0.063 0.104-0.1l0.041-0.036c0.036-0.041 0.079-0.079 0.12-0.109h0.011c0.005-0.005 0.009-0.016 0.015-0.021 0.229-0.167 0.715-0.489 0.907-0.583 0.145-0.063 0.292-0.125 0.443-0.177 0.693-0.24 1.557-0.36 2.651-0.276zM15.683 14.552c-0.557 0.177-0.933 0.557-1.115 1.109l0.588-0.651zM16.407 14.588l0.239 0.433 0.199 0.124 0.536 0.423c-0.192-0.469-0.495-0.808-0.968-0.975zM16.027 15.281c0.411 0 0.733 0.323 0.733 0.735 0.005 0.411-0.328 0.744-0.733 0.739-0.412 0.005-0.745-0.328-0.74-0.739 0-0.412 0.323-0.735 0.74-0.735zM14.625 16.432c0.187 0.485 0.511 0.813 0.995 0.995l-0.317-0.369-0.272-0.312zM17.375 16.479l-0.38 0.157-0.077 0.239-0.381 0.432c0.385-0.187 0.661-0.432 0.839-0.823zM17.276 17.161c0.14 0.057 0.281 0.131 0.421 0.188 0.199 0.077 0.391 0.151 0.584 0.224 0.749 0.291 1.464 0.525 2.125 0.708 0.172 0.052 0.339 0.088 0.489 0.131 0.323 0.077 0.635 0.151 0.937 0.208 0.14 0.020 0.292 0.041 0.443 0.068 0.287 0.036 0.568 0.072 0.839 0.099 0.907 0.068 1.599-0.093 2.301-0.251l-3.296 3.381-0.021 0.015-0.020 0.021c-0.048 0.052-0.152 0.099-0.433 0.041h-0.009c-0.287-0.068-0.709-0.271-1.193-0.651-0.932-0.729-2.088-2.156-3.167-4.183zM14.833 17.281l-0.177 0.421c-0.077 0.193-0.151 0.391-0.229 0.579-0.271 0.697-0.505 1.407-0.708 2.125-0.047 0.172-0.088 0.339-0.125 0.495-0.077 0.317-0.151 0.635-0.208 0.932-0.025 0.151-0.047 0.297-0.068 0.448-0.041 0.276-0.072 0.552-0.099 0.833-0.068 0.907 0.093 1.604 0.245 2.301l-3.376-3.296-0.020-0.032-0.021-0.009v-0.011c-0.052-0.052-0.099-0.136-0.036-0.423 0-0.005 0-0.005 0-0.009 0.068-0.287 0.276-0.709 0.651-1.193 0.724-0.932 2.151-2.088 4.172-3.167zM16.219 17.625c1.156 2.167 2.417 3.697 3.547 4.568 0.579 0.443 1.115 0.728 1.636 0.843h0.011c0.515 0.115 1.061 0.037 1.427-0.333l-0.047-0.093-0.407 0.36 8.12 7.921c-2.719-0.052-5.631-0.161-8.229-0.625-2.807-0.495-5.24-1.369-6.683-2.781h-0.009l-0.073-0.072c-0.011-0.011-0.016-0.027-0.027-0.043l-0.041-0.036c-0.031-0.036-0.073-0.079-0.104-0.12v-0.011c-0.005-0.005-0.021-0.015-0.021-0.020-0.213-0.287-0.405-0.589-0.583-0.907-0.068-0.14-0.125-0.292-0.177-0.443-0.24-0.693-0.36-1.552-0.276-2.645 0.021-0.24 0.052-0.491 0.088-0.761v-0.011c0.021-0.124 0.047-0.26 0.068-0.4 0.052-0.276 0.115-0.557 0.188-0.86v-0.011l0.063-0.224 0.057-0.228v-0.011c0.172-0.625 0.395-1.297 0.681-2.027 0.068-0.183 0.147-0.369 0.224-0.557 0.063-0.156 0.131-0.307 0.199-0.463l0.369-0.021z"/>
</svg>