<!DOCTYPE svg PUBLIC "-//W3C//DTD SVG 1.1//EN" "http://www.w3.org/Graphics/SVG/1.1/DTD/svg11.dtd">

<!-- Uploaded to: SVG Repo, www.svgrepo.com, Transformed by: SVG Repo Mixer Tools -->
<svg fill="#FFA500" height="35px" width="35px" version="1.1" id="Capa_1" xmlns="http://www.w3.org/2000/svg" xmlns:xlink="http://www.w3.org/1999/xlink" viewBox="0 0 428.27 428.27" xml:space="preserve">

<g id="SVGRepo_bgCarrier" stroke-width="0"/>

<g id="SVGRepo_tracerCarrier" stroke-linecap="round" stroke-linejoin="round"/>

<g id="SVGRepo_iconCarrier"> <g> <path d="M295.135,147.632V117h12.414c5.523,0,10-4.477,10-10V72c0-5.523-4.477-10-10-10h-34.342l6.581-50.713 c0.37-2.853-0.506-5.727-2.405-7.888C275.485,1.239,272.747,0,269.871,0H157.779c-2.876,0-5.614,1.239-7.512,3.399 c-1.899,2.161-2.775,5.035-2.405,7.888L154.443,62h-33.728c-5.523,0-10,4.477-10,10v35c0,5.523,4.477,10,10,10h12.42v30.631 c-43.94,27.728-71,76.487-71,128.639c0,83.813,68.187,152,152,152s152-68.187,152-152 C366.135,224.125,339.074,175.366,295.135,147.632z M169.16,20h89.329l-5.451,42h-78.428L169.16,20z M130.715,82h166.833v15 H130.715V82z M214.135,408.27c-72.785,0-132-59.215-132-132c0-46.984,25.292-90.797,66.006-114.343 c3.09-1.788,4.994-5.087,4.994-8.657V117h122v36.27c0,3.57,1.903,6.869,4.993,8.656c40.715,23.552,66.007,67.366,66.007,114.344 C346.135,349.055,286.92,408.27,214.135,408.27z"/> <path d="M272.614,174.907c-7.699-4.453-12.481-12.745-12.481-21.64V134c0-5.523-4.477-10-10-10h-72c-5.523,0-10,4.477-10,10v19.268 c0,8.895-4.783,17.187-12.481,21.64c-36.096,20.881-58.519,59.719-58.519,101.358c0,64.514,52.486,117,117,117s117-52.486,117-117 C331.132,234.626,308.709,195.789,272.614,174.907z M165.665,192.22c13.858-8.017,22.467-22.942,22.467-38.952V144h52v9.268 c0,16.01,8.609,30.936,22.467,38.952c21.354,12.354,36.932,32.284,44.112,55.226H121.553 C128.733,224.504,144.311,204.573,165.665,192.22z M214.132,373.266c-53.486,0-97-43.514-97-97c0-2.961,0.147-5.902,0.416-8.821 h193.168c0.269,2.918,0.416,5.86,0.416,8.821C311.132,329.751,267.618,373.266,214.132,373.266z"/> <path d="M179.825,281.2c-17.645,0-32,14.355-32,32s14.355,32,32,32s32-14.355,32-32S197.47,281.2,179.825,281.2z M179.825,325.2 c-6.617,0-12-5.383-12-12s5.383-12,12-12s12,5.383,12,12S186.442,325.2,179.825,325.2z"/> <path d="M251.825,296c-14.336,0-26,11.664-26,26s11.664,26,26,26s26-11.664,26-26S266.161,296,251.825,296z M251.825,328 c-3.309,0-6-2.691-6-6s2.691-6,6-6s6,2.691,6,6S255.134,328,251.825,328z"/> </g> </g>

</svg>