<!DOCTYPE svg PUBLIC "-//W3C//DTD SVG 1.1//EN" "http://www.w3.org/Graphics/SVG/1.1/DTD/svg11.dtd">

<!-- Uploaded to: SVG Repo, www.svgrepo.com, Transformed by: SVG Repo Mixer Tools -->
<svg width="35px" height="35px" viewBox="0 0 18 18" xmlns="http://www.w3.org/2000/svg" fill="#FFA500">

<g id="SVGRepo_bgCarrier" stroke-width="0"/>

<g id="SVGRepo_tracerCarrier" stroke-linecap="round" stroke-linejoin="round"/>

<g id="SVGRepo_iconCarrier"> <g fill="#FFA500" fill-rule="evenodd"> <circle cx="12" cy="6" r="2"/> <path d="M1 18a1 1 0 0 1-.707-1.707l7-7a1 1 0 0 1 1.414 1.414l-7 7A1 1 0 0 1 1 18zM15 4a1 1 0 0 1-.707-1.707l2-2a1 1 0 0 1 1.414 1.414l-2 2A1 1 0 0 1 15 4zm-3-1a1 1 0 0 1-1-1V1a1 1 0 0 1 2 0v1a1 1 0 0 1-1 1zm0 9a1 1 0 0 1-1-1v-1a1 1 0 0 1 2 0v1a1 1 0 0 1-1 1z"/> <path d="M12 3a1 1 0 0 1-1-1V1a1 1 0 0 1 2 0v1a1 1 0 0 1-1 1zm0 9a1 1 0 0 1-1-1v-1a1 1 0 0 1 2 0v1a1 1 0 0 1-1 1zM8 7H7a1 1 0 1 1 0-2h1a1 1 0 1 1 0 2zm9 0h-1a1 1 0 0 1 0-2h1a1 1 0 0 1 0 2zM9 4a1 1 0 0 1-.707-.293l-2-2A1 1 0 0 1 7.707.293l2 2A1 1 0 0 1 9 4zm8 8a1 1 0 0 1-.707-.293l-2-2a1 1 0 0 1 1.414-1.414l2 2A1 1 0 0 1 17 12z"/> </g> </g>

</svg>