<svg fill="none" height="64" viewBox="0 0 64 64" width="64" xmlns="http://www.w3.org/2000/svg"><g stroke="#7352ba" stroke-linecap="round" stroke-linejoin="round" stroke-width="2"><path d="m44.5337 31.9466c0 2.472-.7331 4.8884-2.1064 6.9438-1.3734 2.0554-3.3254 3.6574-5.6092 4.6034-2.2838.9459-4.7969 1.1935-7.2214.7112s-4.6515-1.6726-6.3994-3.4206c-1.748-1.748-2.9384-3.975-3.4206-6.3995-.4823-2.4245-.2348-4.9375.7112-7.2213s2.548-4.2359 4.6033-5.6092c2.0554-1.3734 4.4719-2.1064 6.9439-2.1064 3.3148 0 6.4939 1.3168 8.8378 3.6607 2.3439 2.344 3.6608 5.523 3.6608 8.8379z"/><path d="m38.2623 32.8015-9.4344 5.7221c-.121.0712-.2586.1094-.399.1106-.1405.0013-.2787-.0343-.4011-.1032-.1223-.069-.2244-.1688-.296-.2896s-.1102-.2583-.112-.3987v-11.4332c-.0017-.1418.0348-.2814.1056-.4043.0708-.1228.1733-.2243.2968-.2939.1236-.0696.2635-.1048.4052-.1017.1418.003.2801.0441.4005.1189l9.4014 5.7111c.1202.067.2208.1642.2919.282s.1102.252.1135.3896c.0034.1375-.0292.2735-.0946.3946-.0653.1211-.1611.223-.2778.2957z"/><path d="m39.7342 50.0788c-2.7982 1.227-5.8446 1.7826-8.8958 1.6224-3.0511-.1602-6.0226-1.0317-8.6769-2.545"/><path d="m49.8271 24.2461c.0878.1867.1647.3844.2416.5711 1.16 2.8844 1.6166 6.0035 1.3321 9.0993-.2846 3.0959-1.3021 6.0795-2.9685 8.704"/><path d="m24.0104 14.1535c3.013-1.3275 6.3128-1.8715 9.5925-1.5815 3.2797.2899 6.4329 1.4044 9.1663 3.2399"/><path d="m13.9041 39.9854c-1.2037-2.7439-1.7613-5.7274-1.6299-8.7208.1314-2.9933.9483-5.9166 2.3878-8.5444"/><path d="m22.4166 48.2225c-.2229.4733-.581.87-1.0292 1.1399s-.9663.4009-1.4889.3765c-.5227-.0244-1.0263-.2031-1.4474-.5136s-.7407-.7388-.9185-1.2308c-.1779-.4921-.2059-1.0258-.0805-1.5337.1253-.508.3984-.9674.7847-1.3202.3862-.3529.8684-.5833 1.3856-.6623.5172-.0789 1.0462-.0029 1.5202.2187.6351.3 1.1256.8392 1.3643 1.4999.2388.6606.2063 1.3888-.0903 2.0256z"/><path d="m22.4166 48.2225c-.2229.4733-.581.87-1.0292 1.1399s-.9663.4009-1.4889.3765c-.5227-.0244-1.0263-.2031-1.4474-.5136s-.7407-.7388-.9185-1.2308c-.1779-.4921-.2059-1.0258-.0805-1.5337.1253-.508.3984-.9674.7847-1.3202.3862-.3529.8684-.5833 1.3856-.6623.5172-.0789 1.0462-.0029 1.5202.2187.6351.3 1.1256.8392 1.3643 1.4999.2388.6606.2063 1.3888-.0903 2.0256z"/><path d="m47.7748 19.0079c-.2253.4717-.5852.8662-1.0345 1.1336-.4492.2674-.9675.3958-1.4896.369s-1.0245-.2076-1.444-.5196-.7372-.7412-.913-1.2336c-.1758-.4923-.2019-1.0256-.075-1.5328.1269-.5071.4012-.9653.7882-1.3168.3869-.3515.8694-.5805 1.3863-.6581.517-.0777 1.0454-.0005 1.5186.2218.3159.1484.5993.3578.834.6162.2346.2583.4159.5606.5333.8893s.1686.6773.1507 1.0259-.1045.6901-.255 1.0051z"/><path d="m47.7748 19.0079c-.2253.4717-.5852.8662-1.0345 1.1336-.4492.2674-.9675.3958-1.4896.369s-1.0245-.2076-1.444-.5196-.7372-.7412-.913-1.2336c-.1758-.4923-.2019-1.0256-.075-1.5328.1269-.5071.4012-.9653.7882-1.3168.3869-.3515.8694-.5805 1.3863-.6581.517-.0777 1.0454-.0005 1.5186.2218.3159.1484.5993.3578.834.6162.2346.2583.4159.5606.5333.8893s.1686.6773.1507 1.0259-.1045.6901-.255 1.0051z"/><path d="m29.8408 58.5571c-5.0394-.4171-9.8569-2.2561-13.8923-5.3031-4.0355-3.0471-7.12314-7.1771-8.90394-11.9098-1.78079-4.7327-2.1816-9.8736-1.1558-14.8251 1.02579-4.9515 3.43604-9.5101 6.95054-13.1458"/><path d="m27.4015 5.71813c5.6178-.96349 11.3965-.10689 16.4932 2.44484 5.0968 2.55173 9.2449 6.66513 11.8395 11.74023 2.5946 5.075 3.4998 10.8463 2.5836 16.472-.9161 5.6258-3.6057 10.8116-7.6764 14.8013"/><path d="m18.9445 11.5605c-.1326.6579-.4573 1.2617-.9331 1.7351-.4757.4733-1.0812.795-1.7397.9243-.6586.1294-1.3407.0605-1.9602-.1978-.6194-.2583-1.1483-.6945-1.5199-1.2534s-.5691-1.2154-.5676-1.8865c.0015-.6712.202-1.32678.5761-1.884s.905-.991 1.5256-1.24652 1.303-.32129 1.961-.18901c.437.08788.8525.26101 1.2226.5095.3702.24849.6877.56748.9346.93874.2468.37125.418.7875.5039 1.22499.086.4374.0848.8875-.0033 1.3246z"/><path d="m18.9445 11.5605c-.1326.6579-.4573 1.2617-.9331 1.7351-.4757.4733-1.0812.795-1.7397.9243-.6586.1294-1.3407.0605-1.9602-.1978-.6194-.2583-1.1483-.6945-1.5199-1.2534s-.5691-1.2154-.5676-1.8865c.0015-.6712.202-1.32678.5761-1.884s.905-.991 1.5256-1.24652 1.303-.32129 1.961-.18901c.437.08788.8525.26101 1.2226.5095.3702.24849.6877.56748.9346.93874.2468.37125.418.7875.5039 1.22499.086.4374.0848.8875-.0033 1.3246z"/><path d="m50.7966 53.7799c-.1055.512-.3603.9813-.7321 1.3487-.3719.3674-.8442.6165-1.3574.7158-.5132.0994-1.0444.0445-1.5264-.1576-.4821-.2022-.8936-.5425-1.1825-.9782-.2889-.4356-.4423-.9471-.4409-1.4698.0013-.5228.1575-1.0334.4487-1.4675s.7044-.7723 1.1875-.9719c.4832-.1996 1.0146-.2516 1.5273-.1496.3424.0681.6679.2033.9578.3978s.5385.4444.7314.7353c.193.2909.3265.6172.3928.9599s.0642.6952-.0062 1.0371z"/><path d="m50.7966 53.7799c-.1055.512-.3603.9813-.7321 1.3487-.3719.3674-.8442.6165-1.3574.7158-.5132.0994-1.0444.0445-1.5264-.1576-.4821-.2022-.8936-.5425-1.1825-.9782-.2889-.4356-.4423-.9471-.4409-1.4698.0013-.5228.1575-1.0334.4487-1.4675s.7044-.7723 1.1875-.9719c.4832-.1996 1.0146-.2516 1.5273-.1496.3424.0681.6679.2033.9578.3978s.5385.4444.7314.7353c.193.2909.3265.6172.3928.9599s.0642.6952-.0062 1.0371z"/></g></svg>