<svg id="Layer_1" data-name="Layer 1" xmlns="http://www.w3.org/2000/svg" viewBox="0 0 500 299"><defs><style>.cls-1{fill:#252f3e;}.cls-2{fill:#f90;}</style></defs><path class="cls-1" d="M390.9,459.09a50.47,50.47,0,0,0,1.83,14.8,88.55,88.55,0,0,0,5.33,12,7.29,7.29,0,0,1,1.16,3.83c0,1.66-1,3.33-3.16,5l-10.48,7a7.93,7.93,0,0,1-4.32,1.5,7.64,7.64,0,0,1-5-2.33,51.59,51.59,0,0,1-6-7.81c-1.66-2.83-3.32-6-5.15-9.82q-19.45,22.95-48.89,22.95c-14,0-25.11-4-33.26-12s-12.31-18.63-12.31-31.93c0-14.13,5-25.61,15.14-34.26s23.61-13,40.74-13a132.08,132.08,0,0,1,17.63,1.33c6.15.84,12.47,2.17,19.12,3.66V407.87c0-12.64-2.66-21.45-7.82-26.6-5.32-5.16-14.3-7.65-27.1-7.65a75.47,75.47,0,0,0-18,2.16,131.41,131.41,0,0,0-18,5.65,46.38,46.38,0,0,1-5.82,2.16,10,10,0,0,1-2.66.5c-2.33,0-3.49-1.66-3.49-5.15v-8.15c0-2.66.33-4.66,1.16-5.82a12.34,12.34,0,0,1,4.66-3.49A95.55,95.55,0,0,1,307.26,354a100.87,100.87,0,0,1,25.94-3.16c19.79,0,34.26,4.49,43.57,13.47,9.15,9,13.8,22.62,13.8,40.91v53.88Zm-67.51,25.28a53.8,53.8,0,0,0,17.13-3,37,37,0,0,0,15.8-10.64A26.42,26.42,0,0,0,362,460.09a59.58,59.58,0,0,0,1.66-14.47v-7a138.57,138.57,0,0,0-15.3-2.83,126.21,126.21,0,0,0-15.63-1c-11.14,0-19.29,2.16-24.78,6.65s-8.14,10.81-8.14,19.13c0,7.81,2,13.63,6.15,17.63C309.92,482.37,315.74,484.37,323.39,484.37Zm133.53,18c-3,0-5-.5-6.32-1.66-1.33-1-2.49-3.33-3.49-6.49L408,365.63a29.29,29.29,0,0,1-1.49-6.65c0-2.66,1.33-4.16,4-4.16h16.29c3.16,0,5.33.5,6.49,1.67,1.33,1,2.33,3.32,3.33,6.48l27.93,110.09L490.52,363c.83-3.32,1.82-5.48,3.16-6.48s3.65-1.67,6.65-1.67h13.3c3.16,0,5.32.5,6.65,1.67,1.33,1,2.5,3.32,3.16,6.48l26.28,111.42L578.49,363c1-3.32,2.16-5.48,3.32-6.48,1.33-1,3.49-1.67,6.49-1.67h15.46c2.66,0,4.16,1.34,4.16,4.16a17.35,17.35,0,0,1-.33,2.66,23.67,23.67,0,0,1-1.17,4.16L566.35,494.35q-1.5,5-3.5,6.48a10.62,10.62,0,0,1-6.32,1.66h-14.3c-3.16,0-5.32-.49-6.65-1.66s-2.49-3.32-3.16-6.65L506.65,386.92,481,494c-.83,3.33-1.83,5.49-3.16,6.66s-3.66,1.66-6.65,1.66Zm213.69,4.49a109.9,109.9,0,0,1-25.61-3c-8.31-2-14.8-4.15-19.12-6.65-2.66-1.49-4.49-3.16-5.16-4.65a11.83,11.83,0,0,1-1-4.66v-8.48c0-3.49,1.33-5.16,3.82-5.16a9.42,9.42,0,0,1,3,.5c1,.34,2.5,1,4.16,1.67A90.92,90.92,0,0,0,649,482.21a100,100,0,0,0,19.79,2c10.48,0,18.63-1.83,24.28-5.49a17.88,17.88,0,0,0,8.65-15.79,16.2,16.2,0,0,0-4.49-11.64c-3-3.16-8.65-6-16.8-8.65l-24.11-7.48c-12.14-3.83-21.12-9.48-26.61-17a39.64,39.64,0,0,1-8.31-24.11,37.06,37.06,0,0,1,4.49-18.46,42.6,42.6,0,0,1,12-13.63,52.63,52.63,0,0,1,17.3-8.65,72.28,72.28,0,0,1,21-2.83,83.28,83.28,0,0,1,11.14.67c3.83.5,7.32,1.16,10.81,1.83,3.33.83,6.49,1.66,9.48,2.66a35.65,35.65,0,0,1,7,3,14.26,14.26,0,0,1,5,4.16,8.94,8.94,0,0,1,1.5,5.48v7.82c0,3.49-1.33,5.32-3.82,5.32-1.34,0-3.5-.66-6.32-2A76,76,0,0,0,678.93,373c-9.48,0-17,1.5-22.12,4.66s-7.82,8-7.82,14.8a15.72,15.72,0,0,0,5,11.8c3.33,3.16,9.48,6.32,18.3,9.15l23.61,7.48c12,3.83,20.62,9.15,25.78,16a37.65,37.65,0,0,1,7.64,23.28A42.7,42.7,0,0,1,725,479.38,44.64,44.64,0,0,1,712.85,494a53.68,53.68,0,0,1-18.46,9.32A79.32,79.32,0,0,1,670.61,506.82Z" transform="translate(-250 -350.5)"/><path class="cls-2" d="M702,587.64c-54.71,40.41-134.2,61.86-202.54,61.86-95.79,0-182.1-35.42-247.28-94.29-5.16-4.66-.5-11,5.65-7.32,70.51,40.91,157.48,65.69,247.45,65.69,60.69,0,127.38-12.64,188.74-38.58C703.21,570.84,711,581,702,587.64Zm22.78-25.94c-7-9-46.23-4.33-64-2.17-5.32.67-6.15-4-1.33-7.48,31.26-21.95,82.65-15.63,88.64-8.31,6,7.48-1.67,58.86-30.93,83.48-4.49,3.82-8.82,1.82-6.82-3.16C717,607.59,731.81,570.51,724.82,561.7Z" transform="translate(-250 -350.5)"/></svg>