<?xml version="1.0" ?><!DOCTYPE svg  PUBLIC '-//W3C//DTD SVG 1.1//EN'  'http://www.w3.org/Graphics/SVG/1.1/DTD/svg11.dtd'><svg fill="#fff" enable-background="new 0 0 24 24" height="24px" id="Layer_1" version="1.1" viewBox="0 0 24 24" width="24px" xml:space="preserve" xmlns="http://www.w3.org/2000/svg" xmlns:xlink="http://www.w3.org/1999/xlink"><g><path d="M22.8,23.5H17c-0.2,0-0.3-0.1-0.4-0.2L12,15.3l-4.6,7.9c-0.1,0.2-0.2,0.2-0.4,0.2H1.2c-0.2,0-0.3-0.1-0.4-0.2   c-0.1-0.1-0.1-0.3,0-0.5c0-0.1,0.1-0.2,0.1-0.2L6.9,12L0.8,1.4c0-0.1-0.1-0.1-0.1-0.2c-0.1-0.2-0.1-0.4,0-0.5   C0.8,0.6,1,0.5,1.2,0.5H7c0.2,0,0.3,0.1,0.4,0.2L12,8.7l4.6-7.9c0.1-0.2,0.2-0.2,0.4-0.2h5.9c0.2,0,0.3,0.1,0.4,0.2   c0.1,0.1,0.1,0.3,0,0.5c0,0.1-0.1,0.2-0.1,0.2L17.1,12l6.1,10.6c0,0.1,0.1,0.1,0.1,0.2c0.1,0.2,0.1,0.4,0,0.5   C23.2,23.4,23,23.5,22.8,23.5z"/></g></svg>