<svg fill="#FAFAFA" xmlns="http://www.w3.org/2000/svg" viewBox="0 0 448 512"><!--! Font Awesome Pro 6.5.1 by @fontawesome - https://fontawesome.com License - https://fontawesome.com/license (Commercial License) Copyright 2023 Fonticons, Inc. --><path d="M80 112a32 32 0 1 0 0-64 32 32 0 1 0 0 64zm80-32c0 35.8-23.5 66.1-56 76.3V256c20.1-15.1 45-24 72-24h96c39.8 0 72-32.2 72-72v-3.7c-32.5-10.2-56-40.5-56-76.3c0-44.2 35.8-80 80-80s80 35.8 80 80c0 35.8-23.5 66.1-56 76.3V160c0 66.3-53.7 120-120 120H176c-39.8 0-72 32.2-72 72v3.7c32.5 10.2 56 40.5 56 76.3c0 44.2-35.8 80-80 80s-80-35.8-80-80c0-35.8 23.5-66.1 56-76.3V352 156.3C23.5 146.1 0 115.8 0 80C0 35.8 35.8 0 80 0s80 35.8 80 80zm240 0a32 32 0 1 0 -64 0 32 32 0 1 0 64 0zM80 464a32 32 0 1 0 0-64 32 32 0 1 0 0 64z"/></svg>