<!DOCTYPE svg PUBLIC "-//W3C//DTD SVG 1.1//EN" "http://www.w3.org/Graphics/SVG/1.1/DTD/svg11.dtd">

<!-- Uploaded to: SVG Repo, www.svgrepo.com, Transformed by: SVG Repo Mixer Tools -->
<svg version="1.0" id="Layer_1" xmlns="http://www.w3.org/2000/svg" xmlns:xlink="http://www.w3.org/1999/xlink" width="35px" height="35px" viewBox="0 0 64 64" enable-background="new 0 0 64 64" xml:space="preserve" fill="#FFA500" stroke="#FFA500">

<g id="SVGRepo_bgCarrier" stroke-width="0"/>

<g id="SVGRepo_tracerCarrier" stroke-linecap="round" stroke-linejoin="round"/>

<g id="SVGRepo_iconCarrier"> <g> <path fill="#FFA500" d="M60,0H16c-2.211,0-4,1.789-4,4v6H4c-2.211,0-4,1.789-4,4v30c0,2.211,1.789,4,4,4h7c0.553,0,1,0.447,1,1v11 c0,1.617,0.973,3.078,2.469,3.695C14.965,63.902,15.484,64,16,64c1.039,0,2.062-0.406,2.828-1.172l14.156-14.156 c0,0,0.516-0.672,1.672-0.672S50,48,50,48c2.211,0,4-1.789,4-4v-8h6c2.211,0,4-1.789,4-4V4C64,1.789,62.211,0,60,0z M52,44 c0,1.105-0.895,2-2,2c0,0-14.687,0-15.344,0C32.709,46,32,47,32,47S20,59,18,61c-2.141,2.141-4,0.391-4-1c0-1,0-12,0-12 c0-1.105-0.895-2-2-2H4c-1.105,0-2-0.895-2-2V14c0-1.105,0.895-2,2-2h46c1.105,0,2,0.895,2,2V44z M62,32c0,1.105-0.895,2-2,2h-6V14 c0-2.211-1.789-4-4-4H14V4c0-1.105,0.895-2,2-2h44c1.105,0,2,0.895,2,2V32z"/> <path fill="#FFA500" d="M13,24h13c0.553,0,1-0.447,1-1s-0.447-1-1-1H13c-0.553,0-1,0.447-1,1S12.447,24,13,24z"/> <path fill="#FFA500" d="M41,28H13c-0.553,0-1,0.447-1,1s0.447,1,1,1h28c0.553,0,1-0.447,1-1S41.553,28,41,28z"/> <path fill="#FFA500" d="M34,34H13c-0.553,0-1,0.447-1,1s0.447,1,1,1h21c0.553,0,1-0.447,1-1S34.553,34,34,34z"/> </g> </g>

</svg>