<!DOCTYPE svg PUBLIC "-//W3C//DTD SVG 1.1//EN" "http://www.w3.org/Graphics/SVG/1.1/DTD/svg11.dtd">

<!-- Uploaded to: SVG Repo, www.svgrepo.com, Transformed by: SVG Repo Mixer Tools -->
<svg fill="#FF6310" height="35px" width="35px" version="1.1" id="Layer_1" xmlns="http://www.w3.org/2000/svg" xmlns:xlink="http://www.w3.org/1999/xlink" viewBox="0 0 512 512" xml:space="preserve">

<g id="SVGRepo_bgCarrier" stroke-width="0"/>

<g id="SVGRepo_tracerCarrier" stroke-linecap="round" stroke-linejoin="round"/>

<g id="SVGRepo_iconCarrier"> <g> <g> <path d="M264.551,102.614c-51.572,0-93.528,41.956-93.528,93.528s41.956,93.528,93.528,93.528s93.528-41.956,93.528-93.528 S316.123,102.614,264.551,102.614z M264.551,273.637c-42.731,0-77.495-34.764-77.495-77.495s34.764-77.495,77.495-77.495 s77.495,34.764,77.495,77.495S307.282,273.637,264.551,273.637z"/> </g> </g> <g> <g> <path d="M504.643,388.621l-86.979-86.979c-9.793-9.794-25.729-9.794-35.524,0l-0.376,0.376l-21.448-21.448 c19.884-22.527,31.969-52.09,31.969-84.428c0-70.433-57.3-127.733-127.733-127.733s-127.733,57.3-127.733,127.733 s57.3,127.733,127.733,127.733c32.337,0,61.901-12.085,84.428-31.968l21.448,21.448l-0.376,0.376 c-9.793,9.794-9.793,25.73,0,35.524l86.979,86.979c4.744,4.744,11.052,7.357,17.762,7.357c6.709,0,13.018-2.613,17.762-7.357 l12.089-12.089c4.744-4.744,7.357-11.052,7.357-17.762C512,399.673,509.387,393.365,504.643,388.621z M264.551,307.841 c-61.592,0-111.699-50.108-111.699-111.699S202.959,84.443,264.551,84.443s111.699,50.108,111.699,111.699 S326.143,307.841,264.551,307.841z M493.305,412.807l-12.089,12.089c-1.716,1.716-3.997,2.662-6.424,2.662 c-2.427,0-4.708-0.945-6.425-2.662l-86.979-86.979c-3.542-3.542-3.542-9.307,0-12.849l12.089-12.089 c1.771-1.771,4.097-2.657,6.425-2.657c2.326,0,4.654,0.886,6.424,2.656l86.979,86.979c1.716,1.716,2.662,3.998,2.662,6.425 S495.022,411.091,493.305,412.807z"/> </g> </g> <g> <g> <path d="M127.733,119.716H8.017c-4.427,0-8.017,3.589-8.017,8.017c0,4.427,3.589,8.017,8.017,8.017h119.716 c4.427,0,8.017-3.589,8.017-8.017C135.749,123.305,132.16,119.716,127.733,119.716z"/> </g> </g> <g> <g> <path d="M25.119,153.921H8.017c-4.427,0-8.017,3.589-8.017,8.017s3.589,8.017,8.017,8.017h17.102c4.427,0,8.017-3.589,8.017-8.017 S29.546,153.921,25.119,153.921z"/> </g> </g> <g> <g> <path d="M119.182,153.921H59.324c-4.427,0-8.017,3.589-8.017,8.017s3.589,8.017,8.017,8.017h59.858 c4.427,0,8.017-3.589,8.017-8.017S123.609,153.921,119.182,153.921z"/> </g> </g> <g> <g> <path d="M110.63,188.125H8.017c-4.427,0-8.017,3.589-8.017,8.017s3.589,8.017,8.017,8.017H110.63c4.427,0,8.017-3.589,8.017-8.017 S115.058,188.125,110.63,188.125z"/> </g> </g> <g> <g> <path d="M59.324,222.33H8.017c-4.427,0-8.017,3.589-8.017,8.017s3.589,8.017,8.017,8.017h51.307c4.427,0,8.017-3.589,8.017-8.017 S63.751,222.33,59.324,222.33z"/> </g> </g> <g> <g> <path d="M119.182,222.33H93.528c-4.427,0-8.017,3.589-8.017,8.017s3.589,8.017,8.017,8.017h25.653 c4.427,0,8.017-3.589,8.017-8.017S123.609,222.33,119.182,222.33z"/> </g> </g> <g> <g> <path d="M127.733,256.534H59.324c-4.427,0-8.017,3.589-8.017,8.017s3.589,8.017,8.017,8.017h68.409 c4.427,0,8.017-3.589,8.017-8.017S132.16,256.534,127.733,256.534z"/> </g> </g> <g> <g> <path d="M25.119,256.534H8.017c-4.427,0-8.017,3.589-8.017,8.017s3.589,8.017,8.017,8.017h17.102c4.427,0,8.017-3.589,8.017-8.017 S29.546,256.534,25.119,256.534z"/> </g> </g> <g> <g> <path d="M309.51,162.781c-4.255-1.215-8.693,1.248-9.911,5.506l-13.93,48.755l-13.512-40.537 c-1.091-3.274-4.155-5.481-7.605-5.481c-3.45,0-6.514,2.208-7.605,5.481l-13.512,40.537l-13.93-48.755 c-1.216-4.257-5.656-6.724-9.911-5.506c-4.256,1.216-6.722,5.653-5.506,9.911l17.102,59.858c0.983,3.442,4.129,5.814,7.708,5.814 h8.551c3.45,0,6.514-2.208,7.605-5.481l9.497-28.491l9.497,28.491c1.091,3.274,4.155,5.481,7.605,5.481h8.551 c3.58,0,6.725-2.373,7.708-5.814l17.102-59.858C316.231,168.434,313.766,163.996,309.51,162.781z"/> </g> </g> </g>

</svg>