<!DOCTYPE svg PUBLIC "-//W3C//DTD SVG 1.1//EN" "http://www.w3.org/Graphics/SVG/1.1/DTD/svg11.dtd">

<!-- Uploaded to: SVG Repo, www.svgrepo.com, Transformed by: SVG Repo Mixer Tools -->
<svg fill=" #FFA500" height="35px" width="35px" version="1.1" id="XMLID_127_" xmlns="http://www.w3.org/2000/svg" xmlns:xlink="http://www.w3.org/1999/xlink" viewBox="0 0 24 24" xml:space="preserve">

<g id="SVGRepo_bgCarrier" stroke-width="0"/>

<g id="SVGRepo_tracerCarrier" stroke-linecap="round" stroke-linejoin="round"/>

<g id="SVGRepo_iconCarrier"> <g id="connect"> <g> <path d="M5.9,24c-1.6,0-3.1-0.6-4.2-1.7C0.6,21.2,0,19.7,0,18.1c0-1.6,0.6-3.1,1.7-4.2l3.8-3.8l2,2l2.8-2.8l1.4,1.4l-2.8,2.8 l1.6,1.6l2.8-2.8l1.4,1.4l-2.8,2.8l2,2l-3.7,3.8C9,23.3,7.5,24,5.9,24z M5.5,12.9l-2.3,2.3C2.4,16,2,17,2,18s0.4,2,1.2,2.8 c1.5,1.5,4.1,1.5,5.6,0l2.3-2.4L5.5,12.9z M18.5,13.9l-8.4-8.4l3.7-3.8C14.9,0.6,16.5,0,18,0c1.5,0,3,0.6,4.2,1.7 C23.4,2.8,24,4.3,24,5.9s-0.6,3.1-1.7,4.2L18.5,13.9z M13,5.5l5.5,5.5l2.3-2.3C21.6,7.9,22,7,22,5.9c0-1-0.4-2-1.2-2.8 c-1.5-1.5-4-1.5-5.6,0L13,5.5z"/> </g> </g> </g>

</svg>