<!DOCTYPE svg PUBLIC "-//W3C//DTD SVG 1.1//EN" "http://www.w3.org/Graphics/SVG/1.1/DTD/svg11.dtd">

<!-- Uploaded to: SVG Repo, www.svgrepo.com, Transformed by: SVG Repo Mixer Tools -->
<svg width="35px" height="35px" viewBox="0 0 24 24" fill="none" xmlns="http://www.w3.org/2000/svg">

<g id="SVGRepo_bgCarrier" stroke-width="0"/>

<g id="SVGRepo_tracerCarrier" stroke-linecap="round" stroke-linejoin="round"/>

<g id="SVGRepo_iconCarrier"> <path fill-rule="evenodd" clip-rule="evenodd" d="M10 1C9.73478 1 9.48043 1.10536 9.29289 1.29289L3.29289 7.29289C3.10536 7.48043 3 7.73478 3 8V20C3 21.6569 4.34315 23 6 23H8C8.55228 23 9 22.5523 9 22C9 21.4477 8.55228 21 8 21H6C5.44772 21 5 20.5523 5 20V9H10C10.5523 9 11 8.55228 11 8V3H18C18.5523 3 19 3.44772 19 4V7C19 7.55228 19.4477 8 20 8C20.5523 8 21 7.55228 21 7V4C21 2.34315 19.6569 1 18 1H10ZM9 7H6.41421L9 4.41421V7ZM13.5067 11.3155C13.6011 10.0209 14.6813 9 16 9H17C18.3186 9 19.3988 10.0209 19.4933 11.3155C20.6616 10.75 22.0859 11.175 22.7452 12.317L23.2452 13.183C23.9045 14.325 23.5605 15.7709 22.4866 16.5C23.5605 17.2291 23.9045 18.675 23.2452 19.817L22.7452 20.683C22.0859 21.825 20.6616 22.25 19.4933 21.6845C19.3988 22.9791 18.3186 24 17 24H16C14.6813 24 13.6011 22.9791 13.5067 21.6845C12.3384 22.25 10.9141 21.825 10.2548 20.683L9.7548 19.817C9.09548 18.675 9.43952 17.2291 10.5134 16.5C9.43952 15.7709 9.09548 14.325 9.7548 13.183L10.2548 12.317C10.9141 11.175 12.3384 10.75 13.5067 11.3155ZM16 11C15.7238 11 15.5 11.2239 15.5 11.5V12.4678C15.5 12.8474 15.285 13.1943 14.945 13.3633C14.8128 13.429 14.6852 13.5029 14.5629 13.5844C14.2464 13.7952 13.8378 13.8083 13.5085 13.6181L12.6699 13.134C12.4307 12.9959 12.1249 13.0778 11.9868 13.317L11.4868 14.183C11.3488 14.4222 11.4307 14.728 11.6699 14.866L12.5088 15.3504C12.8375 15.5402 13.0304 15.8997 13.0069 16.2785C13.0023 16.3516 13 16.4255 13 16.5C13 16.5745 13.0023 16.6484 13.0069 16.7215C13.0304 17.1003 12.8375 17.4598 12.5088 17.6496L11.6699 18.134C11.4307 18.272 11.3488 18.5778 11.4868 18.817L11.9868 19.683C12.1249 19.9222 12.4307 20.0041 12.6699 19.866L13.5085 19.3819C13.8378 19.1917 14.2464 19.2048 14.5629 19.4156C14.6852 19.4971 14.8128 19.571 14.945 19.6367C15.285 19.8057 15.5 20.1526 15.5 20.5322V21.5C15.5 21.7761 15.7238 22 16 22H17C17.2761 22 17.5 21.7761 17.5 21.5V20.5323C17.5 20.1526 17.715 19.8057 18.055 19.6367C18.1872 19.571 18.3148 19.4971 18.4372 19.4156C18.7536 19.2048 19.1622 19.1917 19.4915 19.3819L20.3301 19.866C20.5693 20.0041 20.8751 19.9222 21.0131 19.683L21.5131 18.817C21.6512 18.5778 21.5693 18.272 21.3301 18.134L20.4912 17.6496C20.1625 17.4599 19.9696 17.1004 19.9931 16.7215C19.9977 16.6484 20 16.5745 20 16.5C20 16.4255 19.9977 16.3516 19.9931 16.2785C19.9696 15.8996 20.1625 15.5401 20.4912 15.3504L21.3301 14.866C21.5693 14.728 21.6512 14.4222 21.5131 14.183L21.0131 13.317C20.8751 13.0778 20.5693 12.9959 20.3301 13.134L19.4915 13.6181C19.1622 13.8083 18.7536 13.7952 18.4372 13.5844C18.3148 13.5029 18.1872 13.429 18.055 13.3633C17.715 13.1943 17.5 12.8474 17.5 12.4677V11.5C17.5 11.2239 17.2761 11 17 11H16ZM18.5 16.5C18.5 17.6046 17.6046 18.5 16.5 18.5C15.3954 18.5 14.5 17.6046 14.5 16.5C14.5 15.3954 15.3954 14.5 16.5 14.5C17.6046 14.5 18.5 15.3954 18.5 16.5Z" fill="#FFA500"/> </g>

</svg>