<!DOCTYPE svg PUBLIC "-//W3C//DTD SVG 1.1//EN" "http://www.w3.org/Graphics/SVG/1.1/DTD/svg11.dtd">

<!-- Uploaded to: SVG Repo, www.svgrepo.com, Transformed by: SVG Repo Mixer Tools -->
<svg width="35px" height="35px" viewBox="0 0 24 24" xmlns="http://www.w3.org/2000/svg" fill="#FFA500">

<g id="SVGRepo_bgCarrier" stroke-width="0"/>

<g id="SVGRepo_tracerCarrier" stroke-linecap="round" stroke-linejoin="round"/>

<g id="SVGRepo_iconCarrier">

<path d="M10.238 20.746C5.714 20.481 3 19.228 3 18.3v-6.282c1.708 1.173 5.366 1.782 9 1.782s7.292-.609 9-1.782v1.2l.915-.364c.028-.012.057-.015.085-.025V5.5c0-2.167-5.03-3.3-10-3.3S2 3.333 2 5.5v12.8c0 2.155 4.628 3.367 9.239 3.488l-.634-.596a2.493 2.493 0 0 1-.367-.446zM12 3.2c5.494 0 9 1.362 9 2.3s-3.506 2.3-9 2.3-9-1.362-9-2.3 3.506-2.3 9-2.3zM3 7.018C4.708 8.191 8.366 8.8 12 8.8s7.292-.609 9-1.782V10.5c0 .938-3.506 2.3-9 2.3s-9-1.363-9-2.3zm19.491 7.8l.7.716-7.684 7.522-3.531-3.32.685-.73 2.832 2.664z"/>

<path fill="none" d="M0 0h24v24H0z"/>

</g>

</svg>