<!DOCTYPE svg PUBLIC "-//W3C//DTD SVG 1.1//EN" "http://www.w3.org/Graphics/SVG/1.1/DTD/svg11.dtd">

<!-- Uploaded to: SVG Repo, www.svgrepo.com, Transformed by: SVG Repo Mixer Tools -->
<svg fill="#FFA500" width="35px" height="35px" viewBox="0 0 32 32" id="icon" xmlns="http://www.w3.org/2000/svg">

<g id="SVGRepo_bgCarrier" stroke-width="0"/>

<g id="SVGRepo_tracerCarrier" stroke-linecap="round" stroke-linejoin="round"/>

<g id="SVGRepo_iconCarrier"> <defs> <style> .cls-1 { fill: none; } </style> </defs> <title>chart--custom</title> <path d="M29.707,19.293l-3-3a.9994.9994,0,0,0-1.414,0L16,25.5859V30h4.4141l9.2929-9.293A.9994.9994,0,0,0,29.707,19.293ZM19.5859,28H18V26.4141l5-5L24.5859,23ZM26,21.5859,24.4141,20,26,18.4141,27.5859,20Z"/> <rect x="17" y="15" width="4" height="2" transform="translate(3 35) rotate(-90)"/> <rect x="12" y="14" width="6" height="2" transform="translate(0 30) rotate(-90)"/> <rect x="6" y="12" width="10" height="2" transform="translate(-2 24) rotate(-90)"/> <path d="M12,30H6a2.0021,2.0021,0,0,1-2-2V4A2.0021,2.0021,0,0,1,6,2H22a2.0021,2.0021,0,0,1,2,2V14H22V4H6V28h6Z"/> <rect id="_Transparent_Rectangle_" data-name="&lt;Transparent Rectangle&gt;" class="cls-1" width="32" height="32"/> </g>

</svg>