<?xml version="1.0" encoding="utf-8"?>
<svg version="1.1" id="Layer_1" xmlns="http://www.w3.org/2000/svg" xmlns:xlink="http://www.w3.org/1999/xlink" x="0px" y="0px"
	 viewBox="0 0 44 20" style="enable-background:new 0 0 44 20;" xml:space="preserve" fill="#24292F">
<g>
	<path fill="#FAFAFA" d="M5.9,15.1c-0.8,0-1.6-0.2-2.3-0.5C3,14.3,2.5,13.7,2.1,13c-0.4-0.7-0.6-1.6-0.6-2.6c0-1,0.2-1.9,0.6-2.6
		C2.5,7.2,3,6.6,3.7,6.2s1.4-0.6,2.2-0.6c0.7,0,1.2,0.1,1.7,0.4c0.5,0.2,0.9,0.5,1.2,0.8L7.7,8.2C7.5,8,7.2,7.8,7,7.7S6.4,7.5,6,7.5
		c-0.7,0-1.3,0.3-1.7,0.8c-0.4,0.5-0.7,1.2-0.7,2.2c0,0.9,0.2,1.7,0.6,2.2c0.4,0.5,1.1,0.8,1.9,0.8c0.2,0,0.4,0,0.5-0.1
		c0.2,0,0.3-0.1,0.4-0.2v-1.6H5.6V9.8h3.3V14c-0.3,0.3-0.7,0.6-1.3,0.8C7.1,15,6.6,15.1,5.9,15.1z"/>
	<path fill="#FAFAFA" d="M11.7,7c-0.3,0-0.6-0.1-0.8-0.3c-0.2-0.2-0.3-0.5-0.3-0.8s0.1-0.6,0.3-0.8c0.2-0.2,0.5-0.3,0.8-0.3c0.3,0,0.6,0.1,0.8,0.3
		c0.2,0.2,0.3,0.5,0.3,0.8s-0.1,0.6-0.3,0.8C12.3,6.9,12.1,7,11.7,7z M10.7,15V8h2.1V15H10.7z"/>
	<path fill="#FAFAFA" d="M17.3,15.1c-0.9,0-1.5-0.2-1.8-0.7c-0.4-0.5-0.6-1.1-0.6-1.9V9.6h-1V8.1L15,8l0.2-1.8h1.7V8h1.7v1.6h-1.7v2.8
		c0,0.4,0.1,0.7,0.2,0.8c0.2,0.2,0.4,0.3,0.7,0.3c0.1,0,0.2,0,0.3,0c0.1,0,0.2-0.1,0.3-0.1l0.3,1.5c-0.2,0.1-0.4,0.1-0.7,0.2
		C17.9,15.1,17.6,15.1,17.3,15.1z"/>
	<path fill="#FAFAFA" d="M20,15V5.2H22v2.4l-0.1,1.2c0.3-0.2,0.6-0.5,0.9-0.7s0.8-0.3,1.2-0.3c0.8,0,1.3,0.2,1.6,0.7c0.3,0.5,0.5,1.2,0.5,2.1V15
		h-2.1v-4c0-0.5-0.1-0.8-0.2-1c-0.1-0.2-0.4-0.3-0.7-0.3c-0.3,0-0.5,0.1-0.7,0.2c-0.2,0.1-0.4,0.3-0.6,0.5V15H20z"/>
	<path fill="#FAFAFA" d="M30.1,15.1c-0.8,0-1.3-0.2-1.6-0.7c-0.3-0.5-0.5-1.2-0.5-2.1V8H30v4c0,0.5,0.1,0.8,0.2,1c0.1,0.2,0.4,0.3,0.7,0.3
		c0.3,0,0.5-0.1,0.7-0.2c0.2-0.1,0.4-0.3,0.6-0.6V8h2.1V15h-1.7l-0.2-1h0c-0.3,0.3-0.6,0.6-1,0.8C31,15,30.6,15.1,30.1,15.1z"/>
	<path fill="#FAFAFA" d="M39.6,15.1c-0.3,0-0.6-0.1-0.9-0.2c-0.3-0.2-0.6-0.4-0.9-0.7h-0.1L37.6,15H36V5.2H38v2.4L38,8.6c0.3-0.2,0.6-0.4,0.9-0.6
		c0.3-0.1,0.6-0.2,1-0.2c0.6,0,1,0.1,1.5,0.4C41.7,8.6,42,9,42.2,9.5c0.2,0.5,0.3,1.1,0.3,1.9c0,0.8-0.1,1.5-0.4,2
		c-0.3,0.6-0.6,1-1.1,1.3C40.6,15,40.1,15.1,39.6,15.1z M39.1,13.5c0.4,0,0.7-0.2,0.9-0.5s0.4-0.8,0.4-1.6c0-1.3-0.4-1.9-1.2-1.9
		c-0.4,0-0.8,0.2-1.2,0.6V13c0.2,0.2,0.4,0.3,0.6,0.4S39,13.5,39.1,13.5z"/>
</g>
</svg>
