<!DOCTYPE svg PUBLIC "-//W3C//DTD SVG 1.1//EN" "http://www.w3.org/Graphics/SVG/1.1/DTD/svg11.dtd">

<!-- Uploaded to: SVG Repo, www.svgrepo.com, Transformed by: SVG Repo Mixer Tools -->
<svg width="35px" height="35px" viewBox="0 0 32 32" xmlns="http://www.w3.org/2000/svg" xmlns:xlink="http://www.w3.org/1999/xlink" fill="#FFA500">

<g id="SVGRepo_bgCarrier" stroke-width="0"/>

<g id="SVGRepo_tracerCarrier" stroke-linecap="round" stroke-linejoin="round"/>

<g id="SVGRepo_iconCarrier"> <defs> <clipPath id="clip-glossary"> <rect width="32" height="32"/> </clipPath> </defs> <g id="glossary" clip-path="url(#clip-glossary)"> <g id="Group_3020" data-name="Group 3020" transform="translate(-312 -156)"> <g id="Group_2980" data-name="Group 2980"> <g id="Group_2979" data-name="Group 2979"> <g id="Group_2978" data-name="Group 2978"> <g id="Group_2977" data-name="Group 2977"> <g id="Group_2976" data-name="Group 2976"> <g id="Group_2975" data-name="Group 2975"> <path id="Path_3962" data-name="Path 3962" d="M336.292,186.917H319.709A3.921,3.921,0,0,1,315.792,183V161a3.921,3.921,0,0,1,3.917-3.917h16.583A3.922,3.922,0,0,1,340.209,161v22A3.922,3.922,0,0,1,336.292,186.917Zm-16.583-27.834A1.919,1.919,0,0,0,317.792,161v22a1.919,1.919,0,0,0,1.917,1.917h16.583A1.919,1.919,0,0,0,338.209,183V161a1.919,1.919,0,0,0-1.917-1.917Z" fill="#FFA500"/> </g> </g> </g> </g> </g> </g> <g id="Group_3019" data-name="Group 3019"> <g id="Group_2987" data-name="Group 2987"> <g id="Group_2986" data-name="Group 2986"> <g id="Group_2985" data-name="Group 2985"> <g id="Group_2984" data-name="Group 2984"> <g id="Group_2983" data-name="Group 2983"> <g id="Group_2982" data-name="Group 2982"> <g id="Group_2981" data-name="Group 2981"> <path id="Path_3963" data-name="Path 3963" d="M321.774,162.4h1.572l2.295,6.488H324.2l-.439-1.32H321.3l-.425,1.32h-1.4Zm-.094,4.052H323.4l-.861-2.609h0Z" fill="#FFA500"/> </g> </g> </g> </g> </g> </g> </g> <g id="Group_3018" data-name="Group 3018"> <g id="Group_2997" data-name="Group 2997"> <g id="Group_2996" data-name="Group 2996"> <g id="Group_2995" data-name="Group 2995"> <g id="Group_2994" data-name="Group 2994"> <g id="Group_2993" data-name="Group 2993"> <g id="Group_2992" data-name="Group 2992"> <g id="Group_2991" data-name="Group 2991"> <g id="Group_2990" data-name="Group 2990"> <g id="Group_2989" data-name="Group 2989"> <g id="Group_2988" data-name="Group 2988"> <path id="Path_3964" data-name="Path 3964" d="M335.479,173.726h-15a1,1,0,0,1,0-2h15a1,1,0,0,1,0,2Z" fill="#FFA500"/> </g> </g> </g> </g> </g> </g> </g> </g> </g> </g> <g id="Group_3007" data-name="Group 3007"> <g id="Group_3006" data-name="Group 3006"> <g id="Group_3005" data-name="Group 3005"> <g id="Group_3004" data-name="Group 3004"> <g id="Group_3003" data-name="Group 3003"> <g id="Group_3002" data-name="Group 3002"> <g id="Group_3001" data-name="Group 3001"> <g id="Group_3000" data-name="Group 3000"> <g id="Group_2999" data-name="Group 2999"> <g id="Group_2998" data-name="Group 2998"> <path id="Path_3965" data-name="Path 3965" d="M335.479,177.684h-15a1,1,0,0,1,0-2h15a1,1,0,0,1,0,2Z" fill="#FFA500"/> </g> </g> </g> </g> </g> </g> </g> </g> </g> </g> <g id="Group_3017" data-name="Group 3017"> <g id="Group_3016" data-name="Group 3016"> <g id="Group_3015" data-name="Group 3015"> <g id="Group_3014" data-name="Group 3014"> <g id="Group_3013" data-name="Group 3013"> <g id="Group_3012" data-name="Group 3012"> <g id="Group_3011" data-name="Group 3011"> <g id="Group_3010" data-name="Group 3010"> <g id="Group_3009" data-name="Group 3009"> <g id="Group_3008" data-name="Group 3008"> <path id="Path_3966" data-name="Path 3966" d="M335.521,181.6h-15a1,1,0,0,1,0-2h15a1,1,0,0,1,0,2Z" fill="#FFA500"/> </g> </g> </g> </g> </g> </g> </g> </g> </g> </g> </g> </g> </g> </g> </g>

</svg>