<svg id="GX_Logo" data-name="GX Logo" xmlns="http://www.w3.org/2000/svg" xmlns:xlink="http://www.w3.org/1999/xlink" width="500" height="133.077" viewBox="0 0 500 133.077">
  <defs>
    <clipPath id="clip-path">
      <rect id="Rectangle_1334" data-name="Rectangle 1334" width="500" height="133.077" fill="none"/>
    </clipPath>
  </defs>
  <g id="GX_Logo-2" data-name="GX Logo" clip-path="url(#clip-path)">
    <path id="Path_349" data-name="Path 349" d="M218.234,50.348a7.884,7.884,0,0,0,1.039,2.543,5.156,5.156,0,0,0,1.777,1.728,5,5,0,0,0,2.557.628,7.145,7.145,0,0,0,1.642-.176,5.408,5.408,0,0,0,1.339-.5,4.692,4.692,0,0,0,1.1-.853,5.663,5.663,0,0,0,.828-1.128V41.118a5.358,5.358,0,0,0-.9-1.228,4.367,4.367,0,0,0-1.2-.853,5.826,5.826,0,0,0-1.266-.424,7,7,0,0,0-1.491-.152,4.93,4.93,0,0,0-2.557.639,5.258,5.258,0,0,0-1.777,1.742,8.359,8.359,0,0,0-1.077,2.619,13.9,13.9,0,0,0-.352,3.195v.525a14.15,14.15,0,0,0,.338,3.168m-6.563-9.331a13.208,13.208,0,0,1,2.191-4.385,9.893,9.893,0,0,1,3.458-2.83,10.2,10.2,0,0,1,4.585-1,11.207,11.207,0,0,1,2.519.263,7.633,7.633,0,0,1,2.067.79,7.437,7.437,0,0,1,1.3.891,8.447,8.447,0,0,1,1.1,1.139l.276-2.581h6.339V59.53a12.2,12.2,0,0,1-.939,4.91,10.2,10.2,0,0,1-2.619,3.634,11.559,11.559,0,0,1-4.072,2.243,16.889,16.889,0,0,1-5.224.763,14.855,14.855,0,0,1-2.63-.252,15.39,15.39,0,0,1-2.781-.777,13.372,13.372,0,0,1-2.605-1.339,8.841,8.841,0,0,1-2.105-1.943l3.134-4.234a9.816,9.816,0,0,0,1.453,1.366,8.463,8.463,0,0,0,3.344,1.528,8.977,8.977,0,0,0,1.842.186,8.067,8.067,0,0,0,2.719-.424,5.114,5.114,0,0,0,1.991-1.253,5.039,5.039,0,0,0,1.115-1.853,7.454,7.454,0,0,0,.386-2.481V58.053a9.874,9.874,0,0,1-1.052,1,8.07,8.07,0,0,1-1.177.8,8.544,8.544,0,0,1-2.043.776,9.969,9.969,0,0,1-2.391.277,9.78,9.78,0,0,1-4.548-1.039A10.351,10.351,0,0,1,213.869,57a13.16,13.16,0,0,1-2.191-4.347,18.737,18.737,0,0,1-.762-5.473v-.525a19.716,19.716,0,0,1,.762-5.638Z" transform="translate(-56.963 -8.858)" fill="#404041"/>
    <path id="Path_350" data-name="Path 350" d="M274,33.014a17.232,17.232,0,0,1,2.167.462l-1.028,6.939a24.1,24.1,0,0,0-2.819-.49,24.726,24.726,0,0,0-2.744-.162,11.678,11.678,0,0,0-2.442.238,7.024,7.024,0,0,0-1.943.715,5.918,5.918,0,0,0-1.753,1.4,7.494,7.494,0,0,0-1.2,2V60.409h-6.964V33.3h6.49l.276,3.834.048.6a12.477,12.477,0,0,1,3.958-3.62A9.983,9.983,0,0,1,271.08,32.8a18.683,18.683,0,0,1,2.919.214Z" transform="translate(-68.942 -8.859)" fill="#404041"/>
    <path id="Path_351" data-name="Path 351" d="M299.038,38.85a4.973,4.973,0,0,0-1.7,1.191,6.729,6.729,0,0,0-1.253,1.853,10.181,10.181,0,0,0-.752,2.405h11.426v-.552a5.466,5.466,0,0,0-.4-2.081,5.316,5.316,0,0,0-1.1-1.7,5.134,5.134,0,0,0-1.715-1.115,6.164,6.164,0,0,0-2.343-.414,5.448,5.448,0,0,0-2.153.414Zm-2.705,21.031a13.317,13.317,0,0,1-4.385-2.805,12.063,12.063,0,0,1-2.82-4.148,13.278,13.278,0,0,1-.99-5.124v-1a15.821,15.821,0,0,1,.976-5.673,13.26,13.26,0,0,1,2.73-4.424A12.38,12.38,0,0,1,296,33.822a13.217,13.217,0,0,1,5.235-1.028,13.563,13.563,0,0,1,5.224.966,10.936,10.936,0,0,1,3.9,2.719,11.872,11.872,0,0,1,2.405,4.22,17.053,17.053,0,0,1,.828,5.448V49.1H295.2v.076a9.676,9.676,0,0,0,.9,2.619,6.612,6.612,0,0,0,1.477,1.791,6.883,6.883,0,0,0,2.18,1.277,7.744,7.744,0,0,0,2.681.452,10.594,10.594,0,0,0,3.986-.776,7.35,7.35,0,0,0,3.133-2.329l3.482,3.758a11.791,11.791,0,0,1-4.21,3.406,14.371,14.371,0,0,1-6.815,1.528,15.087,15.087,0,0,1-5.687-1.028Z" transform="translate(-77.818 -8.857)" fill="#404041"/>
    <path id="Path_352" data-name="Path 352" d="M343.334,55.279a7.431,7.431,0,0,0,1.629-.653,5.8,5.8,0,0,0,1.253-.915,4.784,4.784,0,0,0,.828-1.039V48.012h-3.558a10.659,10.659,0,0,0-2.781.314,5.521,5.521,0,0,0-1.88.863,3.592,3.592,0,0,0-1.077,1.366,4.158,4.158,0,0,0-.352,1.715,3.35,3.35,0,0,0,.262,1.339,2.8,2.8,0,0,0,.763,1.039,3.841,3.841,0,0,0,1.239.638,5.6,5.6,0,0,0,1.715.238,7.181,7.181,0,0,0,1.953-.252Zm4.258,3.982q-.176-.653-.3-1.377a9.052,9.052,0,0,1-1.328,1.177,8.71,8.71,0,0,1-1.653.953,9.866,9.866,0,0,1-2.029.662,11.252,11.252,0,0,1-2.381.238,11.65,11.65,0,0,1-3.82-.6,9.06,9.06,0,0,1-2.995-1.677,7.614,7.614,0,0,1-1.953-2.567,7.492,7.492,0,0,1-.7-3.244,8.776,8.776,0,0,1,.877-4,7.252,7.252,0,0,1,2.629-2.867,12.153,12.153,0,0,1,3.9-1.566,23.654,23.654,0,0,1,5.324-.539h3.883v-1.6a4.633,4.633,0,0,0-.3-1.715,3.476,3.476,0,0,0-.9-1.315,4.3,4.3,0,0,0-1.567-.89,6.877,6.877,0,0,0-2.191-.315,6.12,6.12,0,0,0-1.9.263,3.4,3.4,0,0,0-1.3.738,2.552,2.552,0,0,0-.663,1.028A3.974,3.974,0,0,0,338,41.376H331.03a7.366,7.366,0,0,1,.762-3.282,7.981,7.981,0,0,1,2.243-2.729,11.064,11.064,0,0,1,3.572-1.866,15.652,15.652,0,0,1,4.848-.691,16.687,16.687,0,0,1,4.572.6,10.993,10.993,0,0,1,3.672,1.777,8.183,8.183,0,0,1,2.429,2.968A9.341,9.341,0,0,1,354,42.3V53.926a19.29,19.29,0,0,0,.277,3.609,9.221,9.221,0,0,0,.8,2.453v.428h-7.064a6.069,6.069,0,0,1-.424-1.153Z" transform="translate(-89.241 -8.861)" fill="#404041"/>
    <path id="Path_353" data-name="Path 353" d="M382.36,31.034h10.12v5.134H382.36v11.65a7.745,7.745,0,0,0,.338,2.467,3.721,3.721,0,0,0,.966,1.566,3.55,3.55,0,0,0,1.515.853,7.392,7.392,0,0,0,1.991.252c.535,0,1.08-.024,1.642-.076s1.1-.118,1.615-.2c.5-.066.973-.142,1.415-.225s.821-.165,1.139-.252l.676,4.786a8.383,8.383,0,0,1-1.7.739,16.383,16.383,0,0,1-2.08.514c-.735.135-1.5.238-2.292.314s-1.573.114-2.342.114a13.061,13.061,0,0,1-4.048-.59,7.787,7.787,0,0,1-3.095-1.842,8.04,8.04,0,0,1-2.005-3.144,13.447,13.447,0,0,1-.7-4.6V36.172H369.2V31.037h6.187V24.4h6.966v6.639Z" transform="translate(-99.712 -6.589)" fill="#404041"/>
    <path id="Path_354" data-name="Path 354" d="M221.765,111.88a4.973,4.973,0,0,0-1.7,1.19,6.745,6.745,0,0,0-1.253,1.853,10.235,10.235,0,0,0-.753,2.405h11.426v-.552a5.465,5.465,0,0,0-.4-2.081,5.314,5.314,0,0,0-1.1-1.7,5.09,5.09,0,0,0-1.715-1.115,6.164,6.164,0,0,0-2.343-.414,5.448,5.448,0,0,0-2.153.414Zm-2.705,21.031a13.317,13.317,0,0,1-4.385-2.805,12.062,12.062,0,0,1-2.82-4.148,13.288,13.288,0,0,1-.99-5.124v-1a15.851,15.851,0,0,1,.976-5.676,13.207,13.207,0,0,1,2.73-4.42,12.369,12.369,0,0,1,4.158-2.881,13.218,13.218,0,0,1,5.235-1.028,13.632,13.632,0,0,1,5.224.963,10.936,10.936,0,0,1,3.9,2.719,11.858,11.858,0,0,1,2.405,4.223,17.056,17.056,0,0,1,.828,5.449v2.957H217.928v.076a9.726,9.726,0,0,0,.9,2.619,6.611,6.611,0,0,0,1.477,1.791,6.883,6.883,0,0,0,2.18,1.277,7.744,7.744,0,0,0,2.681.452,10.593,10.593,0,0,0,3.986-.776,7.356,7.356,0,0,0,3.133-2.329l3.482,3.758a11.827,11.827,0,0,1-4.209,3.409,14.362,14.362,0,0,1-6.815,1.529,15.1,15.1,0,0,1-5.687-1.028Z" transform="translate(-56.949 -28.581)" fill="#404041"/>
    <path id="Path_355" data-name="Path 355" d="M268.622,106.518h7.491l-9.1,13.3,9.42,13.8h-7.516l-6.239-8.868-6.187,8.868h-7.539l9.42-13.8-9.068-13.3H256.8l5.863,8.468,5.963-8.468Z" transform="translate(-67.237 -28.768)" fill="#404041"/>
    <path id="Path_356" data-name="Path 356" d="M309.56,116.416a8.686,8.686,0,0,0-.963-2.595,5.185,5.185,0,0,0-1.715-1.7,4.8,4.8,0,0,0-2.519-.628,6.923,6.923,0,0,0-1.553.162,5.318,5.318,0,0,0-1.277.462,4.327,4.327,0,0,0-1.139.877,5.187,5.187,0,0,0-.839,1.228v11.325a5.337,5.337,0,0,0,.791,1.177,4.494,4.494,0,0,0,2.395,1.439,6.97,6.97,0,0,0,1.677.186,4.653,4.653,0,0,0,2.519-.653,5.029,5.029,0,0,0,1.691-1.777,8.583,8.583,0,0,0,.953-2.619,16.039,16.039,0,0,0,.3-3.168V119.6a15.388,15.388,0,0,0-.314-3.2Zm-16.974-10.083h6.439l.252,2.657a8.536,8.536,0,0,1,1.2-1.215,8.233,8.233,0,0,1,1.4-.939,8.572,8.572,0,0,1,1.991-.738,9.911,9.911,0,0,1,2.343-.263,10.07,10.07,0,0,1,4.558.991,9.346,9.346,0,0,1,3.333,2.795,13.072,13.072,0,0,1,2.043,4.372,21.493,21.493,0,0,1,.69,5.624v.528a20.839,20.839,0,0,1-.69,5.486,13.3,13.3,0,0,1-2.015,4.358,9.711,9.711,0,0,1-3.334,2.905,9.51,9.51,0,0,1-4.534,1.053,10.262,10.262,0,0,1-2.491-.286,8.708,8.708,0,0,1-2.119-.839,10.073,10.073,0,0,1-1.1-.777,8.64,8.64,0,0,1-1-.952v12.777h-6.964V106.343Z" transform="translate(-79.02 -28.583)" fill="#404041"/>
    <path id="Path_357" data-name="Path 357" d="M343.116,111.88a4.974,4.974,0,0,0-1.7,1.19,6.745,6.745,0,0,0-1.253,1.853,10.235,10.235,0,0,0-.753,2.405h11.426v-.552a5.466,5.466,0,0,0-.4-2.081,5.376,5.376,0,0,0-1.1-1.7,5.117,5.117,0,0,0-1.715-1.115,6.164,6.164,0,0,0-2.343-.414,5.448,5.448,0,0,0-2.153.414Zm-2.705,21.031a13.317,13.317,0,0,1-4.385-2.805,12.062,12.062,0,0,1-2.82-4.148,13.277,13.277,0,0,1-.99-5.124v-1a15.851,15.851,0,0,1,.976-5.676,13.149,13.149,0,0,1,2.73-4.42,12.368,12.368,0,0,1,4.158-2.881,13.217,13.217,0,0,1,5.235-1.028,13.631,13.631,0,0,1,5.224.963,10.936,10.936,0,0,1,3.9,2.719,11.859,11.859,0,0,1,2.405,4.223,17.056,17.056,0,0,1,.828,5.449v2.957H339.279v.076a9.724,9.724,0,0,0,.9,2.619,6.613,6.613,0,0,0,1.477,1.791,6.884,6.884,0,0,0,2.18,1.277,7.732,7.732,0,0,0,2.681.452,10.561,10.561,0,0,0,3.982-.776,7.356,7.356,0,0,0,3.133-2.329l3.482,3.758a11.827,11.827,0,0,1-4.209,3.409,14.36,14.36,0,0,1-6.815,1.529,15.082,15.082,0,0,1-5.686-1.028Z" transform="translate(-89.723 -28.581)" fill="#404041"/>
    <path id="Path_358" data-name="Path 358" d="M388.652,128.077a5.188,5.188,0,0,0,1.628-.853,3.878,3.878,0,0,0,1.091-1.328,3.378,3.378,0,0,0,.338-1.728h6.563a8.1,8.1,0,0,1-.863,3.909,9.621,9.621,0,0,1-2.495,3.106,12.017,12.017,0,0,1-3.671,2.042,13.152,13.152,0,0,1-4.423.739,13.44,13.44,0,0,1-5.539-1.066,11,11,0,0,1-3.958-2.919,12.515,12.515,0,0,1-2.419-4.348,17.16,17.16,0,0,1-.814-5.348v-.753a17.339,17.339,0,0,1,.8-5.348,12.355,12.355,0,0,1,2.405-4.348,11.417,11.417,0,0,1,3.971-2.929,13.176,13.176,0,0,1,5.5-1.077,13.835,13.835,0,0,1,4.634.753,11.235,11.235,0,0,1,3.682,2.1,9.646,9.646,0,0,1,2.381,3.32,10.177,10.177,0,0,1,.8,4.347H391.7a4.549,4.549,0,0,0-.3-1.9,4.292,4.292,0,0,0-1.029-1.553,5.077,5.077,0,0,0-1.628-1.039,5.455,5.455,0,0,0-2.081-.387,5.041,5.041,0,0,0-2.729.677,4.918,4.918,0,0,0-1.705,1.8,7.96,7.96,0,0,0-.914,2.581,16.738,16.738,0,0,0-.263,3.006v.752a17.869,17.869,0,0,0,.252,3.044,7.451,7.451,0,0,0,.9,2.567,4.894,4.894,0,0,0,1.715,1.805,5.163,5.163,0,0,0,2.767.676,6.306,6.306,0,0,0,1.953-.3Z" transform="translate(-101.032 -28.581)" fill="#404041"/>
    <path id="Path_359" data-name="Path 359" d="M425.96,104.062h10.12V109.2H425.96v11.65a7.747,7.747,0,0,0,.338,2.467,3.722,3.722,0,0,0,.966,1.566,3.513,3.513,0,0,0,1.515.853,7.392,7.392,0,0,0,1.991.252c.535,0,1.08-.024,1.642-.076s1.1-.118,1.615-.2c.5-.066.973-.142,1.415-.225s.821-.165,1.139-.252l.676,4.786a8.38,8.38,0,0,1-1.7.739,16.381,16.381,0,0,1-2.08.514c-.735.135-1.5.238-2.292.314s-1.573.114-2.342.114a13.061,13.061,0,0,1-4.048-.59,7.787,7.787,0,0,1-3.095-1.842,8.041,8.041,0,0,1-2.005-3.144,13.446,13.446,0,0,1-.7-4.6V109.2H412.8v-5.134h6.187V97.426h6.966v6.639Z" transform="translate(-111.487 -26.312)" fill="#404041"/>
    <path id="Path_360" data-name="Path 360" d="M465.159,128.3a7.431,7.431,0,0,0,1.629-.653,5.782,5.782,0,0,0,1.253-.915,4.758,4.758,0,0,0,.828-1.039v-4.658h-3.557a10.62,10.62,0,0,0-2.781.314,5.459,5.459,0,0,0-1.881.866,3.593,3.593,0,0,0-1.077,1.366,4.152,4.152,0,0,0-.352,1.715,3.347,3.347,0,0,0,.262,1.339,2.817,2.817,0,0,0,.764,1.039,3.894,3.894,0,0,0,1.238.638,5.6,5.6,0,0,0,1.715.239,7.21,7.21,0,0,0,1.953-.252Zm4.259,3.982c-.118-.435-.217-.893-.3-1.377a9.013,9.013,0,0,1-1.328,1.177,9.116,9.116,0,0,1-1.653.953,9.882,9.882,0,0,1-2.029.662,11.25,11.25,0,0,1-2.381.238,11.653,11.653,0,0,1-3.82-.6,9.058,9.058,0,0,1-2.995-1.677,7.622,7.622,0,0,1-1.953-2.567,7.49,7.49,0,0,1-.7-3.244,8.776,8.776,0,0,1,.876-4,7.238,7.238,0,0,1,2.629-2.867,12.177,12.177,0,0,1,3.9-1.567,23.7,23.7,0,0,1,5.324-.538h3.882v-1.6a4.619,4.619,0,0,0-.3-1.715,3.482,3.482,0,0,0-.9-1.315,4.324,4.324,0,0,0-1.567-.891,6.9,6.9,0,0,0-2.192-.314,6.1,6.1,0,0,0-1.9.263,3.409,3.409,0,0,0-1.3.738,2.576,2.576,0,0,0-.662,1.028,3.953,3.953,0,0,0-.214,1.328h-6.966a7.356,7.356,0,0,1,.762-3.282,7.963,7.963,0,0,1,2.243-2.729,11.065,11.065,0,0,1,3.572-1.867,15.672,15.672,0,0,1,4.848-.69,16.682,16.682,0,0,1,4.572.6,10.985,10.985,0,0,1,3.672,1.777,8.146,8.146,0,0,1,2.429,2.968,9.341,9.341,0,0,1,.876,4.147V126.95a19.294,19.294,0,0,0,.277,3.609,9.266,9.266,0,0,0,.8,2.457v.425h-7.064a5.972,5.972,0,0,1-.424-1.153Z" transform="translate(-122.143 -28.582)" fill="#404041"/>
    <path id="Path_361" data-name="Path 361" d="M504.656,104.062h10.121V109.2H504.656v11.65a7.745,7.745,0,0,0,.338,2.467,3.716,3.716,0,0,0,.963,1.566,3.511,3.511,0,0,0,1.515.853,7.386,7.386,0,0,0,1.99.252c.535,0,1.08-.024,1.643-.076s1.1-.118,1.615-.2c.5-.066.973-.142,1.415-.225s.825-.165,1.139-.252l.677,4.786a8.5,8.5,0,0,1-1.705.739,16.36,16.36,0,0,1-2.08.514c-.735.135-1.5.238-2.291.314s-1.574.114-2.343.114a13.057,13.057,0,0,1-4.047-.59,7.789,7.789,0,0,1-3.1-1.842,8.037,8.037,0,0,1-2-3.144,13.444,13.444,0,0,1-.7-4.6V109.2H491.5v-5.134h6.187V97.426h6.967v6.639Z" transform="translate(-132.74 -26.312)" fill="#404041"/>
    <path id="Path_362" data-name="Path 362" d="M540.463,94.147a3.457,3.457,0,0,1,.815-1.191,3.948,3.948,0,0,1,1.266-.752,4.678,4.678,0,0,1,1.642-.277,4.082,4.082,0,0,1,2.943,1.039,3.808,3.808,0,0,1,0,5.335,4.088,4.088,0,0,1-2.943,1.039,4.706,4.706,0,0,1-1.642-.276,3.664,3.664,0,0,1-1.266-.777,3.235,3.235,0,0,1-.815-1.162,3.8,3.8,0,0,1-.286-1.491,3.86,3.86,0,0,1,.286-1.491Zm7.253,8.43v21.446h7.339v5.662h-22.1v-5.662h7.715V108.264h-7.715v-5.687h14.758Z" transform="translate(-143.938 -24.827)" fill="#404041"/>
    <path id="Path_363" data-name="Path 363" d="M574.808,123.353a7.912,7.912,0,0,0,1.028,2.592,5.169,5.169,0,0,0,1.815,1.777,5.245,5.245,0,0,0,2.695.653,4.984,4.984,0,0,0,2.629-.653,5.281,5.281,0,0,0,1.8-1.777,8.255,8.255,0,0,0,1-2.592,14.9,14.9,0,0,0,.325-3.195v-.528a14.744,14.744,0,0,0-.325-3.134,8.713,8.713,0,0,0-1-2.605,4.966,4.966,0,0,0-4.485-2.429,5.093,5.093,0,0,0-2.657.652,5.294,5.294,0,0,0-1.805,1.777A8.232,8.232,0,0,0,574.8,116.5a14.518,14.518,0,0,0-.325,3.134v.528a14.934,14.934,0,0,0,.325,3.195Zm-6.439-9.2a12.51,12.51,0,0,1,2.505-4.372,11.429,11.429,0,0,1,4-2.905,14.54,14.54,0,0,1,10.863,0,11.629,11.629,0,0,1,4.034,2.905,12.726,12.726,0,0,1,2.481,4.372,17.028,17.028,0,0,1,.853,5.476v.528a17.033,17.033,0,0,1-.853,5.5,12.719,12.719,0,0,1-2.481,4.372,11.27,11.27,0,0,1-4.009,2.895,13.393,13.393,0,0,1-5.41,1.039,13.669,13.669,0,0,1-5.449-1.039,11.175,11.175,0,0,1-4.02-2.895,12.5,12.5,0,0,1-2.505-4.372,17.018,17.018,0,0,1-.853-5.5v-.528a16.962,16.962,0,0,1,.853-5.476Z" transform="translate(-153.272 -28.581)" fill="#404041"/>
    <path id="Path_364" data-name="Path 364" d="M610.535,106.331h6.315l.425,3.758a10.454,10.454,0,0,1,1.152-1.377,10.566,10.566,0,0,1,1.328-1.128,9.459,9.459,0,0,1,2.63-1.3,10.036,10.036,0,0,1,3.033-.452,11.26,11.26,0,0,1,3.758.6,7.528,7.528,0,0,1,2.958,1.905,9.241,9.241,0,0,1,1.915,3.4,16.012,16.012,0,0,1,.691,5.024v16.683h-6.964V116.852a8.142,8.142,0,0,0-.363-2.642,3.861,3.861,0,0,0-1.038-1.644,3.8,3.8,0,0,0-1.629-.838,8.878,8.878,0,0,0-2.153-.239,7.145,7.145,0,0,0-1.842.225,4.837,4.837,0,0,0-1.49.676,4.737,4.737,0,0,0-.953.777,6.686,6.686,0,0,0-.777,1v19.264h-6.991V106.327Z" transform="translate(-164.889 -28.581)" fill="#404041"/>
    <path id="Path_365" data-name="Path 365" d="M668.8,124.9a2.831,2.831,0,0,0-1.015-.9,10.363,10.363,0,0,0-1.981-.752c-.818-.235-1.853-.466-3.106-.7a30.014,30.014,0,0,1-4.348-1.191,13.3,13.3,0,0,1-3.368-1.742,7.692,7.692,0,0,1-2.191-2.329,5.878,5.878,0,0,1-.79-3.058,6.687,6.687,0,0,1,.8-3.205,8.176,8.176,0,0,1,2.3-2.682,11.788,11.788,0,0,1,3.658-1.828,16.165,16.165,0,0,1,4.861-.677,18.457,18.457,0,0,1,5.086.663,12.372,12.372,0,0,1,3.834,1.815,8.216,8.216,0,0,1,2.382,2.781,7.486,7.486,0,0,1,.827,3.482h-6.966a3.541,3.541,0,0,0-.225-1.266,3.276,3.276,0,0,0-.676-1.066,4.391,4.391,0,0,0-1.69-1,7.727,7.727,0,0,0-2.568-.376,8.689,8.689,0,0,0-2.228.252,4.426,4.426,0,0,0-1.553.7,2.766,2.766,0,0,0-.839.938,2.37,2.37,0,0,0-.285,1.139,2.472,2.472,0,0,0,.251,1.115,2.272,2.272,0,0,0,.9.915,6.511,6.511,0,0,0,1.729.763,19.489,19.489,0,0,0,2.806.587,37.046,37.046,0,0,1,4.558,1.028,14.242,14.242,0,0,1,3.633,1.6,7.688,7.688,0,0,1,2.391,2.419,6.339,6.339,0,0,1,.863,3.368,6.584,6.584,0,0,1-.863,3.32,8.07,8.07,0,0,1-2.443,2.619,12.545,12.545,0,0,1-3.858,1.715,19.27,19.27,0,0,1-5.034.614,16.641,16.641,0,0,1-5.4-.8,12.336,12.336,0,0,1-3.92-2.1,8.766,8.766,0,0,1-2.393-2.92,7.361,7.361,0,0,1-.814-3.295h6.639a3.825,3.825,0,0,0,.6,1.891A3.989,3.989,0,0,0,659.72,128a6.043,6.043,0,0,0,1.891.728,11.35,11.35,0,0,0,4.558-.014,5.714,5.714,0,0,0,1.667-.639,2.8,2.8,0,0,0,.939-.928,2.209,2.209,0,0,0,.313-1.153,2.092,2.092,0,0,0-.287-1.1Z" transform="translate(-175.852 -28.582)" fill="#404041"/>
    <path id="Path_366" data-name="Path 366" d="M104.274,60.707H74.826a8.281,8.281,0,0,0,0,16.563h10.7L97.349,89.1a37.743,37.743,0,0,0,6.926-16.722,38.439,38.439,0,0,0,.442-5.831,38.906,38.906,0,0,0-.442-5.831Zm11.753-.142a50.423,50.423,0,0,1,.352,5.973,49.823,49.823,0,0,1-80.713,39.123L23.8,117.532a66.542,66.542,0,0,0,109.288-51q0-3.022-.266-5.973H116.027Zm-49.485-32.2a37.879,37.879,0,0,0-22.553,7.367L55.91,47.657a21.694,21.694,0,0,1,16.473-1.984l6.346-15.324a38.219,38.219,0,0,0-12.184-1.981ZM27.415,97.418a49.836,49.836,0,0,1,70-70l11.87-11.87a66.54,66.54,0,0,0-93.739,93.739Zm61.68-.072A38.182,38.182,0,0,1,35.735,43.985L47.656,55.907a21.676,21.676,0,0,0,29.52,29.52L89.1,97.35Z" fill="#ff6310"/>
  </g>
</svg>
