<svg id="GX_Dark_BG" data-name="GX Dark BG" xmlns="http://www.w3.org/2000/svg" xmlns:xlink="http://www.w3.org/1999/xlink" width="500" height="132.95" viewBox="0 0 500 132.95">
  <defs>
    <clipPath id="clip-path">
      <rect id="Rectangle_1340" data-name="Rectangle 1340" width="500" height="132.95" fill="none"/>
    </clipPath>
  </defs>
  <g id="GX_Dark_BG-2" data-name="GX Dark BG" clip-path="url(#clip-path)">
    <path id="Path_421" data-name="Path 421" d="M165.046,42.037a7.87,7.87,0,0,0,1.039,2.541,5.157,5.157,0,0,0,1.777,1.728,5,5,0,0,0,2.556.627,7.125,7.125,0,0,0,1.643-.176,5.384,5.384,0,0,0,1.339-.5,4.744,4.744,0,0,0,1.1-.851,5.671,5.671,0,0,0,.828-1.127V32.815a5.352,5.352,0,0,0-.9-1.227,4.361,4.361,0,0,0-1.2-.851,5.836,5.836,0,0,0-1.267-.425,7.021,7.021,0,0,0-1.49-.151,4.938,4.938,0,0,0-2.556.637,5.26,5.26,0,0,0-1.777,1.741,8.356,8.356,0,0,0-1.077,2.617,13.876,13.876,0,0,0-.352,3.192v.524a14.089,14.089,0,0,0,.339,3.164m-6.563-9.322a13.179,13.179,0,0,1,2.191-4.382,9.9,9.9,0,0,1,3.457-2.827,10.212,10.212,0,0,1,4.586-1,11.161,11.161,0,0,1,2.519.263,7.64,7.64,0,0,1,2.067.789,7.437,7.437,0,0,1,1.3.89,8.394,8.394,0,0,1,1.1,1.137L175.987,25h6.339V51.21a12.183,12.183,0,0,1-.938,4.906,10.2,10.2,0,0,1-2.62,3.63,11.565,11.565,0,0,1-4.071,2.241,16.9,16.9,0,0,1-5.224.761,14.825,14.825,0,0,1-2.63-.251,15.455,15.455,0,0,1-2.782-.776,13.4,13.4,0,0,1-2.605-1.337,8.841,8.841,0,0,1-2.1-1.941l3.133-4.229a9.821,9.821,0,0,0,1.452,1.365,8.494,8.494,0,0,0,3.344,1.528,8.988,8.988,0,0,0,1.843.186,8.072,8.072,0,0,0,2.718-.425,5.118,5.118,0,0,0,1.991-1.251,5.019,5.019,0,0,0,1.115-1.852,7.428,7.428,0,0,0,.387-2.478V49.736a9.906,9.906,0,0,1-1.052,1,8.031,8.031,0,0,1-1.177.8,8.51,8.51,0,0,1-2.043.776,10,10,0,0,1-2.391.276,9.785,9.785,0,0,1-4.548-1.039,10.33,10.33,0,0,1-3.444-2.865,13.123,13.123,0,0,1-2.191-4.344,18.682,18.682,0,0,1-.762-5.467v-.524a19.675,19.675,0,0,1,.762-5.633Z" transform="translate(-3.773 -0.586)" fill="#fff"/>
    <path id="Path_422" data-name="Path 422" d="M209.628,24.718a17.207,17.207,0,0,1,2.166.462l-1.028,6.933a24.034,24.034,0,0,0-2.819-.49,24.955,24.955,0,0,0-2.744-.162,11.76,11.76,0,0,0-2.443.238,7.031,7.031,0,0,0-1.942.714,5.915,5.915,0,0,0-1.753,1.4,7.448,7.448,0,0,0-1.2,2V52.086H190.9V25.008h6.492l.274,3.83.05.6a12.453,12.453,0,0,1,3.957-3.616,9.994,9.994,0,0,1,5.035-1.313,18.676,18.676,0,0,1,2.918.214Z" transform="translate(-4.567 -0.586)" fill="#fff"/>
    <path id="Path_423" data-name="Path 423" d="M226.375,30.55a4.985,4.985,0,0,0-1.7,1.19,6.738,6.738,0,0,0-1.252,1.852,10.143,10.143,0,0,0-.753,2.4h11.425v-.551a5.461,5.461,0,0,0-.4-2.079,5.307,5.307,0,0,0-1.1-1.7,5.126,5.126,0,0,0-1.715-1.114,6.157,6.157,0,0,0-2.343-.414,5.448,5.448,0,0,0-2.154.414Zm-2.7,21.012a13.312,13.312,0,0,1-4.386-2.8,12.061,12.061,0,0,1-2.82-4.144,13.256,13.256,0,0,1-.99-5.119v-1a15.794,15.794,0,0,1,.976-5.668,13.244,13.244,0,0,1,2.73-4.419,12.345,12.345,0,0,1,4.158-2.878,13.21,13.21,0,0,1,5.234-1.028,13.584,13.584,0,0,1,5.225.965,10.95,10.95,0,0,1,3.9,2.716A11.851,11.851,0,0,1,240.1,32.4a17,17,0,0,1,.829,5.443V40.8H222.538v.076a9.663,9.663,0,0,0,.9,2.616,6.6,6.6,0,0,0,1.477,1.789,6.88,6.88,0,0,0,2.181,1.276,7.757,7.757,0,0,0,2.681.452,10.588,10.588,0,0,0,3.985-.776A7.343,7.343,0,0,0,236.9,43.9l3.482,3.754a11.775,11.775,0,0,1-4.21,3.4,14.372,14.372,0,0,1-6.815,1.528,15.1,15.1,0,0,1-5.687-1.028Z" transform="translate(-5.155 -0.586)" fill="#fff"/>
    <path id="Path_424" data-name="Path 424" d="M260.006,46.96a7.421,7.421,0,0,0,1.628-.651,5.81,5.81,0,0,0,1.252-.914,4.8,4.8,0,0,0,.829-1.038V39.7h-3.558a10.626,10.626,0,0,0-2.781.314,5.513,5.513,0,0,0-1.881.862,3.587,3.587,0,0,0-1.077,1.365,4.168,4.168,0,0,0-.352,1.714,3.346,3.346,0,0,0,.263,1.337,2.8,2.8,0,0,0,.762,1.038,3.844,3.844,0,0,0,1.24.637,5.6,5.6,0,0,0,1.715.238A7.194,7.194,0,0,0,260,46.953Zm4.258,3.978q-.176-.652-.3-1.375a8.98,8.98,0,0,1-1.328,1.175,8.694,8.694,0,0,1-1.653.952,9.814,9.814,0,0,1-2.029.662,11.247,11.247,0,0,1-2.381.238,11.635,11.635,0,0,1-3.819-.6,9.06,9.06,0,0,1-3-1.675,7.6,7.6,0,0,1-1.953-2.565,7.478,7.478,0,0,1-.7-3.241,8.767,8.767,0,0,1,.877-3.992,7.269,7.269,0,0,1,2.63-2.865,12.174,12.174,0,0,1,3.9-1.565,23.711,23.711,0,0,1,5.324-.538h3.882v-1.6a4.64,4.64,0,0,0-.3-1.714,3.472,3.472,0,0,0-.9-1.313,4.309,4.309,0,0,0-1.567-.89,6.907,6.907,0,0,0-2.191-.313,6.129,6.129,0,0,0-1.9.262,3.413,3.413,0,0,0-1.3.738,2.545,2.545,0,0,0-.663,1.028,3.949,3.949,0,0,0-.214,1.327H247.7a7.358,7.358,0,0,1,.762-3.279,7.969,7.969,0,0,1,2.243-2.727,11.081,11.081,0,0,1,3.571-1.865,15.7,15.7,0,0,1,4.848-.689,16.743,16.743,0,0,1,4.572.6,11.018,11.018,0,0,1,3.672,1.775,8.182,8.182,0,0,1,2.428,2.965,9.319,9.319,0,0,1,.877,4.143V45.609a19.3,19.3,0,0,0,.276,3.606,9.227,9.227,0,0,0,.8,2.451v.428h-7.063a6.026,6.026,0,0,1-.425-1.151Z" transform="translate(-5.912 -0.586)" fill="#fff"/>
    <path id="Path_425" data-name="Path 425" d="M289.254,24.858h10.121v5.129H289.254V41.626a7.744,7.744,0,0,0,.338,2.465,3.727,3.727,0,0,0,.966,1.566,3.561,3.561,0,0,0,1.515.851,7.421,7.421,0,0,0,1.991.252c.535,0,1.081-.024,1.643-.076s1.1-.117,1.614-.2c.5-.065.973-.142,1.415-.224s.821-.166,1.138-.252l.676,4.781a8.4,8.4,0,0,1-1.7.738,16.336,16.336,0,0,1-2.081.514c-.735.134-1.5.237-2.291.313s-1.573.113-2.344.113a13.083,13.083,0,0,1-4.047-.589,7.806,7.806,0,0,1-3.1-1.841,8.022,8.022,0,0,1-2-3.141,13.4,13.4,0,0,1-.7-4.591V29.991H276.1V24.861h6.187V18.228h6.966v6.633Z" transform="translate(-6.605 -0.436)" fill="#fff"/>
    <path id="Path_426" data-name="Path 426" d="M168.589,85.11a4.979,4.979,0,0,0-1.705,1.19,6.739,6.739,0,0,0-1.252,1.852,10.186,10.186,0,0,0-.753,2.4H176.3V90a5.461,5.461,0,0,0-.4-2.079,5.307,5.307,0,0,0-1.1-1.7,5.067,5.067,0,0,0-1.715-1.114,6.157,6.157,0,0,0-2.343-.414,5.44,5.44,0,0,0-2.153.414Zm-2.706,21.012a13.312,13.312,0,0,1-4.386-2.8,12.061,12.061,0,0,1-2.82-4.144,13.27,13.27,0,0,1-.99-5.119v-1a15.825,15.825,0,0,1,.976-5.671,13.2,13.2,0,0,1,2.73-4.416,12.373,12.373,0,0,1,4.158-2.878,13.227,13.227,0,0,1,5.234-1.027,13.639,13.639,0,0,1,5.225.961,10.95,10.95,0,0,1,3.9,2.716,11.838,11.838,0,0,1,2.405,4.22,17,17,0,0,1,.829,5.444V95.36H164.751v.075a9.708,9.708,0,0,0,.9,2.617,6.6,6.6,0,0,0,1.477,1.789,6.9,6.9,0,0,0,2.181,1.276,7.757,7.757,0,0,0,2.681.451,10.587,10.587,0,0,0,3.985-.775,7.351,7.351,0,0,0,3.133-2.327l3.482,3.754a11.81,11.81,0,0,1-4.21,3.406,14.372,14.372,0,0,1-6.815,1.528,15.122,15.122,0,0,1-5.687-1.027Z" transform="translate(-3.772 -1.892)" fill="#fff"/>
    <path id="Path_427" data-name="Path 427" d="M205.84,79.579h7.491l-9.1,13.289,9.42,13.79H206.14L199.9,97.8l-6.187,8.86h-7.539l9.42-13.79-9.068-13.289h7.49l5.863,8.46,5.963-8.46Z" transform="translate(-4.454 -1.904)" fill="#fff"/>
    <path id="Path_428" data-name="Path 428" d="M235.775,89.64a8.667,8.667,0,0,0-.963-2.592,5.189,5.189,0,0,0-1.715-1.7,4.8,4.8,0,0,0-2.518-.627,6.917,6.917,0,0,0-1.553.162,5.3,5.3,0,0,0-1.277.462,4.312,4.312,0,0,0-1.139.876,5.184,5.184,0,0,0-.838,1.227V98.758a5.343,5.343,0,0,0,.791,1.175,4.486,4.486,0,0,0,2.394,1.438,6.981,6.981,0,0,0,1.677.186,4.659,4.659,0,0,0,2.519-.652,5.033,5.033,0,0,0,1.691-1.775,8.555,8.555,0,0,0,.953-2.616,16.01,16.01,0,0,0,.3-3.165v-.527a15.443,15.443,0,0,0-.313-3.193ZM218.8,79.567h6.439l.252,2.655a8.485,8.485,0,0,1,1.2-1.214,8.235,8.235,0,0,1,1.4-.937,8.579,8.579,0,0,1,1.991-.738,9.964,9.964,0,0,1,2.344-.263,10.088,10.088,0,0,1,4.558.99,9.361,9.361,0,0,1,3.333,2.793,13.046,13.046,0,0,1,2.042,4.368,21.425,21.425,0,0,1,.69,5.619v.527a20.781,20.781,0,0,1-.69,5.482,13.257,13.257,0,0,1-2.015,4.353,9.709,9.709,0,0,1-3.333,2.9,9.524,9.524,0,0,1-4.534,1.051,10.292,10.292,0,0,1-2.492-.286,8.738,8.738,0,0,1-2.119-.837,10.154,10.154,0,0,1-1.1-.776,8.5,8.5,0,0,1-1-.952v12.766h-6.963V79.578Z" transform="translate(-5.235 -1.892)" fill="#fff"/>
    <path id="Path_429" data-name="Path 429" d="M259.338,85.11a4.979,4.979,0,0,0-1.705,1.19,6.739,6.739,0,0,0-1.252,1.852,10.185,10.185,0,0,0-.753,2.4h11.425V90a5.461,5.461,0,0,0-.4-2.079,5.373,5.373,0,0,0-1.1-1.7,5.106,5.106,0,0,0-1.715-1.114,6.157,6.157,0,0,0-2.343-.414,5.44,5.44,0,0,0-2.153.414Zm-2.706,21.012a13.312,13.312,0,0,1-4.386-2.8,12.061,12.061,0,0,1-2.82-4.144,13.256,13.256,0,0,1-.99-5.119v-1a15.825,15.825,0,0,1,.976-5.671,13.14,13.14,0,0,1,2.73-4.416,12.373,12.373,0,0,1,4.158-2.878,13.227,13.227,0,0,1,5.234-1.027,13.639,13.639,0,0,1,5.225.961,10.95,10.95,0,0,1,3.9,2.716,11.854,11.854,0,0,1,2.405,4.22,17,17,0,0,1,.829,5.444V95.36H255.5v.075a9.707,9.707,0,0,0,.9,2.617,6.6,6.6,0,0,0,1.477,1.789,6.9,6.9,0,0,0,2.181,1.276,7.741,7.741,0,0,0,2.681.451,10.561,10.561,0,0,0,3.982-.775,7.356,7.356,0,0,0,3.133-2.327l3.482,3.754a11.828,11.828,0,0,1-4.21,3.406,14.372,14.372,0,0,1-6.815,1.528,15.1,15.1,0,0,1-5.687-1.027Z" transform="translate(-5.944 -1.892)" fill="#fff"/>
    <path id="Path_430" data-name="Path 430" d="M294.314,101.292a5.2,5.2,0,0,0,1.628-.851,3.891,3.891,0,0,0,1.09-1.327,3.389,3.389,0,0,0,.338-1.728h6.563a8.094,8.094,0,0,1-.863,3.906,9.592,9.592,0,0,1-2.495,3.1,12.044,12.044,0,0,1-3.67,2.041,13.175,13.175,0,0,1-4.425.737,13.442,13.442,0,0,1-5.538-1.065,11,11,0,0,1-3.958-2.917,12.493,12.493,0,0,1-2.419-4.344,17.126,17.126,0,0,1-.815-5.343v-.752a17.344,17.344,0,0,1,.8-5.344,12.331,12.331,0,0,1,2.406-4.344,11.4,11.4,0,0,1,3.972-2.926,13.174,13.174,0,0,1,5.5-1.076,13.86,13.86,0,0,1,4.634.752,11.247,11.247,0,0,1,3.682,2.1,9.637,9.637,0,0,1,2.381,3.317,10.181,10.181,0,0,1,.8,4.344h-6.563a4.562,4.562,0,0,0-.3-1.9,4.3,4.3,0,0,0-1.029-1.551,5.082,5.082,0,0,0-1.629-1.038,5.46,5.46,0,0,0-2.08-.387,5.056,5.056,0,0,0-2.73.675,4.933,4.933,0,0,0-1.7,1.8,7.916,7.916,0,0,0-.915,2.578,16.8,16.8,0,0,0-.263,3v.752a17.613,17.613,0,0,0,.254,3.04,7.4,7.4,0,0,0,.9,2.564,4.9,4.9,0,0,0,1.715,1.8,5.173,5.173,0,0,0,2.767.675,6.329,6.329,0,0,0,1.953-.3Z" transform="translate(-6.693 -1.892)" fill="#fff"/>
    <path id="Path_431" data-name="Path 431" d="M321.859,79.418h10.121v5.129H321.859V96.186a7.744,7.744,0,0,0,.338,2.465,3.726,3.726,0,0,0,.966,1.566,3.531,3.531,0,0,0,1.515.851,7.421,7.421,0,0,0,1.991.252c.535,0,1.081-.024,1.643-.076s1.1-.117,1.614-.2c.5-.065.973-.142,1.415-.224s.821-.166,1.138-.252l.676,4.782a8.453,8.453,0,0,1-1.7.737,16.337,16.337,0,0,1-2.081.514c-.735.134-1.5.237-2.291.313s-1.573.113-2.344.113a13.082,13.082,0,0,1-4.047-.589,7.806,7.806,0,0,1-3.1-1.841,8.022,8.022,0,0,1-2-3.141,13.4,13.4,0,0,1-.7-4.591V84.551H308.7V79.421h6.187V72.788h6.966v6.633Z" transform="translate(-7.385 -1.741)" fill="#fff"/>
    <path id="Path_432" data-name="Path 432" d="M351.109,101.516a7.421,7.421,0,0,0,1.628-.651,5.809,5.809,0,0,0,1.252-.914,4.805,4.805,0,0,0,.829-1.038V94.26H351.26a10.672,10.672,0,0,0-2.781.313,5.479,5.479,0,0,0-1.881.866,3.588,3.588,0,0,0-1.077,1.365,4.155,4.155,0,0,0-.352,1.714,3.345,3.345,0,0,0,.263,1.337,2.821,2.821,0,0,0,.762,1.038,3.9,3.9,0,0,0,1.24.637,5.6,5.6,0,0,0,1.715.238,7.194,7.194,0,0,0,1.952-.252Zm4.258,3.978q-.176-.652-.3-1.375a8.977,8.977,0,0,1-1.328,1.175,9.132,9.132,0,0,1-1.652.952,9.814,9.814,0,0,1-2.029.662,11.311,11.311,0,0,1-2.381.238,11.635,11.635,0,0,1-3.819-.6,9.068,9.068,0,0,1-3-1.675,7.6,7.6,0,0,1-1.953-2.565,7.478,7.478,0,0,1-.7-3.241,8.767,8.767,0,0,1,.877-3.992,7.25,7.25,0,0,1,2.63-2.865,12.174,12.174,0,0,1,3.9-1.565,23.654,23.654,0,0,1,5.324-.538h3.882V88.5a4.639,4.639,0,0,0-.3-1.714,3.463,3.463,0,0,0-.9-1.313,4.309,4.309,0,0,0-1.567-.89,6.907,6.907,0,0,0-2.191-.313,6.128,6.128,0,0,0-1.9.262,3.413,3.413,0,0,0-1.3.738,2.565,2.565,0,0,0-.663,1.028,3.944,3.944,0,0,0-.214,1.326H338.8a7.357,7.357,0,0,1,.762-3.278,7.969,7.969,0,0,1,2.243-2.727,11.081,11.081,0,0,1,3.571-1.865,15.669,15.669,0,0,1,4.848-.689,16.743,16.743,0,0,1,4.572.6,11.018,11.018,0,0,1,3.672,1.775,8.15,8.15,0,0,1,2.428,2.965,9.319,9.319,0,0,1,.877,4.143v11.614a19.3,19.3,0,0,0,.276,3.606,9.307,9.307,0,0,0,.8,2.455v.424h-7.063a6.007,6.007,0,0,1-.425-1.152Z" transform="translate(-8.091 -1.892)" fill="#fff"/>
    <path id="Path_433" data-name="Path 433" d="M380.709,79.418H390.83v5.129H380.709V96.186a7.714,7.714,0,0,0,.339,2.465,3.7,3.7,0,0,0,.962,1.566,3.531,3.531,0,0,0,1.515.851,7.421,7.421,0,0,0,1.991.252c.535,0,1.08-.024,1.642-.076s1.1-.117,1.615-.2c.5-.065.973-.142,1.414-.224s.825-.166,1.139-.252l.676,4.782a8.536,8.536,0,0,1-1.705.737,16.32,16.32,0,0,1-2.08.514q-1.1.2-2.292.313t-2.343.113a13.089,13.089,0,0,1-4.048-.589,7.8,7.8,0,0,1-3.1-1.841,8.023,8.023,0,0,1-2-3.141,13.423,13.423,0,0,1-.7-4.591V84.551h-6.186V79.421h6.186V72.788H380.7v6.633Z" transform="translate(-8.793 -1.741)" fill="#fff"/>
    <path id="Path_434" data-name="Path 434" d="M406.061,70.9a3.439,3.439,0,0,1,.814-1.19,3.948,3.948,0,0,1,1.267-.752,4.692,4.692,0,0,1,1.643-.275,4.083,4.083,0,0,1,2.943,1.038,3.8,3.8,0,0,1,0,5.329,4.09,4.09,0,0,1-2.943,1.038,4.7,4.7,0,0,1-1.643-.275,3.662,3.662,0,0,1-1.267-.776,3.23,3.23,0,0,1-.814-1.162,3.8,3.8,0,0,1-.286-1.489,3.865,3.865,0,0,1,.286-1.489Zm7.253,8.422v21.425h7.339V106.4h-22.1v-5.657h7.716V85h-7.716V79.318h14.758Z" transform="translate(-9.535 -1.643)" fill="#fff"/>
    <path id="Path_435" data-name="Path 435" d="M431.689,96.573a7.872,7.872,0,0,0,1.028,2.59,5.172,5.172,0,0,0,1.816,1.775,5.253,5.253,0,0,0,2.695.651,4.986,4.986,0,0,0,2.629-.651,5.276,5.276,0,0,0,1.8-1.775,8.276,8.276,0,0,0,1-2.59,14.935,14.935,0,0,0,.324-3.192v-.527a14.72,14.72,0,0,0-.324-3.13,8.718,8.718,0,0,0-1-2.6,4.968,4.968,0,0,0-4.485-2.427,5.1,5.1,0,0,0-2.658.651,5.291,5.291,0,0,0-1.8,1.775,8.232,8.232,0,0,0-1.029,2.6,14.471,14.471,0,0,0-.324,3.13v.527a14.893,14.893,0,0,0,.324,3.192Zm-6.439-9.187a12.5,12.5,0,0,1,2.506-4.368,11.425,11.425,0,0,1,4-2.9,14.557,14.557,0,0,1,10.863,0,11.638,11.638,0,0,1,4.034,2.9,12.742,12.742,0,0,1,2.481,4.368,17.034,17.034,0,0,1,.852,5.471v.527a17.014,17.014,0,0,1-.852,5.5,12.724,12.724,0,0,1-2.481,4.368,11.282,11.282,0,0,1-4.01,2.892,13.4,13.4,0,0,1-5.41,1.038,13.662,13.662,0,0,1-5.448-1.038,11.173,11.173,0,0,1-4.02-2.892,12.465,12.465,0,0,1-2.5-4.368,16.971,16.971,0,0,1-.853-5.5v-.527a16.914,16.914,0,0,1,.853-5.471Z" transform="translate(-10.153 -1.892)" fill="#fff"/>
    <path id="Path_436" data-name="Path 436" d="M456.568,79.567h6.314l.425,3.754a10.525,10.525,0,0,1,1.153-1.375,10.638,10.638,0,0,1,1.328-1.127,9.451,9.451,0,0,1,2.63-1.3,10.047,10.047,0,0,1,3.033-.453,11.236,11.236,0,0,1,3.758.6,7.514,7.514,0,0,1,2.958,1.9,9.227,9.227,0,0,1,1.915,3.394,15.985,15.985,0,0,1,.69,5.018v16.668h-6.963V90.078a8.158,8.158,0,0,0-.362-2.641,3.878,3.878,0,0,0-1.039-1.641,3.792,3.792,0,0,0-1.629-.836,8.837,8.837,0,0,0-2.153-.238,7.173,7.173,0,0,0-1.843.224,4.769,4.769,0,0,0-1.49.675,4.64,4.64,0,0,0-.953.775,6.587,6.587,0,0,0-.776,1v19.246h-6.992V79.564Z" transform="translate(-10.923 -1.891)" fill="#fff"/>
    <path id="Path_437" data-name="Path 437" d="M504.593,98.114a2.821,2.821,0,0,0-1.014-.9,10.38,10.38,0,0,0-1.981-.752q-1.225-.351-3.1-.7a30.09,30.09,0,0,1-4.348-1.189,13.331,13.331,0,0,1-3.367-1.741,7.685,7.685,0,0,1-2.191-2.327,5.872,5.872,0,0,1-.79-3.054,6.688,6.688,0,0,1,.8-3.2,8.168,8.168,0,0,1,2.3-2.678,11.8,11.8,0,0,1,3.658-1.827,16.169,16.169,0,0,1,4.862-.675,18.484,18.484,0,0,1,5.086.662,12.39,12.39,0,0,1,3.833,1.813,8.2,8.2,0,0,1,2.381,2.779,7.461,7.461,0,0,1,.829,3.479h-6.967a3.544,3.544,0,0,0-.224-1.265,3.286,3.286,0,0,0-.676-1.066,4.4,4.4,0,0,0-1.692-1,7.721,7.721,0,0,0-2.567-.376,8.719,8.719,0,0,0-2.228.252,4.427,4.427,0,0,0-1.553.7,2.758,2.758,0,0,0-.838.937,2.363,2.363,0,0,0-.287,1.138,2.48,2.48,0,0,0,.252,1.114,2.276,2.276,0,0,0,.9.914,6.515,6.515,0,0,0,1.729.761,19.5,19.5,0,0,0,2.805.587,37.049,37.049,0,0,1,4.558,1.027,14.235,14.235,0,0,1,3.634,1.6,7.7,7.7,0,0,1,2.391,2.417,6.327,6.327,0,0,1,.862,3.365,6.573,6.573,0,0,1-.862,3.317,8.076,8.076,0,0,1-2.443,2.617,12.554,12.554,0,0,1-3.858,1.713,19.256,19.256,0,0,1-5.034.614,16.649,16.649,0,0,1-5.4-.8,12.369,12.369,0,0,1-3.92-2.1,8.764,8.764,0,0,1-2.391-2.917,7.352,7.352,0,0,1-.814-3.292h6.638a3.836,3.836,0,0,0,.6,1.889,3.988,3.988,0,0,0,1.352,1.266,6.08,6.08,0,0,0,1.892.727,11.387,11.387,0,0,0,4.558-.014,5.707,5.707,0,0,0,1.666-.638,2.807,2.807,0,0,0,.939-.927,2.2,2.2,0,0,0,.314-1.151,2.093,2.093,0,0,0-.287-1.1Z" transform="translate(-11.649 -1.892)" fill="#fff"/>
    <path id="Path_438" data-name="Path 438" d="M104.274,60.649H74.827a8.274,8.274,0,1,0,0,16.547h10.7L97.349,89.01A37.694,37.694,0,0,0,104.274,72.3a38.322,38.322,0,0,0,.442-5.826,38.838,38.838,0,0,0-.442-5.826Zm11.753-.142a50.3,50.3,0,0,1,.352,5.968,49.835,49.835,0,0,1-80.714,39.086L23.8,117.42A66.556,66.556,0,0,0,133.084,66.472q0-3.019-.265-5.967H116.027ZM66.542,28.341A37.9,37.9,0,0,0,43.989,35.7L55.911,47.612A21.706,21.706,0,0,1,72.384,45.63l6.345-15.31a38.251,38.251,0,0,0-12.184-1.979ZM27.415,97.326a49.817,49.817,0,0,1,70-69.933l11.87-11.858a66.5,66.5,0,0,0-93.739,93.651Zm61.68-.072a38.16,38.16,0,0,1-53.36-53.309l11.922,11.91A21.67,21.67,0,0,0,77.176,85.346L89.1,97.257Z" fill="#ff6310"/>
  </g>
</svg>
