<svg xmlns="http://www.w3.org/2000/svg" viewBox="0 0 205 45">
    <defs>
        <style>
            .cls-1{fill:#ff6310}.cls-2{fill:#fff}
        </style>
    </defs>
    <g id="Layer_1">
        <path class="cls-1" d="M167.1 24.3h2.6c.5 0 .9.1 1.3.2s.8.3 1.1.4c.4.2.7.4 1 .7.3.3.5.6.7 1s.3.8.5 1.2.2.9.2 1.4v.8c0 .5 0 .9-.2 1.4-.1.4-.2.8-.4 1.2-.2.3-.4.7-.7.9-.3.3-.5.5-.9.7s-.7.4-1.2.5c-.4 0-.9.2-1.4.2H167V24.3Zm1.7 9.2h1.8c.3 0 .5-.2.7-.3s.4-.3.6-.6c.2-.2.3-.5.4-.8.1-.2.2-.5.2-.8s.1-.6.1-.9v-.8c0-.3 0-.6-.1-.9s-.1-.6-.2-.8c-.1-.3-.3-.6-.5-.8-.2-.2-.4-.4-.7-.6-.2-.1-.4-.2-.7-.3-.2-.1-.5-.1-.8-.1h-.9v7.8h.1ZM183.3 31.6c-.1.4-.2.8-.3 1.1-.2.4-.3.7-.6 1-.2.3-.5.6-.8.8s-.6.3-.9.5c-.3 0-.7.2-1.1.2s-.8 0-1.2-.2c-.4 0-.7-.3-.9-.5-.3-.2-.5-.5-.7-.8s-.4-.6-.5-1c-.1-.3-.2-.7-.3-1.1s-.1-.8-.1-1.2V29c0-.4 0-.9.1-1.3l.3-1.2c.1-.3.3-.7.5-1s.5-.5.7-.8c.3-.2.6-.4.9-.5.3-.1.7-.2 1.2-.2s.8.1 1.2.2.7.3 1 .5.5.5.7.7.4.6.5.9c.2.4.3.7.4 1.2.1.4.1.8.1 1.3v1.4c0 .5-.2 1-.2 1.4Zm-1.7-3.5c0-.3-.1-.5-.1-.7-.1-.3-.2-.5-.3-.7s-.3-.4-.4-.6c-.2-.1-.3-.2-.5-.3s-.4-.1-.7-.1-.5 0-.6.1c-.2.1-.4.2-.5.3-.2.2-.3.4-.4.6-.1.2-.2.5-.3.7s-.1.5-.1.7v3c0 .3.1.5.1.7.1.3.2.5.3.7s.2.4.4.6c.2 0 .3.3.5.3h1.4c.2 0 .4-.2.5-.3.2-.2.3-.4.4-.6.1-.2.2-.5.3-.7s.1-.5.1-.7v-3ZM192 33.1c-.2.4-.5.8-.8 1.1s-.7.5-1.1.7c-.4.2-.9.2-1.5.2s-.8 0-1.2-.2c-.4 0-.7-.3-1-.5s-.5-.5-.7-.7c-.2-.3-.4-.6-.5-1-.1-.3-.2-.7-.3-1.1s-.1-.8-.1-1.3v-1.5c0-.4 0-.8.1-1.2.1-.4.2-.8.3-1.1.1-.4.3-.7.6-1 .2-.3.5-.6.8-.8.3-.2.6-.4 1-.5.3-.1.7-.2 1.1-.2.6 0 1.1.1 1.5.2.4.2.8.4 1.1.7.3.3.6.7.8 1.1s.3.9.4 1.5h-1.8c0-.3-.1-.6-.2-.9-.1-.3-.2-.5-.4-.7s-.4-.3-.6-.4c-.2-.1-.5-.1-.8-.1s-.4 0-.6.1c-.2.1-.3.2-.5.3-.2.1-.4.3-.5.6-.1.2-.2.5-.3.8-.1.2-.1.5-.1.8v2.3c0 .4 0 .7.1 1 0 .3.1.6.2.9l.3.6c.1.2.2.3.4.5.2 0 .3.2.5.3s.4 0 .7 0h.8c.2 0 .4-.2.6-.4.2-.2.3-.4.4-.6.1-.2.2-.5.2-.9h1.8c-.4.5-.5.9-.7 1.4ZM199.6 31.5c-.1-.2-.2-.4-.4-.5s-.4-.3-.7-.4l-.9-.3c-.5-.1-1-.3-1.4-.5s-.8-.4-1.1-.7c-.3-.3-.5-.6-.7-.9s-.3-.7-.3-1.1.1-.9.3-1.2c.2-.4.5-.7.8-.9.3-.3.7-.4 1.2-.6.4-.1.9-.2 1.4-.2s1 .1 1.4.2c.4.2.8.4 1.2.7.3.3.6.6.8 1s.3.8.3 1.3h-1.7c0-.3-.1-.5-.2-.7-.1-.2-.2-.4-.4-.6s-.4-.3-.6-.4c-.2-.1-.5-.1-.8-.1s-.5 0-.7.1l-.6.3c-.2.1-.3.3-.4.5s-.1.4-.1.6.1.5.2.6c.1.2.3.3.5.5.2.1.5.3.7.4l.9.3c.4.1.7.2 1.1.4.4.2.7.4 1 .6.4.3.7.6.9 1s.3.8.3 1.4-.1.9-.3 1.3c-.2.4-.5.7-.8.9s-.7.4-1.2.6c-.4 0-.9.2-1.4.2s-1 0-1.5-.2-1-.4-1.3-.7-.6-.6-.8-1-.3-.8-.3-1.4h1.8c0 .3.1.6.2.9.1.2.3.4.5.6.2.2.4.3.7.4H198.9c.2 0 .4-.2.6-.3.2 0 .3-.3.4-.5.1-.2.2-.4.2-.6-.4-.6-.4-.8-.5-1Z"/>
        <path class="cls-2" d="M51.6 14.3c0 .3.2.6.3.8s.3.4.6.6c.2.1.5.2.8.2s.4 0 .5-.1c0 0 .3-.1.4-.2 0-.1.2-.2.4-.3 0-.1.2-.2.3-.4v-3.7c0-.1-.2-.3-.3-.4 0-.1-.2-.2-.4-.3 0-.1-.3-.1-.4-.1h-.5c-.3 0-.6.1-.8.2-.2.1-.4.3-.6.6-.2.3-.3.5-.3.8v2.3m-2.1-3c0-.5.4-1 .7-1.4s.7-.7 1.1-.9c.5-.2 1-.3 1.5-.3s.5 0 .8.1c.2 0 .4 0 .6.2 0 .1.3.2.4.3 0 .1.2.2.4.4v-.8h2.1v8.4c0 .5 0 1.1-.3 1.6-.2.4-.5.8-.8 1.2-.4.3-.8.6-1.3.7-.5.2-1.1.3-1.7.2-.3 0-.6 0-.8-.1-.3-.1-.6-.1-.9-.2-.3-.1-.6-.3-.8-.4-.3-.2-.5-.4-.7-.6l1-1.4c0 .2.3.3.5.4.3.2.7.4 1.1.5.2 0 .4.1.6.1.3 0 .6 0 .9-.1.2-.1.5-.2.6-.4.2-.2.3-.4.4-.6v-1.3c0 .1-.2.2-.3.3 0 .1-.2.2-.4.3-.2.1-.4.2-.7.2-.3.1-.5.1-.8.1-.5 0-1-.1-1.5-.3-.4-.2-.8-.5-1.1-.9s-.6-.9-.7-1.4c-.2-.6-.2-1.2-.2-1.8v-.2c0-.7 0-1.3.2-1.9ZM65.6 8.7c.2 0 .5.1.7.1l-.3 2.3c-.3-.1-.6-.1-.9-.2-.3 0-.6-.1-.9-.1s-.5 0-.8.1c-.2 0-.4.1-.6.2-.2.1-.4.3-.6.4-.2.2-.3.4-.4.6v5.2h-2.2V8.8h2.1v1.4c.3-.5.8-.9 1.3-1.2s1-.4 1.6-.4h.9ZM70.8 10.6c-.2.1-.4.2-.5.4-.2.2-.3.4-.4.6 0 .2-.2.5-.2.8h3.7V11.5c0-.2-.2-.4-.4-.5-.2-.2-.3-.3-.5-.4-.2-.1-.5-.1-.8-.1h-.8Zm-.9 6.7c-.5-.2-1-.5-1.4-.9s-.7-.8-.9-1.3c-.2-.5-.3-1.1-.3-1.6v-.3c0-.6 0-1.2.3-1.8.2-.5.5-1 .9-1.4s.8-.7 1.3-.9 1.1-.3 1.7-.3 1.1.1 1.7.3c.5.2.9.5 1.2.9.3.4.6.9.8 1.4.2.6.3 1.2.3 1.7v.9h-5.9c0 .3.2.6.3.8 0 .2.3.4.5.6.2.2.4.3.7.4.3.1.6.1.9.1s.9-.1 1.3-.2c.4-.2.7-.4 1-.7l1.1 1.2c-.4.5-.8.8-1.3 1.1-.7.3-1.4.5-2.2.5-.8 0-1.4-.3-2-.5ZM81.3 15.9c.2 0 .4-.1.5-.2 0-.1.3-.2.4-.3l.3-.3v-1.5h-1.1c-.3 0-.6 0-.9.1-.2.1-.4.1-.6.3 0 .1-.3.3-.3.4v.9c0 .1 0 .2.2.3s.3.2.4.2c.2.1.4.1.5.1h.6Zm1.4 1.2v-.4c0 .1-.3.3-.4.4-.2.1-.3.2-.5.3-.2.1-.4.2-.6.2-.3.1-.5.1-.8.1s-.8-.1-1.2-.2c-.4-.1-.7-.3-1-.5s-.5-.5-.6-.8c-.2-.3-.2-.7-.2-1s0-.9.3-1.3c.2-.4.5-.7.8-.9.4-.2.8-.4 1.2-.5.6-.1 1.1-.2 1.7-.2h1.2v-1c0-.2-.2-.3-.3-.4 0-.1-.3-.2-.5-.3s-.5-.1-.7-.1-.4 0-.6.1c-.2 0-.3.1-.4.2 0 .1-.2.2-.2.3v.4h-2.2c0-.4 0-.7.2-1 .2-.3.4-.6.7-.9.3-.3.7-.5 1.1-.6.5-.2 1-.2 1.6-.2s1 .1 1.5.2c.4.1.8.3 1.2.6.3.3.6.6.8 1 .2.4.3.9.3 1.3v4.9c0 .3 0 .5.3.8 0 .1-2.3.1-2.3.1-.2-.3-.2-.4-.2-.6ZM90.4 8.8h3.2v1.6h-3.2v4.5c0 .2.2.4.3.5 0 .1.3.2.5.3s.4.1.6.1h.5c.2 0 .4 0 .5-.1s.3 0 .5-.1.3-.1.4-.1l.2 1.5c-.2.1-.4.2-.5.2-.2.1-.4.1-.7.2-.2 0-.5.1-.7.1h-.8c-.4 0-.9-.1-1.3-.2s-.7-.3-1-.6c-.3-.3-.5-.6-.6-1-.2-.5-.2-1-.2-1.5v-3.9h-2V8.8h2V6.7h2.2v2.1ZM52.7 27.7c-.2.1-.4.2-.5.4-.2.2-.3.4-.4.6 0 .2-.2.5-.2.8h3.7V28.6c0-.2-.2-.4-.4-.5-.2-.2-.3-.3-.5-.4s-.5-.1-.8-.1c-.3 0-.5 0-.8.1Zm-.8 6.7c-.5-.2-1-.5-1.4-.9s-.7-.8-.9-1.3-.3-1.1-.3-1.6v-.3c0-.6 0-1.2.3-1.8.2-.5.5-1 .9-1.4s.8-.7 1.3-.9c.5-.2 1.1-.3 1.7-.3s1.1.1 1.7.3c.5.2.9.5 1.2.9s.6.9.8 1.4c.2.6.3 1.2.3 1.7v.9h-5.9c0 .3.2.6.3.8 0 .2.3.4.5.6.2.2.4.3.7.4h.9c.3 0 .9 0 1.3-.2s.7-.4 1-.7l1.1 1.2c-.4.5-.8.8-1.3 1.1-.7.3-1.4.5-2.2.5-.8-.2-1.4-.3-2-.5ZM64.4 25.9h2.4l-2.9 4.3 3 4.4h-2.4l-2-2.8-2 2.8h-2.4l3-4.4-2.9-4.3h2.4l1.9 2.7 1.9-2.7ZM73.8 29.1c0-.3-.2-.6-.3-.8 0-.2-.3-.4-.5-.5s-.5-.2-.8-.2-.3 0-.5.1c0 0-.3.1-.4.1 0 .1-.3.2-.4.3 0 .1-.2.2-.3.4V32s.2.3.3.4c.2.2.5.4.8.5h.5c.3 0 .6 0 .8-.2s.4-.3.5-.6.2-.5.3-.8V29Zm-5.5-3.2h2.1v.8c.2-.1.3-.3.5-.4 0-.1.3-.2.4-.3.2-.1.4-.2.6-.2.2-.1.5-.1.8-.1.5 0 1 .1 1.5.3.4.2.8.5 1.1.9.3.4.5.9.7 1.4.2.6.2 1.2.2 1.8v.2c0 .6 0 1.2-.2 1.8 0 .5-.3 1-.6 1.4-.3.4-.6.7-1.1.9-.4.2-.9.3-1.5.3H72c-.2 0-.5 0-.7-.3 0 0-.2-.2-.4-.2l-.3-.3V38h-2.2V26ZM81.1 27.7c-.2.1-.4.2-.5.4-.2.2-.3.4-.4.6s-.2.5-.2.8h3.7V28.6c0-.2-.2-.4-.4-.5-.2-.2-.3-.3-.5-.4s-.5-.1-.8-.1c-.4 0-.6 0-.8.1Zm-.9 6.7c-.5-.2-1-.5-1.4-.9s-.7-.8-.9-1.3c-.2-.5-.3-1.1-.3-1.6v-.3c0-.6 0-1.2.3-1.8.2-.5.5-1 .9-1.4s.8-.7 1.3-.9c.5-.2 1.1-.3 1.7-.3s1.1.1 1.7.3c.5.2.9.5 1.2.9.3.4.6.9.8 1.4.2.6.3 1.2.3 1.7v.9h-5.9c0 .3.2.6.3.8 0 .2.3.4.5.6.2.2.4.3.7.4h.9c.3 0 .9 0 1.3-.2s.7-.4 1-.7l1.1 1.2c-.4.5-.8.8-1.3 1.1-.7.3-1.4.5-2.2.5-.8-.2-1.4-.3-2-.5ZM92 32.8c.2 0 .4-.2.5-.3s.3-.3.3-.4c.2 0 .2-.3.2-.5h2.1c0 .4 0 .9-.3 1.3-.2.4-.5.7-.8 1-.4.3-.7.5-1.2.7s-.9.2-1.4.2-1.2 0-1.8-.3c-.5-.2-.9-.5-1.3-.9-.3-.4-.6-.9-.8-1.4-.2-.6-.3-1.1-.3-1.7v-.2c0-.6 0-1.2.3-1.7.2-.5.4-1 .8-1.4s.8-.7 1.3-.9c.6-.2 1.2-.4 1.8-.3.5 0 1 .1 1.5.2.4.1.8.4 1.2.7.3.3.6.7.8 1.1.2.4.3.9.3 1.4H93v-.6c0-.2-.2-.4-.3-.5-.2-.1-.3-.3-.5-.3-.2-.1-.4-.1-.7-.1s-.6.1-.9.2c-.2.1-.4.3-.5.6 0 .3-.2.5-.3.8v2.2c0 .3 0 .6.3.8 0 .2.3.4.5.6.3.2.6.2.9.2.2-.4.4-.4.6-.5ZM100.6 25.9h3.2v1.6h-3.2V32c0 .2.2.4.3.5 0 0 .3.2.5.3s.4 0 .6 0h1.9l.2 1.5c-.2 0-.4.2-.5.2-.2 0-.4 0-.7.2h-1.5c-.4 0-.9 0-1.3-.2-.4 0-.7-.3-1-.6s-.5-.6-.6-1c-.2-.5-.2-1-.2-1.5v-3.9h-2v-1.6h2v-2.1h2.2V26ZM109.8 32.9c.2 0 .4 0 .5-.2 0 0 .3-.2.4-.3l.3-.3v-1.5h-1.1c-.3 0-.6 0-.9.1-.2.1-.4.1-.6.3 0 .1-.3.3-.3.4v.9s0 .2.2.3.3.2.4.2h1.1Zm1.3 1.3v-.4l-.4.4c-.2 0-.3.2-.5.3s-.4.2-.6.2h-.8c-.3 0-.8 0-1.2-.2-.4 0-.7-.3-1-.5s-.5-.5-.6-.8c-.2-.3-.2-.7-.2-1s0-.9.3-1.3c.2-.4.5-.7.8-.9.4-.2.8-.4 1.2-.5.6-.1 1.1-.2 1.7-.2h1.2v-1c0-.2-.2-.3-.3-.4 0-.1-.3-.2-.5-.3-.2-.1-.5-.1-.7-.1s-.4 0-.6.1c-.2 0-.3.1-.4.2s-.2.2-.2.3v.4h-2.2c0-.4 0-.7.2-1.1.2-.3.4-.6.7-.9.3-.3.7-.5 1.1-.6.5-.2 1-.2 1.6-.2s1 .1 1.5.2c.4.1.8.3 1.2.6.3.3.6.6.8.9.2.4.3.9.3 1.3v4.9c0 .3 0 .5.3.8h-2.3c-.1-.2-.1-.3-.2-.4ZM119 25.9h3.2v1.6H119V32c0 .2.2.4.3.5 0 0 .3.2.5.3s.4 0 .6 0h1.9l.2 1.5c-.2 0-.4.2-.5.2-.2 0-.4 0-.7.2h-1.5c-.4 0-.9 0-1.3-.2-.4 0-.7-.3-1-.6s-.5-.6-.6-1c-.2-.5-.2-1-.2-1.5v-3.9h-2v-1.6h2v-2.1h2.2V26ZM126.9 23.2c0-.1 0-.3.3-.4 0-.1.3-.2.4-.2.2-.1.3-.1.5-.1.3 0 .7.1.9.3.5.5.5 1.2 0 1.7-.3.2-.6.4-.9.3-.2 0-.4 0-.5-.1-.2-.1-.3-.1-.4-.2s-.2-.2-.3-.4v-.9Zm2.3 2.7v6.9h2.3v1.8h-7.1v-1.8h2.5v-5h-2.5V26h4.8ZM134.9 31.3c.1.3.2.6.3.8.1.2.3.4.6.6.3 0 .6.2.9.2s.6 0 .8-.2c.2 0 .4-.3.6-.6.2-.3.3-.5.3-.8.1-.3.1-.7.1-1v-.2c0-.3 0-.7-.1-1s-.2-.6-.3-.8c-.3-.5-.9-.8-1.4-.8s-.6.1-.8.2-.4.3-.6.6c-.2.3-.3.5-.3.8-.1.3-.1.7-.1 1v1.2Zm-2.1-2.9c.2-.5.4-1 .8-1.4.4-.4.8-.7 1.3-.9 1.1-.4 2.4-.4 3.5 0 .5.2.9.5 1.3.9s.6.9.8 1.4c.2.6.3 1.2.3 1.8v.2c0 .6-.1 1.2-.3 1.8-.2.5-.4 1-.8 1.4-.4.4-.8.7-1.3.9s-1.1.3-1.7.3-1.2 0-1.7-.3-.9-.5-1.3-.9-.6-.9-.8-1.4c-.2-.6-.3-1.2-.3-1.8v-.2c0-.7 0-1.3.2-1.8ZM142.6 25.9h2v1.2c.2-.2.3-.3.5-.4l.4-.4c.3-.2.5-.3.8-.4s.6-.1 1-.1.8.1 1.2.2.7.3.9.6c.3.3.5.7.6 1.1.2.5.2 1.1.2 1.6v5.3H148v-5.3c0-.3 0-.6-.1-.8-.1-.2-.2-.4-.3-.5s-.3-.2-.5-.3c-.2-.1-.5-.1-.7-.1s-.4 0-.6.1c-.2 0-.3.1-.5.2-.1.1-.2.2-.3.2-.1.1-.2.2-.2.3v6.2h-2.2v-8.7ZM157.7 31.8l-.3-.3c-.2-.1-.4-.2-.6-.2-.3-.1-.6-.1-1-.2-.5-.1-.9-.2-1.4-.4-.4-.1-.7-.3-1.1-.6-.3-.2-.5-.5-.7-.7-.2-.3-.3-.6-.3-1s.1-.7.3-1 .4-.6.7-.9c.4-.3.7-.5 1.2-.6.5-.2 1-.2 1.6-.2s1.1.1 1.6.2c.4.1.9.3 1.2.6.3.2.6.5.8.9.2.3.3.7.3 1.1h-2.2c0-.1 0-.3-.1-.4 0-.1-.1-.2-.2-.3-.2-.1-.3-.3-.5-.3-.3-.1-.5-.1-.8-.1s-.5 0-.7.1c-.2 0-.3.1-.5.2l-.3.3c-.1.1-.1.2-.1.4s0 .2.1.4l.3.3c.2.1.4.2.6.2.3.1.6.1.9.2l1.5.3c.4.1.8.3 1.2.5.3.2.6.5.8.8s.3.7.3 1.1-.1.7-.3 1.1c-.2.3-.5.6-.8.8-.4.3-.8.4-1.2.5-.5 0-1.1.2-1.6.2s-1.2 0-1.7-.3c-.5 0-.9-.4-1.3-.7-.3-.3-.6-.6-.8-.9-.2-.3-.3-.7-.3-1.1h2.1c0 .2.1.4.2.6.1.2.3.3.4.4.2 0 .4.2.6.2h1.5c.2 0 .4 0 .5-.2.1 0 .2-.2.3-.3s.1-.2.1-.4c-.2 0-.2-.2-.3-.3Z"/>
        <path class="cls-1" d="M33.4 20.4H24c-1.5 0-2.7 1.2-2.7 2.6s1.2 2.7 2.7 2.7h3.4l3.8 3.8c1.2-1.6 1.9-3.4 2.2-5.4v-3.7Zm3.7 0v1.9c0 8.8-7.1 15.9-15.9 16-3.6 0-7.1-1.2-9.9-3.4l-3.8 3.8c9 7.6 22.4 6.4 30-2.6 3.2-3.8 5-8.7 5-13.7v-1.9h-5.4ZM21.3 10.1c-2.6 0-5.1.8-7.2 2.4l3.8 3.8c1.6-.9 3.5-1.1 5.3-.6l2-4.9c-1.3-.5-2.6-.7-3.9-.7ZM8.8 32.2c-5.5-6.9-4.3-16.9 2.6-22.4 5.8-4.6 14-4.6 19.8 0L35 6C26-1.6 12.5-.4 5 8.6-1.7 16.5-1.7 28.1 5 36l3.8-3.8Zm19.7 0c-5.4 4-13.1 2.8-17.1-2.6-3.2-4.3-3.2-10.2 0-14.5l3.8 3.8c-1.9 3.3-.7 7.6 2.6 9.4 2.1 1.2 4.7 1.2 6.8 0l3.9 3.9Z"/>
    </g>
</svg>
