<?xml version="1.0" encoding="utf-8"?>
<svg version="1.1" id="Layer_1" xmlns="http://www.w3.org/2000/svg" xmlns:xlink="http://www.w3.org/1999/xlink" x="0px" y="0px"
	 viewBox="0 0 205 45" style="enable-background:new 0 0 205 45;" xml:space="preserve">
<style type="text/css">
	.st0{fill:#FF6310;}
	.st1{clip-path:url(#SVGID_00000182530438828943203740000015471175282969426364_);fill:#404041;}
	.st2{clip-path:url(#SVGID_00000182530438828943203740000015471175282969426364_);fill:#FF6310;}
</style>
<g>
	<path class="st0" d="M167.1,24.3h2.6c0.5,0,0.9,0.1,1.3,0.2c0.4,0.1,0.8,0.3,1.1,0.4c0.4,0.2,0.7,0.4,1,0.7c0.3,0.3,0.5,0.6,0.7,1
		c0.2,0.4,0.3,0.8,0.5,1.2s0.2,0.9,0.2,1.4V30c0,0.5,0,0.9-0.2,1.4c-0.1,0.4-0.2,0.8-0.4,1.2c-0.2,0.3-0.4,0.7-0.7,0.9
		c-0.3,0.3-0.5,0.5-0.9,0.7c-0.4,0.2-0.7,0.4-1.2,0.5c-0.4,0.1-0.9,0.2-1.4,0.2h-2.7V24.3z M168.8,33.5h0.9c0.3,0,0.6,0,0.9-0.1
		c0.3-0.1,0.5-0.2,0.7-0.3c0.2-0.1,0.4-0.3,0.6-0.6c0.2-0.2,0.3-0.5,0.4-0.8c0.1-0.2,0.2-0.5,0.2-0.8s0.1-0.6,0.1-0.9v-0.8
		c0-0.3,0-0.6-0.1-0.9s-0.1-0.6-0.2-0.8c-0.1-0.3-0.3-0.6-0.5-0.8c-0.2-0.2-0.4-0.4-0.7-0.6c-0.2-0.1-0.4-0.2-0.7-0.3
		c-0.2-0.1-0.5-0.1-0.8-0.1h-0.9V33.5z"/>
	<path class="st0" d="M183.3,31.6c-0.1,0.4-0.2,0.8-0.3,1.1c-0.2,0.4-0.3,0.7-0.6,1c-0.2,0.3-0.5,0.6-0.8,0.8
		c-0.3,0.2-0.6,0.3-0.9,0.5c-0.3,0.1-0.7,0.2-1.1,0.2c-0.4,0-0.8-0.1-1.2-0.2c-0.4-0.1-0.7-0.3-0.9-0.5c-0.3-0.2-0.5-0.5-0.7-0.8
		c-0.2-0.3-0.4-0.6-0.5-1c-0.1-0.3-0.2-0.7-0.3-1.1c-0.1-0.4-0.1-0.8-0.1-1.2v-1.4c0-0.4,0-0.9,0.1-1.3s0.2-0.8,0.3-1.2
		c0.1-0.3,0.3-0.7,0.5-1c0.2-0.3,0.5-0.5,0.7-0.8c0.3-0.2,0.6-0.4,0.9-0.5c0.3-0.1,0.7-0.2,1.2-0.2c0.4,0,0.8,0.1,1.2,0.2
		s0.7,0.3,1,0.5s0.5,0.5,0.7,0.7s0.4,0.6,0.5,0.9c0.2,0.4,0.3,0.7,0.4,1.2c0.1,0.4,0.1,0.8,0.1,1.3v1.4
		C183.4,30.7,183.3,31.2,183.3,31.6z M181.6,28.1c0-0.3-0.1-0.5-0.1-0.7c-0.1-0.3-0.2-0.5-0.3-0.7c-0.1-0.2-0.3-0.4-0.4-0.6
		c-0.2-0.1-0.3-0.2-0.5-0.3s-0.4-0.1-0.7-0.1c-0.2,0-0.5,0-0.6,0.1c-0.2,0.1-0.4,0.2-0.5,0.3c-0.2,0.2-0.3,0.4-0.4,0.6
		c-0.1,0.2-0.2,0.5-0.3,0.7c-0.1,0.2-0.1,0.5-0.1,0.7c0,0.3,0,0.5,0,0.8v1.4c0,0.3,0,0.5,0,0.8s0.1,0.5,0.1,0.7
		c0.1,0.3,0.2,0.5,0.3,0.7c0.1,0.2,0.2,0.4,0.4,0.6c0.2,0.1,0.3,0.3,0.5,0.3c0.2,0.1,0.4,0.1,0.7,0.1c0.2,0,0.5,0,0.7-0.1
		c0.2-0.1,0.4-0.2,0.5-0.3c0.2-0.2,0.3-0.4,0.4-0.6c0.1-0.2,0.2-0.5,0.3-0.7c0.1-0.2,0.1-0.5,0.1-0.7c0-0.3,0-0.5,0-0.8v-1.4
		C181.6,28.6,181.6,28.4,181.6,28.1z"/>
	<path class="st0" d="M192,33.1c-0.2,0.4-0.5,0.8-0.8,1.1c-0.3,0.3-0.7,0.5-1.1,0.7c-0.4,0.2-0.9,0.2-1.5,0.2
		c-0.4,0-0.8-0.1-1.2-0.2c-0.4-0.1-0.7-0.3-1-0.5c-0.3-0.2-0.5-0.5-0.7-0.7c-0.2-0.3-0.4-0.6-0.5-1c-0.1-0.3-0.2-0.7-0.3-1.1
		c-0.1-0.4-0.1-0.8-0.1-1.3v-1.5c0-0.4,0-0.8,0.1-1.2c0.1-0.4,0.2-0.8,0.3-1.1c0.1-0.4,0.3-0.7,0.6-1c0.2-0.3,0.5-0.6,0.8-0.8
		c0.3-0.2,0.6-0.4,1-0.5c0.3-0.1,0.7-0.2,1.1-0.2c0.6,0,1.1,0.1,1.5,0.2c0.4,0.2,0.8,0.4,1.1,0.7c0.3,0.3,0.6,0.7,0.8,1.1
		c0.2,0.4,0.3,0.9,0.4,1.5h-1.8c0-0.3-0.1-0.6-0.2-0.9c-0.1-0.3-0.2-0.5-0.4-0.7c-0.2-0.2-0.4-0.3-0.6-0.4c-0.2-0.1-0.5-0.1-0.8-0.1
		c-0.2,0-0.4,0-0.6,0.1c-0.2,0.1-0.3,0.2-0.5,0.3c-0.2,0.1-0.4,0.3-0.5,0.6c-0.1,0.2-0.2,0.5-0.3,0.8c-0.1,0.2-0.1,0.5-0.1,0.8
		c0,0.3,0,0.6,0,0.8v1.5c0,0.4,0,0.7,0.1,1c0,0.3,0.1,0.6,0.2,0.9c0.1,0.2,0.2,0.4,0.3,0.6c0.1,0.2,0.2,0.3,0.4,0.5
		c0.2,0.1,0.3,0.2,0.5,0.3c0.2,0.1,0.4,0.1,0.7,0.1c0.3,0,0.6,0,0.8-0.1s0.4-0.2,0.6-0.4c0.2-0.2,0.3-0.4,0.4-0.6
		c0.1-0.2,0.2-0.5,0.2-0.9h1.8C192.3,32.2,192.2,32.6,192,33.1z"/>
	<path class="st0" d="M199.6,31.5c-0.1-0.2-0.2-0.4-0.4-0.5c-0.2-0.1-0.4-0.3-0.7-0.4c-0.3-0.1-0.6-0.2-0.9-0.3
		c-0.5-0.1-1-0.3-1.4-0.5c-0.4-0.2-0.8-0.4-1.1-0.7c-0.3-0.3-0.5-0.6-0.7-0.9c-0.2-0.3-0.3-0.7-0.3-1.1c0-0.5,0.1-0.9,0.3-1.2
		c0.2-0.4,0.5-0.7,0.8-0.9c0.3-0.3,0.7-0.4,1.2-0.6c0.4-0.1,0.9-0.2,1.4-0.2c0.5,0,1,0.1,1.4,0.2c0.4,0.2,0.8,0.4,1.2,0.7
		c0.3,0.3,0.6,0.6,0.8,1c0.2,0.4,0.3,0.8,0.3,1.3h-1.7c0-0.3-0.1-0.5-0.2-0.7c-0.1-0.2-0.2-0.4-0.4-0.6c-0.2-0.2-0.4-0.3-0.6-0.4
		c-0.2-0.1-0.5-0.1-0.8-0.1c-0.3,0-0.5,0-0.7,0.1c-0.2,0.1-0.4,0.2-0.6,0.3c-0.2,0.1-0.3,0.3-0.4,0.5s-0.1,0.4-0.1,0.6
		c0,0.2,0.1,0.5,0.2,0.6c0.1,0.2,0.3,0.3,0.5,0.5c0.2,0.1,0.5,0.3,0.7,0.4c0.3,0.1,0.6,0.2,0.9,0.3c0.4,0.1,0.7,0.2,1.1,0.4
		c0.4,0.2,0.7,0.4,1,0.6c0.4,0.3,0.7,0.6,0.9,1c0.2,0.4,0.3,0.8,0.3,1.4c0,0.5-0.1,0.9-0.3,1.3c-0.2,0.4-0.5,0.7-0.8,0.9
		c-0.3,0.2-0.7,0.4-1.2,0.6c-0.4,0.1-0.9,0.2-1.4,0.2c-0.5,0-1-0.1-1.5-0.2c-0.5-0.2-1-0.4-1.3-0.7c-0.3-0.3-0.6-0.6-0.8-1
		c-0.2-0.4-0.3-0.8-0.3-1.4h1.8c0,0.3,0.1,0.6,0.2,0.9c0.1,0.2,0.3,0.4,0.5,0.6c0.2,0.2,0.4,0.3,0.7,0.4c0.3,0.1,0.6,0.1,0.9,0.1
		c0.3,0,0.5,0,0.8-0.1c0.2-0.1,0.4-0.2,0.6-0.3c0.2-0.1,0.3-0.3,0.4-0.5c0.1-0.2,0.2-0.4,0.2-0.6C199.7,31.9,199.7,31.7,199.6,31.5z
		"/>
</g>
<g>
	<defs>
		<rect id="SVGID_1_" y="1" width="160" height="42.6"/>
	</defs>
	<clipPath id="SVGID_00000106132484282803306360000006922047806609196430_">
		<use xlink:href="#SVGID_1_"  style="overflow:visible;"/>
	</clipPath>
	<path style="clip-path:url(#SVGID_00000106132484282803306360000006922047806609196430_);fill:#404041;" d="M51.6,14.3
		c0.1,0.3,0.2,0.6,0.3,0.8c0.1,0.2,0.3,0.4,0.6,0.6c0.2,0.1,0.5,0.2,0.8,0.2c0.2,0,0.4,0,0.5-0.1c0.1,0,0.3-0.1,0.4-0.2
		c0.1-0.1,0.2-0.2,0.4-0.3c0.1-0.1,0.2-0.2,0.3-0.4v-3.7c-0.1-0.1-0.2-0.3-0.3-0.4c-0.1-0.1-0.2-0.2-0.4-0.3
		c-0.1-0.1-0.3-0.1-0.4-0.1c-0.2,0-0.3,0-0.5,0c-0.3,0-0.6,0.1-0.8,0.2c-0.2,0.1-0.4,0.3-0.6,0.6c-0.2,0.3-0.3,0.5-0.3,0.8
		c-0.1,0.3-0.1,0.7-0.1,1v0.2C51.5,13.6,51.5,13.9,51.6,14.3 M49.5,11.3c0.1-0.5,0.4-1,0.7-1.4c0.3-0.4,0.7-0.7,1.1-0.9
		c0.5-0.2,1-0.3,1.5-0.3c0.3,0,0.5,0,0.8,0.1C53.8,8.8,54,8.9,54.2,9c0.1,0.1,0.3,0.2,0.4,0.3c0.1,0.1,0.2,0.2,0.4,0.4l0.1-0.8h2
		v8.4c0,0.5-0.1,1.1-0.3,1.6c-0.2,0.4-0.5,0.8-0.8,1.2c-0.4,0.3-0.8,0.6-1.3,0.7c-0.5,0.2-1.1,0.3-1.7,0.2c-0.3,0-0.6,0-0.8-0.1
		c-0.3-0.1-0.6-0.1-0.9-0.2c-0.3-0.1-0.6-0.3-0.8-0.4c-0.3-0.2-0.5-0.4-0.7-0.6l1-1.4c0.1,0.2,0.3,0.3,0.5,0.4
		c0.3,0.2,0.7,0.4,1.1,0.5c0.2,0,0.4,0.1,0.6,0.1c0.3,0,0.6,0,0.9-0.1c0.2-0.1,0.5-0.2,0.6-0.4c0.2-0.2,0.3-0.4,0.4-0.6
		c0.1-0.3,0.1-0.5,0.1-0.8v-0.5c-0.1,0.1-0.2,0.2-0.3,0.3c-0.1,0.1-0.2,0.2-0.4,0.3c-0.2,0.1-0.4,0.2-0.7,0.2
		c-0.3,0.1-0.5,0.1-0.8,0.1c-0.5,0-1-0.1-1.5-0.3c-0.4-0.2-0.8-0.5-1.1-0.9c-0.3-0.4-0.6-0.9-0.7-1.4c-0.2-0.6-0.2-1.2-0.2-1.8v-0.2
		C49.3,12.5,49.3,11.9,49.5,11.3L49.5,11.3z"/>
	<path style="clip-path:url(#SVGID_00000106132484282803306360000006922047806609196430_);fill:#404041;" d="M65.6,8.7
		c0.2,0,0.5,0.1,0.7,0.1L66,11.1c-0.3-0.1-0.6-0.1-0.9-0.2c-0.3,0-0.6-0.1-0.9-0.1c-0.3,0-0.5,0-0.8,0.1c-0.2,0-0.4,0.1-0.6,0.2
		c-0.2,0.1-0.4,0.3-0.6,0.4c-0.2,0.2-0.3,0.4-0.4,0.6v5.2h-2.2V8.8h2.1l0.1,1.2l0,0.2c0.3-0.5,0.8-0.9,1.3-1.2
		c0.5-0.3,1-0.4,1.6-0.4C65,8.7,65.3,8.7,65.6,8.7L65.6,8.7z"/>
	<path style="clip-path:url(#SVGID_00000106132484282803306360000006922047806609196430_);fill:#404041;" d="M70.8,10.6
		c-0.2,0.1-0.4,0.2-0.5,0.4c-0.2,0.2-0.3,0.4-0.4,0.6c-0.1,0.2-0.2,0.5-0.2,0.8h3.7v-0.2c0-0.2,0-0.5-0.1-0.7
		c-0.1-0.2-0.2-0.4-0.4-0.5c-0.2-0.2-0.3-0.3-0.5-0.4c-0.2-0.1-0.5-0.1-0.8-0.1C71.2,10.5,71,10.5,70.8,10.6L70.8,10.6z M69.9,17.3
		c-0.5-0.2-1-0.5-1.4-0.9c-0.4-0.4-0.7-0.8-0.9-1.3c-0.2-0.5-0.3-1.1-0.3-1.6v-0.3c0-0.6,0.1-1.2,0.3-1.8c0.2-0.5,0.5-1,0.9-1.4
		c0.4-0.4,0.8-0.7,1.3-0.9c0.5-0.2,1.1-0.3,1.7-0.3c0.6,0,1.1,0.1,1.7,0.3c0.5,0.2,0.9,0.5,1.2,0.9c0.3,0.4,0.6,0.9,0.8,1.4
		c0.2,0.6,0.3,1.2,0.3,1.7v0.9h-5.9v0c0.1,0.3,0.2,0.6,0.3,0.8c0.1,0.2,0.3,0.4,0.5,0.6c0.2,0.2,0.4,0.3,0.7,0.4
		c0.3,0.1,0.6,0.1,0.9,0.1c0.4,0,0.9-0.1,1.3-0.2c0.4-0.2,0.7-0.4,1-0.7l1.1,1.2c-0.4,0.5-0.8,0.8-1.3,1.1c-0.7,0.3-1.4,0.5-2.2,0.5
		C71.1,17.7,70.5,17.5,69.9,17.3L69.9,17.3z"/>
	<path style="clip-path:url(#SVGID_00000106132484282803306360000006922047806609196430_);fill:#404041;" d="M81.3,15.9
		c0.2,0,0.4-0.1,0.5-0.2c0.1-0.1,0.3-0.2,0.4-0.3c0.1-0.1,0.2-0.2,0.3-0.3v-1.5h-1.1c-0.3,0-0.6,0-0.9,0.1c-0.2,0.1-0.4,0.1-0.6,0.3
		c-0.1,0.1-0.3,0.3-0.3,0.4c-0.1,0.2-0.1,0.4-0.1,0.5c0,0.1,0,0.3,0.1,0.4c0.1,0.1,0.1,0.2,0.2,0.3c0.1,0.1,0.3,0.2,0.4,0.2
		c0.2,0.1,0.4,0.1,0.5,0.1C80.9,15.9,81.1,15.9,81.3,15.9L81.3,15.9z M82.7,17.1c0-0.1-0.1-0.3-0.1-0.4c-0.1,0.1-0.3,0.3-0.4,0.4
		c-0.2,0.1-0.3,0.2-0.5,0.3c-0.2,0.1-0.4,0.2-0.6,0.2c-0.3,0.1-0.5,0.1-0.8,0.1c-0.4,0-0.8-0.1-1.2-0.2c-0.4-0.1-0.7-0.3-1-0.5
		c-0.3-0.2-0.5-0.5-0.6-0.8c-0.2-0.3-0.2-0.7-0.2-1c0-0.4,0.1-0.9,0.3-1.3c0.2-0.4,0.5-0.7,0.8-0.9c0.4-0.2,0.8-0.4,1.2-0.5
		c0.6-0.1,1.1-0.2,1.7-0.2h1.2v-0.5c0-0.2,0-0.4-0.1-0.5c-0.1-0.2-0.2-0.3-0.3-0.4c-0.1-0.1-0.3-0.2-0.5-0.3
		c-0.2-0.1-0.5-0.1-0.7-0.1c-0.2,0-0.4,0-0.6,0.1c-0.2,0-0.3,0.1-0.4,0.2c-0.1,0.1-0.2,0.2-0.2,0.3c0,0.1-0.1,0.3-0.1,0.4h-2.2
		c0-0.4,0.1-0.7,0.2-1c0.2-0.3,0.4-0.6,0.7-0.9c0.3-0.3,0.7-0.5,1.1-0.6c0.5-0.2,1-0.2,1.6-0.2c0.5,0,1,0.1,1.5,0.2
		c0.4,0.1,0.8,0.3,1.2,0.6c0.3,0.3,0.6,0.6,0.8,1c0.2,0.4,0.3,0.9,0.3,1.3v3.7c0,0.4,0,0.8,0.1,1.2c0,0.3,0.1,0.5,0.3,0.8v0.1h-2.3
		C82.7,17.4,82.7,17.3,82.7,17.1L82.7,17.1z"/>
	<path style="clip-path:url(#SVGID_00000106132484282803306360000006922047806609196430_);fill:#404041;" d="M90.4,8.8h3.2v1.6h-3.2
		v3.7c0,0.3,0,0.5,0.1,0.8c0.1,0.2,0.2,0.4,0.3,0.5c0.1,0.1,0.3,0.2,0.5,0.3c0.2,0.1,0.4,0.1,0.6,0.1c0.2,0,0.3,0,0.5,0
		s0.4,0,0.5-0.1s0.3,0,0.5-0.1s0.3-0.1,0.4-0.1l0.2,1.5c-0.2,0.1-0.4,0.2-0.5,0.2c-0.2,0.1-0.4,0.1-0.7,0.2c-0.2,0-0.5,0.1-0.7,0.1
		s-0.5,0-0.8,0c-0.4,0-0.9-0.1-1.3-0.2c-0.4-0.1-0.7-0.3-1-0.6c-0.3-0.3-0.5-0.6-0.6-1c-0.2-0.5-0.2-1-0.2-1.5v-3.9h-2V8.8h2V6.7
		h2.2L90.4,8.8L90.4,8.8z"/>
	<path style="clip-path:url(#SVGID_00000106132484282803306360000006922047806609196430_);fill:#404041;" d="M52.7,27.7
		c-0.2,0.1-0.4,0.2-0.5,0.4c-0.2,0.2-0.3,0.4-0.4,0.6c-0.1,0.2-0.2,0.5-0.2,0.8h3.7v-0.2c0-0.2,0-0.5-0.1-0.7
		c-0.1-0.2-0.2-0.4-0.4-0.5c-0.2-0.2-0.3-0.3-0.5-0.4c-0.2-0.1-0.5-0.1-0.8-0.1C53.2,27.5,53,27.6,52.7,27.7L52.7,27.7z M51.9,34.4
		c-0.5-0.2-1-0.5-1.4-0.9c-0.4-0.4-0.7-0.8-0.9-1.3c-0.2-0.5-0.3-1.1-0.3-1.6v-0.3c0-0.6,0.1-1.2,0.3-1.8c0.2-0.5,0.5-1,0.9-1.4
		c0.4-0.4,0.8-0.7,1.3-0.9c0.5-0.2,1.1-0.3,1.7-0.3c0.6,0,1.1,0.1,1.7,0.3c0.5,0.2,0.9,0.5,1.2,0.9c0.3,0.4,0.6,0.9,0.8,1.4
		c0.2,0.6,0.3,1.2,0.3,1.7v0.9h-5.9v0c0.1,0.3,0.2,0.6,0.3,0.8c0.1,0.2,0.3,0.4,0.5,0.6c0.2,0.2,0.4,0.3,0.7,0.4
		c0.3,0.1,0.6,0.1,0.9,0.1c0.4,0,0.9-0.1,1.3-0.2c0.4-0.2,0.7-0.4,1-0.7l1.1,1.2c-0.4,0.5-0.8,0.8-1.3,1.1c-0.7,0.3-1.4,0.5-2.2,0.5
		C53.1,34.7,52.5,34.6,51.9,34.4L51.9,34.4z"/>
	<path style="clip-path:url(#SVGID_00000106132484282803306360000006922047806609196430_);fill:#404041;" d="M64.4,25.9h2.4
		l-2.9,4.3l3,4.4h-2.4l-2-2.8l-2,2.8h-2.4l3-4.4l-2.9-4.3h2.4l1.9,2.7L64.4,25.9L64.4,25.9z"/>
	<path style="clip-path:url(#SVGID_00000106132484282803306360000006922047806609196430_);fill:#404041;" d="M73.8,29.1
		c-0.1-0.3-0.2-0.6-0.3-0.8c-0.1-0.2-0.3-0.4-0.5-0.5c-0.2-0.1-0.5-0.2-0.8-0.2c-0.2,0-0.3,0-0.5,0.1c-0.1,0-0.3,0.1-0.4,0.1
		c-0.1,0.1-0.3,0.2-0.4,0.3c-0.1,0.1-0.2,0.2-0.3,0.4V32c0.1,0.1,0.2,0.3,0.3,0.4c0.2,0.2,0.5,0.4,0.8,0.5c0.2,0,0.4,0.1,0.5,0.1
		c0.3,0,0.6-0.1,0.8-0.2c0.2-0.1,0.4-0.3,0.5-0.6c0.1-0.3,0.2-0.5,0.3-0.8c0.1-0.3,0.1-0.7,0.1-1v-0.2
		C73.9,29.8,73.8,29.4,73.8,29.1L73.8,29.1z M68.3,25.9h2.1l0.1,0.8c0.1-0.1,0.2-0.3,0.4-0.4c0.1-0.1,0.3-0.2,0.4-0.3
		c0.2-0.1,0.4-0.2,0.6-0.2c0.2-0.1,0.5-0.1,0.8-0.1c0.5,0,1,0.1,1.5,0.3c0.4,0.2,0.8,0.5,1.1,0.9c0.3,0.4,0.5,0.9,0.7,1.4
		c0.2,0.6,0.2,1.2,0.2,1.8v0.2c0,0.6-0.1,1.2-0.2,1.8c-0.1,0.5-0.3,1-0.6,1.4c-0.3,0.4-0.6,0.7-1.1,0.9c-0.4,0.2-0.9,0.3-1.5,0.3
		c-0.3,0-0.5,0-0.8-0.1c-0.2-0.1-0.5-0.1-0.7-0.3c-0.1-0.1-0.2-0.2-0.4-0.2c-0.1-0.1-0.2-0.2-0.3-0.3v4.1h-2.2L68.3,25.9L68.3,25.9z
		"/>
	<path style="clip-path:url(#SVGID_00000106132484282803306360000006922047806609196430_);fill:#404041;" d="M81.1,27.7
		c-0.2,0.1-0.4,0.2-0.5,0.4c-0.2,0.2-0.3,0.4-0.4,0.6c-0.1,0.2-0.2,0.5-0.2,0.8h3.7v-0.2c0-0.2,0-0.5-0.1-0.7
		c-0.1-0.2-0.2-0.4-0.4-0.5c-0.2-0.2-0.3-0.3-0.5-0.4c-0.2-0.1-0.5-0.1-0.8-0.1C81.5,27.5,81.3,27.6,81.1,27.7L81.1,27.7z
		 M80.2,34.4c-0.5-0.2-1-0.5-1.4-0.9c-0.4-0.4-0.7-0.8-0.9-1.3c-0.2-0.5-0.3-1.1-0.3-1.6v-0.3c0-0.6,0.1-1.2,0.3-1.8
		c0.2-0.5,0.5-1,0.9-1.4c0.4-0.4,0.8-0.7,1.3-0.9c0.5-0.2,1.1-0.3,1.7-0.3c0.6,0,1.1,0.1,1.7,0.3c0.5,0.2,0.9,0.5,1.2,0.9
		c0.3,0.4,0.6,0.9,0.8,1.4c0.2,0.6,0.3,1.2,0.3,1.7v0.9h-5.9v0c0.1,0.3,0.2,0.6,0.3,0.8c0.1,0.2,0.3,0.4,0.5,0.6
		c0.2,0.2,0.4,0.3,0.7,0.4c0.3,0.1,0.6,0.1,0.9,0.1c0.4,0,0.9-0.1,1.3-0.2c0.4-0.2,0.7-0.4,1-0.7l1.1,1.2c-0.4,0.5-0.8,0.8-1.3,1.1
		c-0.7,0.3-1.4,0.5-2.2,0.5C81.4,34.7,80.8,34.6,80.2,34.4L80.2,34.4z"/>
	<path style="clip-path:url(#SVGID_00000106132484282803306360000006922047806609196430_);fill:#404041;" d="M92,32.8
		c0.2-0.1,0.4-0.2,0.5-0.3c0.1-0.1,0.3-0.3,0.3-0.4C93,32,93,31.8,93,31.6h2.1c0,0.4-0.1,0.9-0.3,1.3c-0.2,0.4-0.5,0.7-0.8,1
		c-0.4,0.3-0.7,0.5-1.2,0.7c-0.5,0.2-0.9,0.2-1.4,0.2c-0.6,0-1.2-0.1-1.8-0.3c-0.5-0.2-0.9-0.5-1.3-0.9c-0.3-0.4-0.6-0.9-0.8-1.4
		c-0.2-0.6-0.3-1.1-0.3-1.7v-0.2c0-0.6,0.1-1.2,0.3-1.7c0.2-0.5,0.4-1,0.8-1.4c0.4-0.4,0.8-0.7,1.3-0.9c0.6-0.2,1.2-0.4,1.8-0.3
		c0.5,0,1,0.1,1.5,0.2c0.4,0.1,0.8,0.4,1.2,0.7c0.3,0.3,0.6,0.7,0.8,1.1c0.2,0.4,0.3,0.9,0.3,1.4H93c0-0.2,0-0.4-0.1-0.6
		c-0.1-0.2-0.2-0.4-0.3-0.5c-0.2-0.1-0.3-0.3-0.5-0.3c-0.2-0.1-0.4-0.1-0.7-0.1c-0.3,0-0.6,0.1-0.9,0.2c-0.2,0.1-0.4,0.3-0.5,0.6
		c-0.1,0.3-0.2,0.5-0.3,0.8c-0.1,0.3-0.1,0.6-0.1,1v0.2c0,0.3,0,0.7,0.1,1c0,0.3,0.1,0.6,0.3,0.8c0.1,0.2,0.3,0.4,0.5,0.6
		c0.3,0.2,0.6,0.2,0.9,0.2C91.6,32.9,91.8,32.9,92,32.8L92,32.8z"/>
	<path style="clip-path:url(#SVGID_00000106132484282803306360000006922047806609196430_);fill:#404041;" d="M100.6,25.9h3.2v1.6
		h-3.2v3.7c0,0.3,0,0.5,0.1,0.8c0.1,0.2,0.2,0.4,0.3,0.5c0.1,0.1,0.3,0.2,0.5,0.3c0.2,0.1,0.4,0.1,0.6,0.1c0.2,0,0.3,0,0.5,0
		s0.4,0,0.5-0.1s0.3,0,0.5-0.1s0.3-0.1,0.4-0.1l0.2,1.5c-0.2,0.1-0.4,0.2-0.5,0.2c-0.2,0.1-0.4,0.1-0.7,0.2c-0.2,0-0.5,0.1-0.7,0.1
		s-0.5,0-0.8,0c-0.4,0-0.9-0.1-1.3-0.2c-0.4-0.1-0.7-0.3-1-0.6c-0.3-0.3-0.5-0.6-0.6-1c-0.2-0.5-0.2-1-0.2-1.5v-3.9h-2v-1.6h2v-2.1
		h2.2L100.6,25.9L100.6,25.9z"/>
	<path style="clip-path:url(#SVGID_00000106132484282803306360000006922047806609196430_);fill:#404041;" d="M109.8,32.9
		c0.2,0,0.4-0.1,0.5-0.2c0.1-0.1,0.3-0.2,0.4-0.3c0.1-0.1,0.2-0.2,0.3-0.3v-1.5h-1.1c-0.3,0-0.6,0-0.9,0.1c-0.2,0.1-0.4,0.1-0.6,0.3
		c-0.1,0.1-0.3,0.3-0.3,0.4c-0.1,0.2-0.1,0.4-0.1,0.5c0,0.1,0,0.3,0.1,0.4c0.1,0.1,0.1,0.2,0.2,0.3c0.1,0.1,0.3,0.2,0.4,0.2
		c0.2,0.1,0.4,0.1,0.5,0.1C109.4,33,109.6,33,109.8,32.9L109.8,32.9z M111.1,34.2c0-0.1-0.1-0.3-0.1-0.4c-0.1,0.1-0.3,0.3-0.4,0.4
		c-0.2,0.1-0.3,0.2-0.5,0.3c-0.2,0.1-0.4,0.2-0.6,0.2c-0.3,0.1-0.5,0.1-0.8,0.1c-0.4,0-0.8-0.1-1.2-0.2c-0.4-0.1-0.7-0.3-1-0.5
		c-0.3-0.2-0.5-0.5-0.6-0.8c-0.2-0.3-0.2-0.7-0.2-1c0-0.4,0.1-0.9,0.3-1.3c0.2-0.4,0.5-0.7,0.8-0.9c0.4-0.2,0.8-0.4,1.2-0.5
		c0.6-0.1,1.1-0.2,1.7-0.2h1.2v-0.5c0-0.2,0-0.4-0.1-0.5c-0.1-0.2-0.2-0.3-0.3-0.4c-0.1-0.1-0.3-0.2-0.5-0.3
		c-0.2-0.1-0.5-0.1-0.7-0.1c-0.2,0-0.4,0-0.6,0.1c-0.2,0-0.3,0.1-0.4,0.2c-0.1,0.1-0.2,0.2-0.2,0.3c0,0.1-0.1,0.3-0.1,0.4h-2.2
		c0-0.4,0.1-0.7,0.2-1.1c0.2-0.3,0.4-0.6,0.7-0.9c0.3-0.3,0.7-0.5,1.1-0.6c0.5-0.2,1-0.2,1.6-0.2c0.5,0,1,0.1,1.5,0.2
		c0.4,0.1,0.8,0.3,1.2,0.6c0.3,0.3,0.6,0.6,0.8,0.9c0.2,0.4,0.3,0.9,0.3,1.3v3.7c0,0.4,0,0.8,0.1,1.2c0,0.3,0.1,0.5,0.3,0.8v0.1
		h-2.3C111.2,34.4,111.2,34.3,111.1,34.2L111.1,34.2z"/>
	<path style="clip-path:url(#SVGID_00000106132484282803306360000006922047806609196430_);fill:#404041;" d="M119,25.9h3.2v1.6H119
		v3.7c0,0.3,0,0.5,0.1,0.8c0.1,0.2,0.2,0.4,0.3,0.5c0.1,0.1,0.3,0.2,0.5,0.3c0.2,0.1,0.4,0.1,0.6,0.1c0.2,0,0.3,0,0.5,0
		s0.4,0,0.5-0.1s0.3,0,0.5-0.1s0.3-0.1,0.4-0.1l0.2,1.5c-0.2,0.1-0.4,0.2-0.5,0.2c-0.2,0.1-0.4,0.1-0.7,0.2c-0.2,0-0.5,0.1-0.7,0.1
		s-0.5,0-0.8,0c-0.4,0-0.9-0.1-1.3-0.2c-0.4-0.1-0.7-0.3-1-0.6c-0.3-0.3-0.5-0.6-0.6-1c-0.2-0.5-0.2-1-0.2-1.5v-3.9h-2v-1.6h2v-2.1
		h2.2L119,25.9L119,25.9z"/>
	<path style="clip-path:url(#SVGID_00000106132484282803306360000006922047806609196430_);fill:#404041;" d="M126.9,23.2
		c0.1-0.1,0.1-0.3,0.3-0.4c0.1-0.1,0.3-0.2,0.4-0.2c0.2-0.1,0.3-0.1,0.5-0.1c0.3,0,0.7,0.1,0.9,0.3c0.5,0.5,0.5,1.2,0,1.7
		c-0.3,0.2-0.6,0.4-0.9,0.3c-0.2,0-0.4,0-0.5-0.1c-0.2-0.1-0.3-0.1-0.4-0.2c-0.1-0.1-0.2-0.2-0.3-0.4c-0.1-0.2-0.1-0.3-0.1-0.5
		C126.8,23.5,126.8,23.3,126.9,23.2L126.9,23.2z M129.2,25.9v6.9h2.3v1.8h-7.1v-1.8h2.5v-5h-2.5v-1.8L129.2,25.9L129.2,25.9z"/>
	<path style="clip-path:url(#SVGID_00000106132484282803306360000006922047806609196430_);fill:#404041;" d="M134.9,31.3
		c0.1,0.3,0.2,0.6,0.3,0.8c0.1,0.2,0.3,0.4,0.6,0.6c0.3,0.1,0.6,0.2,0.9,0.2c0.3,0,0.6-0.1,0.8-0.2c0.2-0.1,0.4-0.3,0.6-0.6
		c0.2-0.3,0.3-0.5,0.3-0.8c0.1-0.3,0.1-0.7,0.1-1v-0.2c0-0.3,0-0.7-0.1-1c-0.1-0.3-0.2-0.6-0.3-0.8c-0.3-0.5-0.9-0.8-1.4-0.8
		c-0.3,0-0.6,0.1-0.8,0.2c-0.2,0.1-0.4,0.3-0.6,0.6c-0.2,0.3-0.3,0.5-0.3,0.8c-0.1,0.3-0.1,0.7-0.1,1v0.2
		C134.8,30.6,134.8,31,134.9,31.3L134.9,31.3z M132.8,28.4c0.2-0.5,0.4-1,0.8-1.4c0.4-0.4,0.8-0.7,1.3-0.9c1.1-0.4,2.4-0.4,3.5,0
		c0.5,0.2,0.9,0.5,1.3,0.9c0.4,0.4,0.6,0.9,0.8,1.4c0.2,0.6,0.3,1.2,0.3,1.8v0.2c0,0.6-0.1,1.2-0.3,1.8c-0.2,0.5-0.4,1-0.8,1.4
		c-0.4,0.4-0.8,0.7-1.3,0.9c-0.5,0.2-1.1,0.3-1.7,0.3c-0.6,0-1.2-0.1-1.7-0.3c-0.5-0.2-0.9-0.5-1.3-0.9c-0.4-0.4-0.6-0.9-0.8-1.4
		c-0.2-0.6-0.3-1.2-0.3-1.8v-0.2C132.6,29.5,132.6,28.9,132.8,28.4L132.8,28.4z"/>
	<path style="clip-path:url(#SVGID_00000106132484282803306360000006922047806609196430_);fill:#404041;" d="M142.6,25.9h2l0.1,1.2
		c0.1-0.2,0.2-0.3,0.4-0.4c0.1-0.1,0.3-0.3,0.4-0.4c0.3-0.2,0.5-0.3,0.8-0.4c0.3-0.1,0.6-0.1,1-0.1c0.4,0,0.8,0.1,1.2,0.2
		c0.4,0.1,0.7,0.3,0.9,0.6c0.3,0.3,0.5,0.7,0.6,1.1c0.2,0.5,0.2,1.1,0.2,1.6v5.3h-2.2v-5.3c0-0.3,0-0.6-0.1-0.8
		c-0.1-0.2-0.2-0.4-0.3-0.5c-0.1-0.1-0.3-0.2-0.5-0.3c-0.2-0.1-0.5-0.1-0.7-0.1c-0.2,0-0.4,0-0.6,0.1c-0.2,0-0.3,0.1-0.5,0.2
		c-0.1,0.1-0.2,0.2-0.3,0.2c-0.1,0.1-0.2,0.2-0.2,0.3v6.2h-2.2L142.6,25.9L142.6,25.9z"/>
	<path style="clip-path:url(#SVGID_00000106132484282803306360000006922047806609196430_);fill:#404041;" d="M157.7,31.8
		c-0.1-0.1-0.2-0.2-0.3-0.3c-0.2-0.1-0.4-0.2-0.6-0.2c-0.3-0.1-0.6-0.1-1-0.2c-0.5-0.1-0.9-0.2-1.4-0.4c-0.4-0.1-0.7-0.3-1.1-0.6
		c-0.3-0.2-0.5-0.5-0.7-0.7c-0.2-0.3-0.3-0.6-0.3-1c0-0.4,0.1-0.7,0.3-1c0.2-0.3,0.4-0.6,0.7-0.9c0.4-0.3,0.7-0.5,1.2-0.6
		c0.5-0.2,1-0.2,1.6-0.2c0.5,0,1.1,0.1,1.6,0.2c0.4,0.1,0.9,0.3,1.2,0.6c0.3,0.2,0.6,0.5,0.8,0.9c0.2,0.3,0.3,0.7,0.3,1.1h-2.2
		c0-0.1,0-0.3-0.1-0.4c0-0.1-0.1-0.2-0.2-0.3c-0.2-0.1-0.3-0.3-0.5-0.3c-0.3-0.1-0.5-0.1-0.8-0.1c-0.2,0-0.5,0-0.7,0.1
		c-0.2,0-0.3,0.1-0.5,0.2c-0.1,0.1-0.2,0.2-0.3,0.3c-0.1,0.1-0.1,0.2-0.1,0.4c0,0.1,0,0.2,0.1,0.4c0.1,0.1,0.2,0.2,0.3,0.3
		c0.2,0.1,0.4,0.2,0.6,0.2c0.3,0.1,0.6,0.1,0.9,0.2c0.5,0.1,1,0.2,1.5,0.3c0.4,0.1,0.8,0.3,1.2,0.5c0.3,0.2,0.6,0.5,0.8,0.8
		c0.2,0.3,0.3,0.7,0.3,1.1c0,0.4-0.1,0.7-0.3,1.1c-0.2,0.3-0.5,0.6-0.8,0.8c-0.4,0.3-0.8,0.4-1.2,0.5c-0.5,0.1-1.1,0.2-1.6,0.2
		c-0.6,0-1.2-0.1-1.7-0.3c-0.5-0.1-0.9-0.4-1.3-0.7c-0.3-0.3-0.6-0.6-0.8-0.9c-0.2-0.3-0.3-0.7-0.3-1.1h2.1c0,0.2,0.1,0.4,0.2,0.6
		c0.1,0.2,0.3,0.3,0.4,0.4c0.2,0.1,0.4,0.2,0.6,0.2c0.5,0.1,1,0.1,1.5,0c0.2,0,0.4-0.1,0.5-0.2c0.1-0.1,0.2-0.2,0.3-0.3
		c0.1-0.1,0.1-0.2,0.1-0.4C157.8,32.1,157.8,31.9,157.7,31.8L157.7,31.8z"/>
	<path style="clip-path:url(#SVGID_00000106132484282803306360000006922047806609196430_);fill:#FF6310;" d="M33.4,20.4h-9.4
		c-1.5,0-2.7,1.2-2.7,2.6c0,1.5,1.2,2.7,2.7,2.7h3.4l3.8,3.8c1.2-1.6,1.9-3.4,2.2-5.4c0.1-0.6,0.1-1.2,0.1-1.9
		C33.5,21.7,33.5,21,33.4,20.4L33.4,20.4z M37.1,20.4c0.1,0.6,0.1,1.3,0.1,1.9c0,8.8-7.1,15.9-15.9,16c-3.6,0-7.1-1.2-9.9-3.4
		l-3.8,3.8c9,7.6,22.4,6.4,30-2.6c3.2-3.8,5-8.7,5-13.7c0-0.6,0-1.3-0.1-1.9L37.1,20.4L37.1,20.4z M21.3,10.1
		c-2.6,0-5.1,0.8-7.2,2.4l3.8,3.8c1.6-0.9,3.5-1.1,5.3-0.6l2-4.9C23.9,10.3,22.6,10.1,21.3,10.1L21.3,10.1z M8.8,32.2
		c-5.5-6.9-4.3-16.9,2.6-22.4c5.8-4.6,14-4.6,19.8,0L35,6C26-1.6,12.5-0.4,5,8.6C-1.7,16.5-1.7,28.1,5,36L8.8,32.2z M28.5,32.2
		c-5.4,4-13.1,2.8-17.1-2.6c-3.2-4.3-3.2-10.2,0-14.5l3.8,3.8c-1.9,3.3-0.7,7.6,2.6,9.4c2.1,1.2,4.7,1.2,6.8,0L28.5,32.2L28.5,32.2z
		"/>
</g>
</svg>
