<!DOCTYPE svg PUBLIC "-//W3C//DTD SVG 1.1//EN" "http://www.w3.org/Graphics/SVG/1.1/DTD/svg11.dtd">

<!-- Uploaded to: SVG Repo, www.svgrepo.com, Transformed by: SVG Repo Mixer Tools -->
<svg width="35px" height="35px" viewBox="0 0 512 512" version="1.1" xmlns="http://www.w3.org/2000/svg" xmlns:xlink="http://www.w3.org/1999/xlink" fill="#FFA500">

<g id="SVGRepo_bgCarrier" stroke-width="0"/>

<g id="SVGRepo_tracerCarrier" stroke-linecap="round" stroke-linejoin="round"/>

<g id="SVGRepo_iconCarrier"> <title>start-data-analysis</title> <g id="Page-1" stroke="none" stroke-width="1" fill="none" fill-rule="evenodd"> <g id="add" fill="#FFA500" transform="translate(42.666667, 64.000000)"> <path d="M330.666667,213.333333 C383.686003,213.333333 426.666667,256.313997 426.666667,309.333333 C426.666667,362.352669 383.686003,405.333333 330.666667,405.333333 C277.647331,405.333333 234.666667,362.352669 234.666667,309.333333 C234.666667,256.313997 277.647331,213.333333 330.666667,213.333333 Z M298.666667,256 L298.666667,362.666667 L394.666667,309.333333 L298.666667,256 Z M217.750247,277.332553 C214.872978,287.505196 213.333333,298.239463 213.333333,309.333333 C213.333333,312.929471 213.495114,316.487822 213.811795,320.001506 L7.10542736e-15,320 L7.10542736e-15,277.333333 L217.750247,277.332553 Z M85.3333333,106.666667 L85.3333333,256 L21.3333333,256 L21.3333333,106.666667 L85.3333333,106.666667 Z M192,170.666667 L192,256 L128,256 L128,170.666667 L192,170.666667 Z M298.666667,149.333333 L298.665886,196.416914 C272.44898,203.832203 249.96235,220.131918 234.664106,241.857949 L234.666667,149.333333 L298.666667,149.333333 Z M405.333333,170.666667 L405.335205,218.821004 C387.620087,204.19017 365.537062,194.659753 341.33484,192.478461 L341.333333,170.666667 L405.333333,170.666667 Z M266.666667,1.42108547e-14 C284.339779,1.42108547e-14 298.666667,14.326888 298.666667,32 C298.666667,32.4356001 298.657963,32.8691674 298.64072,33.3005374 L349.283,53.5572349 C355.147737,46.8807505 363.748409,42.6666667 373.333333,42.6666667 C391.006445,42.6666667 405.333333,56.9935547 405.333333,74.6666667 C405.333333,92.3397787 391.006445,106.666667 373.333333,106.666667 C355.660221,106.666667 341.333333,92.3397787 341.333333,74.6666667 C341.333333,74.2307299 341.34205,73.7968291 341.35932,73.3651292 L290.718082,53.1081995 C284.853321,59.7853977 276.25218,64 266.666667,64 C258.917401,64 251.81149,61.245474 246.274635,56.6621239 L191.36331,89.6169018 C191.780845,91.6795653 192,93.8141895 192,96 C192,113.673112 177.673112,128 160,128 C142.326888,128 128,113.673112 128,96 C128,93.8156034 128.218871,91.6823268 128.63588,89.6209045 L73.7162402,56.6696749 C68.1807035,61.2484992 61.0783421,64 53.3333333,64 C35.6602213,64 21.3333333,49.673112 21.3333333,32 C21.3333333,14.326888 35.6602213,1.42108547e-14 53.3333333,1.42108547e-14 C71.0064453,1.42108547e-14 85.3333333,14.326888 85.3333333,32 C85.3333333,34.1847501 85.1143912,36.3183635 84.697251,38.3800962 L139.615099,71.3319749 C145.150924,66.7521617 152.254061,64 160,64 C167.745554,64 174.848371,66.7518885 180.384077,71.3312928 L235.302749,38.3800962 C234.885609,36.3183635 234.666667,34.1847501 234.666667,32 C234.666667,14.326888 248.993555,1.42108547e-14 266.666667,1.42108547e-14 Z" id="Combined-Shape"> </path> </g> </g> </g>

</svg>