<!DOCTYPE svg PUBLIC "-//W3C//DTD SVG 1.1//EN" "http://www.w3.org/Graphics/SVG/1.1/DTD/svg11.dtd">

<!-- Uploaded to: SVG Repo, www.svgrepo.com, Transformed by: SVG Repo Mixer Tools -->
<svg xmlns:dc="http://purl.org/dc/elements/1.1/" xmlns:cc="http://creativecommons.org/ns#" xmlns:rdf="http://www.w3.org/1999/02/22-rdf-syntax-ns#" xmlns:svg="http://www.w3.org/2000/svg" xmlns="http://www.w3.org/2000/svg" xmlns:sodipodi="http://sodipodi.sourceforge.net/DTD/sodipodi-0.dtd" xmlns:inkscape="http://www.inkscape.org/namespaces/inkscape" width="35px" height="35px" viewBox="0 0 400 400.00001" id="svg2" version="1.1" inkscape:version="0.91 r13725" sodipodi:docname="integration.svg" fill="#FFA500">

<g id="SVGRepo_bgCarrier" stroke-width="0"/>

<g id="SVGRepo_tracerCarrier" stroke-linecap="round" stroke-linejoin="round"/>

<g id="SVGRepo_iconCarrier"> <defs id="defs4"/> <sodipodi:namedview id="base" pagecolor="#FFA500" bordercolor="#FFA500" borderopacity="1.0" inkscape:pageopacity="0.0" inkscape:pageshadow="2" inkscape:zoom="1.5998291" inkscape:cx="126.15261" inkscape:cy="212.41032" inkscape:document-units="px" inkscape:current-layer="layer1" showgrid="false" units="px" showguides="true" inkscape:guide-bbox="true" inkscape:window-width="1920" inkscape:window-height="1056" inkscape:window-x="1920" inkscape:window-y="24" inkscape:window-maximized="1"> <sodipodi:guide position="200.71429,121.42857" orientation="1,0" id="guide23298"/> </sodipodi:namedview> <metadata id="metadata7"> <rdf:rdf> <cc:work rdf:about=""> <dc:format>image/svg+xml</dc:format> <dc:type rdf:resource="http://purl.org/dc/dcmitype/StillImage"/> <dc:title/> </cc:work> </rdf:rdf> </metadata> <g inkscape:label="Capa 1" inkscape:groupmode="layer" id="layer1" transform="translate(0,-652.36216)"> <path style="color:#FFA500;font-style:normal;font-variant:normal;font-weight:normal;font-stretch:normal;font-size:medium;line-height:normal;font-family:sans-serif;text-indent:0;text-align:start;text-decoration:none;text-decoration-line:none;text-decoration-style:solid;text-decoration-color:#FFA500;letter-spacing:normal;word-spacing:normal;text-transform:none;direction:ltr;block-progression:tb;writing-mode:lr-tb;baseline-shift:baseline;text-anchor:start;white-space:normal;clip-rule:nonzero;display:inline;overflow:visible;visibility:visible;opacity:1;isolation:auto;mix-blend-mode:normal;color-interpolation:sRGB;color-interpolation-filters:linearRGB;solid-color:#FFA500;solid-opacity:1;fill:#FFA500;fill-opacity:1;fill-rule:nonzero;stroke:none;stroke-width:24.94966698;stroke-linecap:butt;stroke-linejoin:miter;stroke-miterlimit:4;stroke-dasharray:none;stroke-dashoffset:0;stroke-opacity:1;color-rendering:auto;image-rendering:auto;shape-rendering:auto;text-rendering:auto;enable-background:accumulate" d="m 288.75851,1051.2892 c -1.8073,-0.01 -25.34053,-0.054 -51.69336,-0.098 -13.91607,-0.023 -26.86991,-0.2654 -37.05469,-0.6621 -5.09239,-0.1984 -9.48379,-0.4338 -13.04882,-0.7109 -3.56503,-0.2772 -5.70695,-0.3497 -9.00586,-1.209 -3.96412,-1.0326 -7.38479,-0.8376 -12.42188,-5.7442 -2.51854,-2.4533 -4.11385,-6.2888 -4.5332,-8.8242 -0.41935,-2.5354 -0.29169,-4.1237 -0.23828,-5.6172 0.18737,-5.2391 1.67427,-8.2342 3.39062,-11.9082 1.71635,-3.674 3.92853,-7.4853 6.54492,-11.3086 3.56415,-5.20823 5.0489,-8.5946 5.49219,-10.59762 0.44329,-2.00302 0.41735,-3.0767 -0.71289,-6.20117 -1.03043,-2.84855 -2.35848,-4.45445 -5.76367,-6.2207 -3.40519,-1.76625 -9.124,-3.21687 -17.1543,-3.38672 -10.89596,-0.23048 -18.41144,1.24351 -22.54297,3.18945 -4.13152,1.94594 -5.37555,3.47917 -6.52539,7.34375 -1.41295,4.74891 -1.31303,6.85809 -0.51367,9.26367 0.79937,2.40554 2.98139,5.88524 8.10938,10.88284 4.92095,4.7958 7.70691,11.8692 8.24218,18.5449 0.27168,3.3882 1.50318,7.1117 -2.0332,13.1777 -1.76819,3.033 -4.76867,5.232 -6.89062,6.252 -2.12196,1.0199 -3.62826,1.3801 -5.06446,1.7597 -4.57162,1.2084 -5.37657,0.785 -8.83789,0.9571 -3.46132,0.1721 -7.8617,0.312 -12.94726,0.4277 -10.171136,0.2315 -23.042386,0.3622 -35.800786,0.3887 -12.7584,0.026 -25.38105,-0.052 -35.07031,-0.2422 -4.84463,-0.095 -8.93607,-0.2165 -12.07812,-0.3789 -1.57103,-0.081 -2.88121,-0.1672 -4.12696,-0.2988 -0.62287,-0.066 -1.20791,-0.1327 -2.03125,-0.2891 -0.82334,-0.1564 -1.12665,0.7527 -5.3242201,-2.1875 -3.23778,-2.2679 -3.67738,-3.9096 -4.16211,-4.916 -0.48472,-1.0064 -0.66013,-1.6091 -0.80859,-2.1133 -0.29691,-1.0085 -0.39423,-1.6011 -0.49609,-2.2012 -0.20373,-1.2002 -0.32483,-2.2989 -0.45117,-3.6152 -0.2527,-2.6326 -0.47585,-5.987 -0.69532,-10.0254 -0.43894,-8.0767 -0.84135,-18.7814 -1.15625,-30.15038 -0.62978997,-22.73797 -0.94579997,-47.61271 -0.35741997,-59.80078 0.19353997,-4.00899 0.62352997,-7.85435 1.24218997,-11.25586 0.30933,-1.70076 0.6525,-3.27312 1.15234,-4.90625 0.49984,-1.63313 0.40724,-3.0556 3.39453,-6.48633 2.91522,-3.34787 7.5074001,-5.46404 11.4550801,-5.87695 3.94768,-0.41292 7.28996,0.3478 10.33203,1.42773 6.08415,2.15986 11.46123,5.83755 17.39258,10.80274 10.09591,8.45131 12.4896,8.92702 19.44531,7.0957 7.65799,-2.01622 14.57779,-9.79719 17.72852,-20.6875 3.15073,-10.89031 1.90883,-23.56324 -4.02149,-32.2793 -3.06562,-4.50569 -8.76017,-9.0861 -14.17968,-11.56445 -4.81367,-2.2013 -8.57942,-2.10749 -9.46289,-2.07227 -0.72044,0.49346 -1.81499,1.21706 -2.75196,2.10547 -2.09174,1.98334 -4.69631,4.71903 -7.0039,7.42774 -7.4715,8.7702 -12.83565,15.91402 -24.75391,16.56836 -5.95913,0.32717 -12.7211601,-3.54539 -15.7519501,-7.92774 -3.0308,-4.38235 -4.07953,-8.74379 -4.82226997,-13.52539 -0.52419,-3.37465 -0.36722,-5.01001 -0.375,-8.50976 -0.008,-3.49976 0.0502,-7.91186 0.15821,-12.97461 0.21592,-10.12552 0.63153,-22.82073 1.13475997,-35.35352 0.50323,-12.53279 1.09319,-24.88318 1.66406,-34.33984 0.28544,-4.72833 0.56275,-8.7156 0.83789,-11.76368 0.13757,-1.52403 0.26756,-2.79022 0.43555,-3.98242 0.084,-0.5961 0.16855,-1.15328 0.33984,-1.92969 0.1713,-0.7764 -0.74288,-0.96737 2.21094,-5.07226 2.6834,-3.72914 4.4059401,-3.86495 5.4121101,-4.28516 1.00617,-0.4202 1.56339,-0.5496 2.03125,-0.66406 0.93573,-0.22891 1.45626,-0.29289 1.98828,-0.36328 1.06405,-0.14077 2.02593,-0.21614 3.18555,-0.29297 2.31924,-0.15365 5.28876,-0.27393 8.89258,-0.37305 7.20763,-0.19824 16.86225,-0.30281 27.39062,-0.27539 25.42503,0.0662 40.65853,-0.15702 49.843746,-0.94531 9.18523,-0.78828 11.28333,-1.64907 14.32032,-3.41406 5.41009,-3.14416 5.58197,-4.30342 5.68164,-6.05664 0.0997,-1.75323 -1.23945,-6.96453 -7.12696,-14.71875 -3.56619,-4.69694 -6.13608,-8.2333 -8.08789,-12.52735 -1.9518,-4.29406 -2.71189,-8.87006 -2.98632,-13.03116 1.11603,-13.71739 4.37211,-23.93647 15.09375,-30.918 3.97864,-2.5915 6.69928,-3.2185 10.45507,-4.332 3.7558,-1.1135 7.94411,-2.1023 12.11524,-2.8047 l 0.002,0 c 24.38725,-4.1041 47.70494,1.684 58.36719,20.1797 3.37894,5.8614 5.02089,13.5885 3.56836,20.6543 -1.45254,7.0657 -5.01361,13.08594 -9.80078,19.59561 -7.41617,10.08451 -9.1967,20.14915 -9.41797,18.82227 l 0,0.002 c 0.19428,1.17928 0.29184,1.75612 2.8418,3.46485 2.55139,1.70969 7.6509,3.76126 15.14257,5.10546 -1.8611,-0.33393 0.9858,0.0636 3.60938,0.18165 2.62358,0.118 6.21363,0.24102 10.40429,0.35937 8.38133,0.2367 19.18922,0.4578 29.97657,0.625 10.78735,0.1672 21.56831,0.28045 29.89453,0.30274 4.16311,0.0111 7.71967,7e-5 10.29883,-0.0371 2.57915,-0.0372 5.69086,-0.43591 3.28125,-0.043 4.93008,-0.80399 9.98151,2.26979 11.73242,4.3125 1.75091,2.0427 2.13348,3.33355 2.49414,4.33398 0.72131,2.00086 0.8415,3.11833 1.02148,4.4082 0.35997,2.57976 0.53173,5.43655 0.67774,9.29493 0.29201,7.71674 0.36347,19.1226 0.26367,35.13867 -0.16807,26.96916 0.88283,43.93448 3.04883,52.76562 2.16599,8.83115 2.41362,8.28063 6.50586,9.58985 2.35051,0.75198 1.97913,0.78892 4.22265,0.0254 2.24353,-0.76353 6.87099,-3.28715 14.07422,-8.32227 7.20419,-5.03578 13.56154,-8.78248 21.32227,-9.91015 7.76072,-1.12768 15.45466,1.44981 21.64844,5.14453 12.26742,7.31781 17.49215,21.56049 19.30859,39.37109 1.83515,17.9941 -1.19878,34.98635 -11.28711,47.24414 -4.91337,5.97001 -13.04167,10.49139 -21.11914,11.8086 -4.32332,0.70501 -10.13571,1.25835 -15.625,-0.7461 -5.48929,-2.00445 -9.3188,-4.87489 -16.28906,-9.60547 -7.95611,-5.39966 -13.01861,-7.56605 -14.76172,-7.87304 -1.74311,-0.307 -0.99778,-0.65266 -3.92774,1.59179 -3.51432,2.69208 -4.21458,2.94987 -5.82617,12.93946 -1.61159,9.98958 -2.2652,28.08386 -2.41211,58.58784 -0.0435,9.0408 -0.2513,17.3891 -0.5625,23.7461 -0.1556,3.1785 -0.33105,5.8302 -0.55859,8.0274 -0.11377,1.0986 -0.22466,2.0486 -0.44336,3.1914 -0.10935,0.5714 -0.22488,1.17 -0.54688,2.1543 -0.32196,0.9841 0.17468,2.3604 -3.82812,5.8379 -3.68758,3.2033 -5.45472,3.1443 -7.43945,3.6211 -1.98474,0.4767 -3.90026,0.7218 -6.10938,0.7109 z m -0.28125,-24.9492 c 0.0212,10e-5 0.38561,-10e-5 0.4043,0 -0.1097,-6e-4 0.21936,-0.036 0.1582,-0.021 -0.0314,0.01 -0.12513,-0.137 -0.5625,0.021 z m -5.70898,-0.012 c 0.28117,-5.8117 0.48764,-13.7976 0.52929,-22.4492 0.14811,-30.75333 0.58712,-49.1537 2.73047,-62.43948 2.14336,-13.28578 7.86012,-23.08564 15.28516,-28.77344 6.10329,-4.67534 15.02247,-7.83579 23.42773,-6.35547 8.40526,1.48033 15.46481,5.70525 24.44336,11.79883 10.46285,7.54017 15.05098,9.16587 19.75977,3.33399 3.86849,-4.70041 7.07916,-15.63508 5.73047,-28.85938 -1.49248,-14.63406 -4.439,-18.78612 -7.26953,-20.47461 -3.63627,-2.16911 -4.07337,-2.05609 -5.2793,-1.88086 -1.20593,0.17523 -4.64957,1.49793 -10.61524,5.66797 -7.85788,5.49272 -13.76313,9.25662 -20.33203,11.49219 -6.56889,2.23556 -14.03178,1.98478 -19.86328,0.11914 -10.78578,-3.45066 -19.82185,-13.90283 -23.13476,-27.41016 -3.31291,-13.50732 -3.9373,-31.31908 -3.76563,-58.86523 0.0939,-15.06055 -0.003,-25.33299 -0.23437,-32.32031 -1.59975,0.004 -2.81154,0.0225 -4.6543,0.0176 -8.49387,-0.0227 -19.34275,-0.1362 -30.21289,-0.30468 -10.87015,-0.16849 -21.74827,-0.39145 -30.29492,-0.63282 -4.27333,-0.12068 -7.95608,-0.24617 -10.82032,-0.375 -2.86423,-0.12882 -3.71765,0.0231 -6.89453,-0.54687 -9.63062,-1.72799 -17.80102,-4.36475 -24.625,-8.9375 -6.82398,-4.57276 -12.21089,-11.87332 -13.57226,-20.13672 -2.30745,-14.00804 4.61526,-24.98377 13.9375,-37.66021 3.73681,-5.0812 5.17753,-8.4496 5.46289,-9.8377 0.28536,-1.3882 0.40181,-1.1787 -0.7461,-3.17 -3.68331,-6.3894 -14.28357,-11.1207 -32.60937,-8.0371 l -0.002,0 c -3.03377,0.511 -6.45948,1.3181 -9.16797,2.1211 -2.70904,0.8032 -5.30317,2.2143 -3.92774,1.3184 -5.12134,4.04073 -5.37831,7.47817 -3.01172,12.7187 0.50495,1.1108 1.98054,3.4626 5.2461,7.7636 7.69719,10.1377 12.79886,20.09054 12.16601,31.22266 -0.63284,11.13213 -8.36406,20.58103 -18.05468,26.21289 -6.067,3.52593 -13.70167,5.75534 -24.72266,6.70118 -11.020986,0.94583 -26.468546,1.10175 -52.042966,1.03515 -10.31896,-0.0269 -19.80427,0.0795 -26.64063,0.26758 -0.32001,0.009 -0.4337,0.0221 -0.74218,0.0312 -0.12624,1.7946 -0.24085,3.06794 -0.37305,5.25781 -0.55433,9.18258 -1.14048,21.43044 -1.63867,33.83789 -0.4982,12.40745 -0.91026,24.99621 -1.1211,34.88282 -0.0971,4.55357 -0.13819,8.33292 -0.14062,11.41015 0.59602,-0.60628 1.12743,-1.02116 1.75,-1.75195 2.90927,-3.41497 5.98117,-6.6503 8.83008,-9.35156 2.8489,-2.70127 3.73997,-4.5129 9.35156,-6.93555 10.61212,-4.58152 21.0103,-1.98038 30.40625,2.31641 9.39595,4.29678 18.19473,11.05208 24.43164,20.21875 10.968096,16.12034 12.338146,36.03924 7.359376,53.24804 -4.97877,17.2088 -16.930036,33.03335 -35.341796,37.88086 -14.04129,3.69683 -28.8022,-1.19921 -41.81445,-12.09179 -1.46675,-1.22783 -2.64391,-1.98875 -3.89844,-2.86719 -0.0312,0.45218 -0.11294,0.78233 -0.13477,1.23437 -0.48038,9.95091 -0.24232,35.47763 0.37891,57.90625 0.31061,11.21435 0.70835,21.78395 1.12695,29.48635 0.0527,0.9688 0.10297,1.39 0.15625,2.2636 1.89147,0.059 3.26752,0.128 5.59766,0.1739 9.39374,0.1848 21.905,0.2625 34.52734,0.2363 12.62235,-0.026 25.37905,-0.1574 35.283206,-0.3828 3.54563,-0.081 6.13732,-0.1844 8.78906,-0.2871 -5.67338,-5.8306 -10.11793,-11.8103 -12.474606,-18.9024 -2.62274,-7.89272 -2.06757,-16.37337 0.27539,-24.248 2.942766,-9.89057 10.327006,-18.33497 19.808586,-22.80078 9.48159,-4.46582 20.56477,-5.83842 33.70118,-5.56055 10.60791,0.22437 20.01749,1.98436 28.11328,6.18359 8.09578,4.19923 14.64138,11.3143 17.74023,19.88086 2.2366,6.18292 3.11264,13.29436 1.61133,20.07808 -1.50131,6.7838 -4.80738,12.785 -9.26367,19.2969 -1.37119,2.0037 -2.29192,3.7883 -3.23828,5.5586 0.50659,0.054 0.28996,0.044 0.84765,0.088 3.06064,0.238 7.20749,0.4643 12.08594,0.6543 9.7569,0.38 22.47465,0.6221 36.12305,0.6445 23.24343,0.038 39.46686,0.069 45.66211,0.086 z m -262.611326,-0.9981 c -0.6184,-0.1699 -0.8473,-0.076 -0.9961,-0.068 0.16613,0.017 0.69544,0.045 0.9961,0.068 z m 6.98828,-98.95896 c 0.22301,-0.47598 0.14328,-0.59088 0.10351,-0.46094 -0.0159,0.0518 -0.076,0.35589 -0.10351,0.46094 z m 1.70312,-165.21289 c 0.19407,-0.6241 0.0996,-0.8456 0.10547,-0.98633 -0.0225,0.15944 -0.072,0.69462 -0.10547,0.98633 z" id="path4254" inkscape:connector-curvature="0" sodipodi:nodetypes="ccscssssssssssssssssccssccccssscssssssscssssssscssssscssssscssccssssscssccsccsssccsccsscccsssssssssssssssssssssssccccccccccssssccssssssssccssscscccscccccsssssccssscssssssssccsccccccssssssssccssccccccccccc"/> </g> </g>

</svg>