<!DOCTYPE svg PUBLIC "-//W3C//DTD SVG 1.1//EN" "http://www.w3.org/Graphics/SVG/1.1/DTD/svg11.dtd">

<!-- Uploaded to: SVG Repo, www.svgrepo.com, Transformed by: SVG Repo Mixer Tools -->
<svg width="35px" height="35px" viewBox="-8.22 0 69.999 69.999" xmlns:dc="http://purl.org/dc/elements/1.1/" xmlns:cc="http://creativecommons.org/ns#" xmlns:rdf="http://www.w3.org/1999/02/22-rdf-syntax-ns#" xmlns="http://www.w3.org/2000/svg" fill="#FFA500">

<g id="SVGRepo_bgCarrier" stroke-width="0"/>

<g id="SVGRepo_tracerCarrier" stroke-linecap="round" stroke-linejoin="round"/>

<g id="SVGRepo_iconCarrier"> <metadata> <rdf:rdf> <cc:work> <dc:subject> Data </dc:subject> <dc:identifier> sql-datasync </dc:identifier> <dc:title> SQL DataSync </dc:title> <dc:format> image/svg+xml </dc:format> <dc:publisher> Amido Limited </dc:publisher> <dc:creator> Richard Slater </dc:creator> <dc:type rdf:resource="http://purl.org/dc/dcmitype/StillImage"/> </cc:work> </rdf:rdf> </metadata> <path d="m -143.61263,567.19389 c -6.3138,-0.86087 -11.8028,-2.6884 -15.4893,-5.15706 -1.4268,-0.95549 -3.0174,-2.58188 -3.6206,-3.70225 l -0.4811,-0.89363 0,-25.36524 0,-25.36524 0.3841,-0.82046 c 0.5111,-1.09138 2.2616,-2.79437 3.8105,-3.70697 3.8741,-2.28251 9.5454,-3.88445 16.4275,-4.64012 2.2008,-0.24166 10.0607,-0.24007 12.0983,0.002 7.5986,0.90438 13.2655,2.6247 17.1721,5.213 1.3191,0.87394 2.7142,2.31108 3.196,3.29208 l 0.3916,0.79751 0.035,25.6255 0.035,25.62549 -0.3477,0.75942 c -1.6831,3.67638 -8.1915,6.69364 -17.5958,8.15733 -1.7349,0.27003 -2.5483,0.30329 -8.2488,0.3373 -4.8957,0.0292 -6.6502,-0.007 -7.7677,-0.1591 z m 9.8986,-14.55983 c 0.7184,-0.10982 1.6464,-0.29839 2.0622,-0.41905 0.9226,-0.26768 3.712,-1.58195 3.712,-1.74897 0,-0.0663 -0.5974,-0.85546 -1.3276,-1.75378 l -1.3276,-1.63331 -0.818,0.41291 c -1.9007,0.95946 -4.4424,1.27726 -6.6163,0.82724 -3.838,-0.79452 -6.9824,-3.59414 -8.1436,-7.25074 -0.3861,-1.21602 -0.6329,-3.17038 -0.5146,-4.07525 l 0.085,-0.65059 3.2085,-0.0368 3.2085,-0.0368 -3.7865,-4.60561 c -2.0826,-2.53309 -3.8754,-4.69714 -3.9841,-4.80901 -0.1733,-0.17828 -0.7917,0.39045 -5.0084,4.60561 l -4.8107,4.80901 3.3935,0.0687 3.3936,0.0687 -0.032,0.89363 c -0.045,1.25346 0.2269,3.29554 0.6217,4.67385 2.0623,7.1993 9.2562,11.79577 16.6842,10.66022 z m 15.7425,-13.51513 -2.9567,-0.037 0,-1.20028 c 0,-4.81916 -2.2406,-9.2732 -6.1129,-12.16384 -2.2666,-1.69202 -4.5472,-2.56196 -7.5321,-2.87309 -2.7998,-0.29185 -5.2867,0.14779 -7.9152,1.39928 l -1.4197,0.67596 1.396,1.7188 1.3961,1.71881 0.6899,-0.3496 c 1.8961,-0.96084 5.0456,-1.23978 7.1662,-0.63468 3.7883,1.08093 6.6268,3.9023 7.6535,7.60728 0.3216,1.16064 0.4947,2.89197 0.3606,3.60686 l -0.093,0.49546 -3.6951,0.0366 -3.6951,0.0366 4.0003,4.8554 4.0003,4.8554 4.8571,-4.8554 4.857,-4.8554 -2.9568,-0.0371 z m -12.3152,-26.90848 c 7.7206,-0.79216 12.8184,-2.92048 12.8184,-5.35165 0,-1.49705 -1.5155,-2.69359 -4.8035,-3.79246 -8.5508,-2.85779 -23.9204,-2.43634 -30.4146,0.834 -1.3289,0.66924 -1.8982,1.10259 -2.3688,1.80338 -0.4302,0.64055 -0.5006,1.40741 -0.1851,2.01745 1.1844,2.29041 7.0249,4.12579 14.9272,4.69089 2.2519,0.16104 7.5254,0.055 10.0264,-0.20161 z" fill="#FFA500" transform="translate(163.204 -497.363)"/> </g>

</svg>