<!DOCTYPE svg PUBLIC "-//W3C//DTD SVG 1.1//EN" "http://www.w3.org/Graphics/SVG/1.1/DTD/svg11.dtd">

<!-- Uploaded to: SVG Repo, www.svgrepo.com, Transformed by: SVG Repo Mixer Tools -->
<svg fill="#FFA500" width="35px" height="35px" viewBox="0 0 16 16" xmlns="http://www.w3.org/2000/svg">

<g id="SVGRepo_bgCarrier" stroke-width="0"/>

<g id="SVGRepo_tracerCarrier" stroke-linecap="round" stroke-linejoin="round"/>

<g id="SVGRepo_iconCarrier"> <path d="m7 7.88c2.18 0 3.94-1.76 3.94-3.94s-1.76-3.94-3.94-3.94c-2.17 0-3.94 1.76-3.94 3.94 0 2.17 1.77 3.94 3.94 3.94zm1.09 3.24c-.26-.52-.17-1.17.26-1.6l.28-.27c.05-.05.12-.08.18-.12h-4.31c-2.48.01-4.5 2.02-4.5 4.5 0 .12.01.25.03.38h7.95c-.44-.23-.74-.68-.74-1.21v-.4c0-.57.35-1.07.85-1.28zm6.76.7h-.98c-.06-.19-.14-.36-.24-.53l.65-.65c.15-.15.15-.4 0-.55l-.27-.27c-.15-.15-.4-.15-.55 0l-.66.66c-.18-.1-.37-.18-.58-.23v-.86c0-.21-.17-.39-.39-.39h-.39c-.21 0-.39.17-.39.39v.85c-.22.06-.43.15-.63.26l-.54-.54c-.15-.15-.4-.15-.55 0l-.28.27c-.15.15-.15.4 0 .55l.56.56c-.12.21-.21.43-.26.67h-.72c-.22 0-.39.17-.39.39v.39c0 .21.17.39.39.39h.78c.07.23.18.45.31.65l-.53.53c-.15.15-.15.4 0 .55l.27.27c.15.15.4.15.55 0l.59-.59c.2.1.41.17.64.21v.81c0 .21.17.39.39.39h.39c.21 0 .39-.17.39-.39v-.91c.2-.07.38-.16.55-.28l.63.63c.15.15.4.15.55 0l.27-.27c.15-.15.15-.4 0-.55l-.69-.69c.08-.17.15-.35.19-.55h.93c.22 0 .39-.17.39-.39v-.39c.01-.22-.17-.39-.38-.39zm-3.21 1.65c-.54 0-.97-.43-.97-.97s.44-.97.97-.97c.54 0 .97.43.97.97s-.43.97-.97.97z"/> </g>

</svg>