<!DOCTYPE svg PUBLIC "-//W3C//DTD SVG 1.1//EN" "http://www.w3.org/Graphics/SVG/1.1/DTD/svg11.dtd">

<!-- Uploaded to: SVG Repo, www.svgrepo.com, Transformed by: SVG Repo Mixer Tools -->
<svg width="35px" height="35px" viewBox="0 0 24 24" fill="none" xmlns="http://www.w3.org/2000/svg">

<g id="SVGRepo_bgCarrier" stroke-width="0"/>

<g id="SVGRepo_tracerCarrier" stroke-linecap="round" stroke-linejoin="round"/>

<g id="SVGRepo_iconCarrier"> <path d="M21.2 22C21.48 22 21.62 22 21.727 21.9455C21.8211 21.8976 21.8976 21.8211 21.9455 21.727C22 21.62 22 21.48 22 21.2V10.8C22 10.52 22 10.38 21.9455 10.273C21.8976 10.1789 21.8211 10.1024 21.727 10.0545C21.62 10 21.48 10 21.2 10L18.8 10C18.52 10 18.38 10 18.273 10.0545C18.1789 10.1024 18.1024 10.1789 18.0545 10.273C18 10.38 18 10.52 18 10.8V13.2C18 13.48 18 13.62 17.9455 13.727C17.8976 13.8211 17.8211 13.8976 17.727 13.9455C17.62 14 17.48 14 17.2 14H14.8C14.52 14 14.38 14 14.273 14.0545C14.1789 14.1024 14.1024 14.1789 14.0545 14.273C14 14.38 14 14.52 14 14.8V17.2C14 17.48 14 17.62 13.9455 17.727C13.8976 17.8211 13.8211 17.8976 13.727 17.9455C13.62 18 13.48 18 13.2 18H10.8C10.52 18 10.38 18 10.273 18.0545C10.1789 18.1024 10.1024 18.1789 10.0545 18.273C10 18.38 10 18.52 10 18.8V21.2C10 21.48 10 21.62 10.0545 21.727C10.1024 21.8211 10.1789 21.8976 10.273 21.9455C10.38 22 10.52 22 10.8 22L21.2 22Z" stroke="#FFA500" stroke-width="2" stroke-linecap="round" stroke-linejoin="round"/> <path d="M10 6.8C10 6.51997 10 6.37996 10.0545 6.273C10.1024 6.17892 10.1789 6.10243 10.273 6.0545C10.38 6 10.52 6 10.8 6H13.2C13.48 6 13.62 6 13.727 6.0545C13.8211 6.10243 13.8976 6.17892 13.9455 6.273C14 6.37996 14 6.51997 14 6.8V9.2C14 9.48003 14 9.62004 13.9455 9.727C13.8976 9.82108 13.8211 9.89757 13.727 9.9455C13.62 10 13.48 10 13.2 10H10.8C10.52 10 10.38 10 10.273 9.9455C10.1789 9.89757 10.1024 9.82108 10.0545 9.727C10 9.62004 10 9.48003 10 9.2V6.8Z" stroke="#FFA500" stroke-width="2" stroke-linecap="round" stroke-linejoin="round"/> <path d="M3 12.8C3 12.52 3 12.38 3.0545 12.273C3.10243 12.1789 3.17892 12.1024 3.273 12.0545C3.37996 12 3.51997 12 3.8 12H6.2C6.48003 12 6.62004 12 6.727 12.0545C6.82108 12.1024 6.89757 12.1789 6.9455 12.273C7 12.38 7 12.52 7 12.8V15.2C7 15.48 7 15.62 6.9455 15.727C6.89757 15.8211 6.82108 15.8976 6.727 15.9455C6.62004 16 6.48003 16 6.2 16H3.8C3.51997 16 3.37996 16 3.273 15.9455C3.17892 15.8976 3.10243 15.8211 3.0545 15.727C3 15.62 3 15.48 3 15.2V12.8Z" stroke="#FFA500" stroke-width="2" stroke-linecap="round" stroke-linejoin="round"/> <path d="M2 2.8C2 2.51997 2 2.37996 2.0545 2.273C2.10243 2.17892 2.17892 2.10243 2.273 2.0545C2.37996 2 2.51997 2 2.8 2H5.2C5.48003 2 5.62004 2 5.727 2.0545C5.82108 2.10243 5.89757 2.17892 5.9455 2.273C6 2.37996 6 2.51997 6 2.8V5.2C6 5.48003 6 5.62004 5.9455 5.727C5.89757 5.82108 5.82108 5.89757 5.727 5.9455C5.62004 6 5.48003 6 5.2 6H2.8C2.51997 6 2.37996 6 2.273 5.9455C2.17892 5.89757 2.10243 5.82108 2.0545 5.727C2 5.62004 2 5.48003 2 5.2V2.8Z" stroke="#FFA500" stroke-width="2" stroke-linecap="round" stroke-linejoin="round"/> </g>

</svg>