<!DOCTYPE svg PUBLIC "-//W3C//DTD SVG 1.1//EN" "http://www.w3.org/Graphics/SVG/1.1/DTD/svg11.dtd">

<!-- Uploaded to: SVG Repo, www.svgrepo.com, Transformed by: SVG Repo Mixer Tools -->
<svg width="35px" height="35px" viewBox="0 0 48 48" xmlns="http://www.w3.org/2000/svg" fill="#FFA500">

<g id="SVGRepo_bgCarrier" stroke-width="0"/>

<g id="SVGRepo_tracerCarrier" stroke-linecap="round" stroke-linejoin="round"/>

<g id="SVGRepo_iconCarrier"> <title>opsgenie</title> <g id="Layer_2" data-name="Layer 2"> <g id="invisible_box" data-name="invisible box"> <rect width="48" height="48" fill="none"/> </g> <g id="Q3_icons" data-name="Q3 icons"> <g> <circle cx="23.9" cy="12.7" r="10.7"/> <path d="M33.8,38.6a49.2,49.2,0,0,0,8.5-11.2.6.6,0,0,0-.3-.9l-8.8-4.6c-.4-.2-.8-.1-.9.2A35.8,35.8,0,0,1,23.9,32a37.3,37.3,0,0,1-8.3-9.9.7.7,0,0,0-.9-.2L5.9,26.5a.6.6,0,0,0-.3.9A52,52,0,0,0,14,38.6h.2A44.7,44.7,0,0,0,23.9,46a42.8,42.8,0,0,0,9.8-7.3h.1Z"/> </g> </g> </g> </g>

</svg>