<!DOCTYPE svg PUBLIC "-//W3C//DTD SVG 1.1//EN" "http://www.w3.org/Graphics/SVG/1.1/DTD/svg11.dtd">

<!-- Uploaded to: SVG Repo, www.svgrepo.com, Transformed by: SVG Repo Mixer Tools -->
<svg width="35px" height="35px" viewBox="0 0 24 24" fill="none" xmlns="http://www.w3.org/2000/svg">

<g id="SVGRepo_bgCarrier" stroke-width="0"/>

<g id="SVGRepo_tracerCarrier" stroke-linecap="round" stroke-linejoin="round"/>

<g id="SVGRepo_iconCarrier"> <path d="M2.5 15.1C2.5 14.5399 2.5 14.2599 2.60899 14.046C2.70487 13.8578 2.85785 13.7049 3.04601 13.609C3.25992 13.5 3.53995 13.5 4.1 13.5H4.33707C4.58173 13.5 4.70406 13.5 4.81917 13.5276C4.92123 13.5522 5.0188 13.5926 5.10829 13.6474C5.20922 13.7093 5.2957 13.7958 5.46867 13.9689L5.53126 14.0315C5.70425 14.2045 5.79074 14.2911 5.89169 14.3529C5.9812 14.4078 6.07878 14.4482 6.18086 14.4727C6.29599 14.5004 6.41834 14.5004 6.66304 14.5003L7.89982 14.5002C8.45993 14.5001 8.73998 14.5001 8.95392 14.6091C9.1421 14.7049 9.2951 14.8579 9.39099 15.0461C9.5 15.26 9.5 15.5401 9.5 16.1002V17.9C9.5 18.4601 9.5 18.7401 9.39101 18.954C9.29513 19.1422 9.14215 19.2951 8.95399 19.391C8.74008 19.5 8.46005 19.5 7.9 19.5H4.1C3.53995 19.5 3.25992 19.5 3.04601 19.391C2.85785 19.2951 2.70487 19.1422 2.60899 18.954C2.5 18.7401 2.5 18.4601 2.5 17.9V15.1Z" stroke="#FFA500"/> <path d="M14.5 15.1C14.5 14.5399 14.5 14.2599 14.609 14.046C14.7049 13.8578 14.8578 13.7049 15.046 13.609C15.2599 13.5 15.5399 13.5 16.1 13.5H16.3371C16.5817 13.5 16.7041 13.5 16.8192 13.5276C16.9212 13.5522 17.0188 13.5926 17.1083 13.6474C17.2092 13.7093 17.2957 13.7958 17.4687 13.9689L17.5313 14.0315C17.7042 14.2045 17.7907 14.2911 17.8917 14.3529C17.9812 14.4078 18.0788 14.4482 18.1809 14.4727C18.296 14.5004 18.4183 14.5004 18.663 14.5003L19.8998 14.5002C20.4599 14.5001 20.74 14.5001 20.9539 14.6091C21.1421 14.7049 21.2951 14.8579 21.391 15.0461C21.5 15.26 21.5 15.5401 21.5 16.1002V17.9C21.5 18.4601 21.5 18.7401 21.391 18.954C21.2951 19.1422 21.1422 19.2951 20.954 19.391C20.7401 19.5 20.4601 19.5 19.9 19.5H16.1C15.5399 19.5 15.2599 19.5 15.046 19.391C14.8578 19.2951 14.7049 19.1422 14.609 18.954C14.5 18.7401 14.5 18.4601 14.5 17.9V15.1Z" stroke="#FFA500"/> <path d="M3.5 12.5V10.1C3.5 9.53995 3.5 9.25992 3.60899 9.04601C3.70487 8.85785 3.85785 8.70487 4.04601 8.60899C4.25992 8.5 4.53995 8.5 5.1 8.5H7M7 8.5L5.5 7M7 8.5L5.5 10" stroke="#FFA500"/> <path d="M20.5 12.5V10.1C20.5 9.53995 20.5 9.25992 20.391 9.04601C20.2951 8.85785 20.1422 8.70487 19.954 8.60899C19.7401 8.5 19.4601 8.5 18.9 8.5H17M17 8.5L18.5 7M17 8.5L18.5 10" stroke="#FFA500"/> <path d="M8.5 6.1C8.5 5.53995 8.5 5.25992 8.60899 5.04601C8.70487 4.85785 8.85785 4.70487 9.04601 4.60899C9.25992 4.5 9.53995 4.5 10.1 4.5H10.3371C10.5817 4.5 10.7041 4.5 10.8192 4.52764C10.9212 4.55215 11.0188 4.59258 11.1083 4.64743C11.2092 4.70931 11.2957 4.79582 11.4687 4.96886L11.5313 5.03147C11.7042 5.20453 11.7907 5.29106 11.8917 5.35294C11.9812 5.4078 12.0788 5.44822 12.1809 5.47273C12.296 5.50037 12.4183 5.50035 12.663 5.50033L13.8998 5.50018C14.4599 5.50012 14.74 5.50009 14.9539 5.60907C15.1421 5.70494 15.2951 5.85792 15.391 6.04609C15.5 6.26002 15.5 6.54007 15.5 7.10018V8.9C15.5 9.46005 15.5 9.74008 15.391 9.95399C15.2951 10.1422 15.1422 10.2951 14.954 10.391C14.7401 10.5 14.4601 10.5 13.9 10.5H10.1C9.53995 10.5 9.25992 10.5 9.04601 10.391C8.85785 10.2951 8.70487 10.1422 8.60899 9.95399C8.5 9.74008 8.5 9.46005 8.5 8.9V6.1Z" stroke="#FFA500"/> </g>

</svg>