<?xml version="1.0" encoding="UTF-8" standalone="no"?>
<!-- Uploaded to: SVG Repo, www.svgrepo.com, Generator: SVG Repo Mixer Tools -->
<svg width="800px" height="800px" viewBox="0 0 20 20" version="1.1" xmlns="http://www.w3.org/2000/svg" xmlns:xlink="http://www.w3.org/1999/xlink">
    
    <title>python [#127]</title>
    <desc>Created with Sketch.</desc>
    <defs>

</defs>
    <g id="Page-1" stroke="none" stroke-width="1" fill="none" fill-rule="evenodd">
        <g id="Dribbble-Light-Preview" transform="translate(-340.000000, -7599.000000)" fill="#FF6310">
            <g id="icons" transform="translate(56.000000, 160.000000)">
                <path d="M296.744,7457.45798 C296.262,7457.45798 295.872,7457.06594 295.872,7456.58142 C295.872,7456.0969 296.262,7455.70587 296.744,7455.70587 C297.226,7455.70587 297.616,7456.0969 297.616,7456.58142 C297.616,7457.06594 297.226,7457.45798 296.744,7457.45798 M294.072,7459 C299.15,7459 298.833,7456.78649 298.833,7456.78649 L298.827,7454.49357 L293.982,7454.49357 L293.982,7453.80499 L300.751,7453.80499 C300.751,7453.80499 304,7454.17591 304,7449.02614 C304,7443.87636 301.165,7444.0583 301.165,7444.0583 L299.472,7444.0583 L299.472,7446.44873 C299.472,7446.44873 299.563,7449.29855 296.682,7449.29855 L291.876,7449.29855 C291.876,7449.29855 289.176,7449.25533 289.176,7451.9222 L289.176,7456.33112 C289.176,7456.33112 288.766,7459 294.072,7459 M291.257,7440.54202 C291.739,7440.54202 292.128,7440.93406 292.128,7441.41858 C292.128,7441.9031 291.739,7442.29413 291.257,7442.29413 C290.775,7442.29413 290.385,7441.9031 290.385,7441.41858 C290.385,7440.93406 290.775,7440.54202 291.257,7440.54202 M293.928,7439 C288.851,7439 289.168,7441.21351 289.168,7441.21351 L289.174,7443.50643 L294.019,7443.50643 L294.019,7444.19501 L287.249,7444.19501 C287.249,7444.19501 284,7443.82409 284,7448.97386 C284,7454.12364 286.836,7453.9417 286.836,7453.9417 L288.528,7453.9417 L288.528,7451.55127 C288.528,7451.55127 288.437,7448.70145 291.319,7448.70145 L296.124,7448.70145 C296.124,7448.70145 298.824,7448.74467 298.824,7446.0778 L298.824,7441.66888 C298.824,7441.66888 299.234,7439 293.928,7439" id="python-[#127]">

</path>
            </g>
        </g>
    </g>
</svg>