<!DOCTYPE svg PUBLIC "-//W3C//DTD SVG 1.1//EN" "http://www.w3.org/Graphics/SVG/1.1/DTD/svg11.dtd">

<!-- Uploaded to: SVG Repo, www.svgrepo.com, Transformed by: SVG Repo Mixer Tools -->
<svg width="35px" height="35px" viewBox="0 0 24 24" fill="none" xmlns="http://www.w3.org/2000/svg">

<g id="SVGRepo_bgCarrier" stroke-width="0"/>

<g id="SVGRepo_tracerCarrier" stroke-linecap="round" stroke-linejoin="round"/>

<g id="SVGRepo_iconCarrier"> <path fill-rule="evenodd" clip-rule="evenodd" d="M10 1C9.73478 1 9.48043 1.10536 9.29289 1.29289L3.29289 7.29289C3.10536 7.48043 3 7.73478 3 8V20C3 21.6569 4.34315 23 6 23H11C11.5523 23 12 22.5523 12 22C12 21.4477 11.5523 21 11 21H6C5.44772 21 5 20.5523 5 20V9H10C10.5523 9 11 8.55228 11 8V3H18C18.5523 3 19 3.44772 19 4V8C19 8.55228 19.4477 9 20 9C20.5523 9 21 8.55228 21 8V4C21 2.34315 19.6569 1 18 1H10ZM9 7H6.41421L9 4.41421V7ZM14.5 10C13.6716 10 13 10.6716 13 11.5C13 12.3284 13.6716 13 14.5 13H15C15.5523 13 16 12.5523 16 12H17C17.5523 12 18 12.4477 18 13C18 13.5523 17.5523 14 17 14H14C12.3431 14 11 15.3431 11 17V18C11 18.5523 11.4477 19 12 19C12.5523 19 13 18.5523 13 18V17C13 16.4477 13.4477 16 14 16H17C18.6569 16 20 14.6569 20 13C20 11.3431 18.6569 10 17 10H14.5ZM23 15C23 14.4477 22.5523 14 22 14C21.4477 14 21 14.4477 21 15V16C21 16.5523 20.5523 17 20 17H17C15.3431 17 14 18.3431 14 20C14 21.6569 15.3431 23 17 23H19.5C20.3284 23 21 22.3284 21 21.5C21 20.6716 20.3284 20 19.5 20H19C18.4477 20 18 20.4477 18 21H17C16.4477 21 16 20.5523 16 20C16 19.4477 16.4477 19 17 19H20C21.6569 19 23 17.6569 23 16V15Z" fill="#FFA500"/> </g>

</svg>