<!DOCTYPE svg PUBLIC "-//W3C//DTD SVG 1.1//EN" "http://www.w3.org/Graphics/SVG/1.1/DTD/svg11.dtd">

<!-- Uploaded to: SVG Repo, www.svgrepo.com, Transformed by: SVG Repo Mixer Tools -->
<svg fill="#FFA500" width="35px" height="35px" viewBox="0 0 16 16" id="request-send-16px" xmlns="http://www.w3.org/2000/svg">

<g id="SVGRepo_bgCarrier" stroke-width="0"/>

<g id="SVGRepo_tracerCarrier" stroke-linecap="round" stroke-linejoin="round"/>

<g id="SVGRepo_iconCarrier"> <path id="Path_44" data-name="Path 44" d="M-18,11a2,2,0,0,0,2-2,2,2,0,0,0-2-2,2,2,0,0,0-2,2A2,2,0,0,0-18,11Zm0-3a1,1,0,0,1,1,1,1,1,0,0,1-1,1,1,1,0,0,1-1-1A1,1,0,0,1-18,8Zm2.5,4h-5A2.5,2.5,0,0,0-23,14.5,1.5,1.5,0,0,0-21.5,16h7A1.5,1.5,0,0,0-13,14.5,2.5,2.5,0,0,0-15.5,12Zm1,3h-7a.5.5,0,0,1-.5-.5A1.5,1.5,0,0,1-20.5,13h5A1.5,1.5,0,0,1-14,14.5.5.5,0,0,1-14.5,15ZM-7,2.5v5A2.5,2.5,0,0,1-9.5,10h-2.793l-1.853,1.854A.5.5,0,0,1-14.5,12a.493.493,0,0,1-.191-.038A.5.5,0,0,1-15,11.5v-2a.5.5,0,0,1,.5-.5.5.5,0,0,1,.5.5v.793l1.146-1.147A.5.5,0,0,1-12.5,9h3A1.5,1.5,0,0,0-8,7.5v-5A1.5,1.5,0,0,0-9.5,1h-7A1.5,1.5,0,0,0-18,2.5v3a.5.5,0,0,1-.5.5.5.5,0,0,1-.5-.5v-3A2.5,2.5,0,0,1-16.5,0h7A2.5,2.5,0,0,1-7,2.5Zm-7.854,3.646L-12.707,4H-14.5a.5.5,0,0,1-.5-.5.5.5,0,0,1,.5-.5h3a.5.5,0,0,1,.191.038.506.506,0,0,1,.271.271A.5.5,0,0,1-11,3.5v3a.5.5,0,0,1-.5.5.5.5,0,0,1-.5-.5V4.707l-2.146,2.147A.5.5,0,0,1-14.5,7a.5.5,0,0,1-.354-.146A.5.5,0,0,1-14.854,6.146Z" transform="translate(23)"/> </g>

</svg>