<!DOCTYPE svg PUBLIC "-//W3C//DTD SVG 1.1//EN" "http://www.w3.org/Graphics/SVG/1.1/DTD/svg11.dtd">

<!-- Uploaded to: SVG Repo, www.svgrepo.com, Transformed by: SVG Repo Mixer Tools -->
<svg width="35px" height="35px" viewBox="0 0 24 24" fill="none" xmlns="http://www.w3.org/2000/svg">

<g id="SVGRepo_bgCarrier" stroke-width="0"/>

<g id="SVGRepo_tracerCarrier" stroke-linecap="round" stroke-linejoin="round"/>

<g id="SVGRepo_iconCarrier"> <path d="M7.36 14.11C7.36 14.4423 7.26147 14.7671 7.07687 15.0434C6.89227 15.3196 6.62989 15.535 6.32291 15.6621C6.01593 15.7893 5.67814 15.8225 5.35225 15.7577C5.02636 15.6929 4.72701 15.5329 4.49206 15.2979C4.25711 15.063 4.0971 14.7636 4.03228 14.4378C3.96746 14.1119 4.00073 13.7741 4.12788 13.4671C4.25504 13.1601 4.47037 12.8977 4.74664 12.7131C5.02292 12.5285 5.34773 12.43 5.68 12.43H7.36V14.11ZM8.21 14.11C8.21 13.6644 8.387 13.2371 8.70206 12.9221C9.01712 12.607 9.44444 12.43 9.89 12.43C10.3356 12.43 10.7629 12.607 11.0779 12.9221C11.393 13.2371 11.57 13.6644 11.57 14.11V18.32C11.57 18.7656 11.393 19.1929 11.0779 19.5079C10.7629 19.823 10.3356 20 9.89 20C9.44444 20 9.01712 19.823 8.70206 19.5079C8.387 19.1929 8.21 18.7656 8.21 18.32V14.11ZM9.89 7.36C9.55773 7.36 9.23292 7.26147 8.95664 7.07687C8.68037 6.89227 8.46504 6.62989 8.33788 6.32291C8.21073 6.01593 8.17746 5.67814 8.24228 5.35225C8.3071 5.02636 8.46711 4.72701 8.70206 4.49206C8.93701 4.25711 9.23636 4.0971 9.56225 4.03228C9.88814 3.96746 10.2259 4.00073 10.5329 4.12788C10.8399 4.25504 11.1023 4.47037 11.2869 4.74664C11.4715 5.02292 11.57 5.34773 11.57 5.68V7.36H9.89ZM9.89 8.21C10.3356 8.21 10.7629 8.387 11.0779 8.70206C11.393 9.01712 11.57 9.44444 11.57 9.89C11.57 10.3356 11.393 10.7629 11.0779 11.0779C10.7629 11.393 10.3356 11.57 9.89 11.57H5.68C5.23444 11.57 4.80712 11.393 4.49206 11.0779C4.177 10.7629 4 10.3356 4 9.89C4 9.44444 4.177 9.01712 4.49206 8.70206C4.80712 8.387 5.23444 8.21 5.68 8.21H9.89ZM16.64 9.89C16.64 9.55773 16.7385 9.23292 16.9231 8.95664C17.1077 8.68037 17.3701 8.46504 17.6771 8.33788C17.9841 8.21073 18.3219 8.17746 18.6478 8.24228C18.9736 8.3071 19.273 8.46711 19.5079 8.70206C19.7429 8.93701 19.9029 9.23636 19.9677 9.56225C20.0325 9.88814 19.9993 10.2259 19.8721 10.5329C19.745 10.8399 19.5296 11.1023 19.2534 11.2869C18.9771 11.4715 18.6523 11.57 18.32 11.57H16.64V9.89ZM15.79 9.89C15.79 10.3356 15.613 10.7629 15.2979 11.0779C14.9829 11.393 14.5556 11.57 14.11 11.57C13.6644 11.57 13.2371 11.393 12.9221 11.0779C12.607 10.7629 12.43 10.3356 12.43 9.89V5.68C12.43 5.23444 12.607 4.80712 12.9221 4.49206C13.2371 4.177 13.6644 4 14.11 4C14.5556 4 14.9829 4.177 15.2979 4.49206C15.613 4.80712 15.79 5.23444 15.79 5.68V9.89ZM14.11 16.64C14.4423 16.64 14.7671 16.7385 15.0434 16.9231C15.3196 17.1077 15.535 17.3701 15.6621 17.6771C15.7893 17.9841 15.8225 18.3219 15.7577 18.6478C15.6929 18.9736 15.5329 19.273 15.2979 19.5079C15.063 19.7429 14.7636 19.9029 14.4378 19.9677C14.1119 20.0325 13.7741 19.9993 13.4671 19.8721C13.1601 19.745 12.8977 19.5296 12.7131 19.2534C12.5285 18.9771 12.43 18.6523 12.43 18.32V16.64H14.11ZM14.11 15.79C13.6644 15.79 13.2371 15.613 12.9221 15.2979C12.607 14.9829 12.43 14.5556 12.43 14.11C12.43 13.6644 12.607 13.2371 12.9221 12.9221C13.2371 12.607 13.6644 12.43 14.11 12.43H18.32C18.7656 12.43 19.1929 12.607 19.5079 12.9221C19.823 13.2371 20 13.6644 20 14.11C20 14.5556 19.823 14.9829 19.5079 15.2979C19.1929 15.613 18.7656 15.79 18.32 15.79H14.11Z" fill="#FFA500"/> </g>

</svg>