<!DOCTYPE svg PUBLIC "-//W3C//DTD SVG 1.1//EN" "http://www.w3.org/Graphics/SVG/1.1/DTD/svg11.dtd">

<!-- Uploaded to: SVG Repo, www.svgrepo.com, Transformed by: SVG Repo Mixer Tools -->
<svg fill="#FFA500" height="35px" width="35px" version="1.1" id="Layer_1" xmlns="http://www.w3.org/2000/svg" xmlns:xlink="http://www.w3.org/1999/xlink" viewBox="0 0 512 512" xml:space="preserve">

<g id="SVGRepo_bgCarrier" stroke-width="0"/>

<g id="SVGRepo_tracerCarrier" stroke-linecap="round" stroke-linejoin="round"/>

<g id="SVGRepo_iconCarrier"> <g> <g> <path d="M498.422,432.864l-82.473-82.474c23.997-36.525,36.886-79.255,36.886-123.972c0-60.478-23.551-117.337-66.316-160.101 C343.754,23.552,286.896,0,226.418,0S109.081,23.552,66.316,66.315C23.552,109.081,0,165.938,0,226.417 c0,60.479,23.551,117.337,66.315,160.101c42.765,42.764,99.623,66.315,160.101,66.315c44.717,0,87.448-12.889,123.972-36.886 l82.474,82.474C441.618,507.178,453.26,512,465.642,512c12.382,0,24.024-4.822,32.779-13.578 c8.756-8.755,13.578-20.396,13.578-32.779S507.178,441.619,498.422,432.864z M226.418,422.417c-108.075,0-196-87.926-196-196 c0-108.075,87.925-196,196-196s196,87.925,196,196S334.493,422.417,226.418,422.417z M476.914,476.913 c-3.01,3.01-7.013,4.668-11.271,4.668s-8.26-1.659-11.271-4.668l-79.52-79.52c1.878-1.634,3.727-3.309,5.558-5.012 c0.223-0.207,0.445-0.413,0.667-0.621c1.834-1.719,3.654-3.458,5.44-5.244c1.786-1.786,3.526-3.605,5.245-5.441 c0.207-0.221,0.413-0.444,0.62-0.666c1.702-1.831,3.377-3.682,5.012-5.559l79.52,79.52c3.01,3.011,4.668,7.013,4.668,11.271 S479.924,473.902,476.914,476.913z"/> </g> </g> <g> <g> <path d="M225.481,47.918c-97.909,0-177.564,79.656-177.564,177.564s79.655,177.563,177.564,177.563 s177.564-79.655,177.564-177.563S323.39,47.918,225.481,47.918z M225.481,372.627c-81.137,0-147.146-66.009-147.146-147.145 S144.344,78.335,225.481,78.335s147.146,66.01,147.146,147.146S306.618,372.627,225.481,372.627z"/> </g> </g> <g> <g> <path d="M237.243,129.36v29.485h-53.942v29.485H129.36v133.272h53.942h30.418h23.524h30.418h53.942V129.36H237.243z M183.302,291.185h-23.524v-22.984h23.524V291.185z M183.302,237.782h-23.524v-19.035h23.524V237.782z M237.243,291.185H213.72 v-52.469h23.524V291.185z M237.243,208.298H213.72v-19.034h23.524V208.298z M291.185,291.185h-23.524V209.23h23.524V291.185z M291.185,178.812h-23.524v-19.034h23.524V178.812z"/> </g> </g> </g>

</svg>