<?xml version="1.0" encoding="utf-8"?>

<!DOCTYPE svg PUBLIC "-//W3C//DTD SVG 1.1//EN" "http://www.w3.org/Graphics/SVG/1.1/DTD/svg11.dtd">
<!-- Uploaded to: SVG Repo, www.svgrepo.com, Generator: SVG Repo Mixer Tools -->
<svg width="800px" height="800px" viewBox="0 0 16 16" version="1.1" xmlns="http://www.w3.org/2000/svg" xmlns:xlink="http://www.w3.org/1999/xlink">
<path fill="#ff6310" d="M0 1v15h16v-15h-16zM5 15h-4v-2h4v2zM5 12h-4v-2h4v2zM5 9h-4v-2h4v2zM5 6h-4v-2h4v2zM10 15h-4v-2h4v2zM10 12h-4v-2h4v2zM10 9h-4v-2h4v2zM10 6h-4v-2h4v2zM15 15h-4v-2h4v2zM15 12h-4v-2h4v2zM15 9h-4v-2h4v2zM15 6h-4v-2h4v2z"></path>
</svg>