<!DOCTYPE svg PUBLIC "-//W3C//DTD SVG 1.1//EN" "http://www.w3.org/Graphics/SVG/1.1/DTD/svg11.dtd">

<!-- Uploaded to: SVG Repo, www.svgrepo.com, Transformed by: SVG Repo Mixer Tools -->
<svg fill="#FF6310" width="35px" height="35px" viewBox="0 0 512 512" xmlns="http://www.w3.org/2000/svg">

<g id="SVGRepo_bgCarrier" stroke-width="0"/>

<g id="SVGRepo_tracerCarrier" stroke-linecap="round" stroke-linejoin="round"/>

<g id="SVGRepo_iconCarrier"> <g id="Knowledge"> <path d="M397.5765,258.8732,269.125,287.3982v183.75l134.0506-29.8367A13.0954,13.0954,0,0,0,413.5,428.5358V271.6478A13.0751,13.0751,0,0,0,397.5765,258.8732Zm-18.4634,141.75-70,15.5753c-16.7352,3.5675-22.5757-21.6251-5.6866-25.6369l70-15.5753C390.3091,371.5209,395.9274,396.6024,379.1131,400.6227Zm0-61.25-70,15.5753c-16.7352,3.5675-22.5757-21.6251-5.6866-25.6369l70-15.5753C390.3091,310.2709,395.9274,335.3524,379.1131,339.3727Z"/> <path d="M98.5,271.6478v156.888a13.0193,13.0193,0,0,0,10.239,12.7757l134.136,29.8367v-183.75l-128.4494-28.525A13.0427,13.0427,0,0,0,98.5,271.6478Zm39.9881,40.3385,70,15.5752a13.13,13.13,0,1,1-5.6866,25.6369l-70-15.5752C116.0214,333.6135,121.5692,308.52,138.4881,311.9863Zm0,61.25,70,15.5752a13.13,13.13,0,1,1-5.6866,25.6369l-70-15.5752C116.0214,394.8635,121.5692,369.77,138.4881,373.2363Z"/> <path d="M295.375,198.4114h-78.75C211.0644,262.2762,300.8758,262.3157,295.375,198.4114Z"/> <path d="M223.8006,172.1614H288.114l16.8869-23.9749a59.9765,59.9765,0,0,0-6.7377-76.65c-52.5556-50.1672-131.6495,16.2162-91.2619,76.65Z"/> <path d="M339.0823,176.9979c4.3088,2.01,15.4449,10.3991,20.4309,9.7786,13.0267.3108,18.1793-18.0822,6.571-24.4941l-13.8769-8.014C337.134,145.8773,324.2867,168.125,339.0823,176.9979Z"/> <path d="M159.7415,154.263l-13.8855,8.0152c-11.6126,6.4161-6.4515,24.8005,6.571,24.4983,5.0458.5928,16.06-7.7524,20.44-9.7744C187.662,168.1154,174.8254,145.9082,159.7415,154.263Z"/> <path d="M346.3967,113.8626a13.1256,13.1256,0,0,0,13.125,13.125h16.0218c17.2522-.2916,17.2479-25.9584,0-26.25H359.5217A13.1257,13.1257,0,0,0,346.3967,113.8626Z"/> <path d="M136.4053,126.9876H152.427c17.2522-.2916,17.2479-25.9584,0-26.25H136.4053a13.125,13.125,0,0,0,0,26.25Z"/> <path d="M345.6533,75.2182c5.0458.5907,16.0517-7.7566,20.4309-9.7786,14.802-8.876,1.94-31.1206-13.125-22.73l-13.8769,8.0151C327.4676,57.1361,332.633,75.5258,345.6533,75.2182Z"/> <path d="M145.856,65.4439c4.3087,2.01,15.4513,10.397,20.4394,9.7743,13.0289.3066,18.1793-18.0842,6.5711-24.4983l-13.8855-8.014C143.8928,34.34,131.0668,56.5647,145.856,65.4439Z"/> </g> </g>

</svg>