<!DOCTYPE svg PUBLIC "-//W3C//DTD SVG 1.1//EN" "http://www.w3.org/Graphics/SVG/1.1/DTD/svg11.dtd">

<!-- Uploaded to: SVG Repo, www.svgrepo.com, Transformed by: SVG Repo Mixer Tools -->
<svg fill="#FF6310" height="30px" width="30px" version="1.1" id="Capa_1" xmlns="http://www.w3.org/2000/svg" xmlns:xlink="http://www.w3.org/1999/xlink" viewBox="0 0 348.018 348.018" xml:space="preserve">

<g id="SVGRepo_bgCarrier" stroke-width="0"/>

<g id="SVGRepo_tracerCarrier" stroke-linecap="round" stroke-linejoin="round"/>

<g id="SVGRepo_iconCarrier"> <g> <g id="Layer_5_18_"> <g> <path d="M348.017,160.921v-39.967c0-14.53-6.908-27.47-17.602-35.733c-7.627-5.892-17.178-9.41-27.539-9.41h-0.002h-26.821 h-38.229c-0.657,0-0.757-0.519-0.817-0.776c-5.011-21.792-22.654-38.404-42.237-38.404h-41.522 c-19.513,0-37.098,16.493-42.183,38.167c-0.078,0.337-0.329,1.013-1.297,1.013H71.964h-26.82h-0.002 C20.251,75.811,0,96.062,0,120.954v39.967l0,0v65.355l0,0v39.967c0,24.893,20.251,45.143,45.142,45.143h26.822h-0.002h204.092 h-0.001h26.821c24.893,0,45.144-20.251,45.144-45.143v-39.967h-0.001L348.017,160.921L348.017,160.921z M155.582,55.803h36.851 c9.917,0,19.222,7.168,25.101,18.916c0.144,0.287,0.535,1.093-1.125,1.093h-84.732c-1.661,0-1.035-1.417-0.669-2.102 C136.916,62.678,146.017,55.803,155.582,55.803z M283.244,91.002c4.982,0,7.104,3.175,8.293,4.688 c6.002,7.644,11.12,14.026,15.248,19.014c4.907,5.929,12.097,14.138,21.419,24.46c1.486,1.646,4.62,5.165,4.62,8.395v93.635 c0,1.661-0.891,2.722-1.33,3.207c-10.935,12.044-19.238,21.486-24.709,28.095c-4.492,5.427-10.167,12.52-16.888,21.104 c-0.666,0.851-2.017,2.597-4.993,2.597H63.227c-2.215,0-4.308-1.571-4.907-2.338c-6.818-8.713-12.561-15.893-17.091-21.363 c-5.388-6.51-13.506-15.746-24.155-27.486c-0.618-0.682-1.882-1.462-1.882-5.476v-92.02c0-3.183,1.938-5.382,2.877-6.419 c10.162-11.219,17.941-20.082,23.16-26.389c4.246-5.13,9.553-11.751,15.803-19.719c1.015-1.292,3.428-3.983,8.963-3.983h217.249 V91.002z"/> <g> <g> <path d="M181.27,171.948c0,2.298-1.881,4.179-4.181,4.179h-54.804c-2.3,0-4.18-1.881-4.18-4.179v-2.787 c0-2.298,1.88-4.179,4.18-4.179h54.804c2.3,0,4.181,1.881,4.181,4.179V171.948z"/> </g> <g> <path d="M210.324,210.288c0,2.298-1.88,4.179-4.179,4.179h-83.86c-2.3,0-4.18-1.881-4.18-4.179v-2.786 c0-2.298,1.88-4.179,4.18-4.179h83.86c2.299,0,4.179,1.881,4.179,4.179V210.288z"/> </g> <g> <path d="M262.639,241.65c0,2.298-1.882,4.179-4.179,4.179H89.556c-2.298,0-4.179-1.881-4.179-4.179V137.801 c0-2.298,1.881-4.179,4.179-4.179H258.46c2.297,0,4.179,1.881,4.179,4.179V241.65z M96.522,230.505 c0,2.299,1.879,4.179,4.179,4.179h146.614c2.3,0,4.18-1.88,4.18-4.179v-81.561c0-2.299-1.88-4.179-4.18-4.179H100.7 c-2.3,0-4.179,1.88-4.179,4.179v81.561H96.522z"/> </g> </g> </g> </g> </g> </g>

</svg>