<!DOCTYPE svg PUBLIC "-//W3C//DTD SVG 1.1//EN" "http://www.w3.org/Graphics/SVG/1.1/DTD/svg11.dtd">

<!-- Uploaded to: SVG Repo, www.svgrepo.com, Transformed by: SVG Repo Mixer Tools -->
<svg width="35px" height="35px" viewBox="0 0 20 20" version="1.1" xmlns="http://www.w3.org/2000/svg" xmlns:xlink="http://www.w3.org/1999/xlink" fill="#FFA500">

<g id="SVGRepo_bgCarrier" stroke-width="0"/>

<g id="SVGRepo_tracerCarrier" stroke-linecap="round" stroke-linejoin="round"/>

<g id="SVGRepo_iconCarrier"> <title>file_arrow_up [#FFA500]</title> <desc>Created with Sketch.</desc> <defs> </defs> <g id="Page-1" stroke="none" stroke-width="1" fill="none" fill-rule="evenodd"> <g id="Dribbble-Light-Preview" transform="translate(-340.000000, -1839.000000)" fill="#FFA500"> <g id="icons" transform="translate(56.000000, 160.000000)"> <path d="M288.4879,1691.0005 L289.0189,1691.0005 C289.4649,1691.0005 289.6879,1691.7495 289.3709,1692.0645 L284.2879,1697.2245 C283.9059,1697.6045 283.9039,1698.2755 284.2839,1698.6585 C284.6659,1699.0445 285.2899,1699.0705 285.6719,1698.6855 L290.9319,1693.6115 C291.2459,1693.2945 291.9999,1693.5295 291.9999,1693.9765 L291.9999,1694.4195 C291.9999,1694.9715 292.4479,1695.4195 292.9999,1695.4195 C293.5519,1695.4195 293.9999,1694.9715 293.9999,1694.4195 L293.9999,1691.4195 C293.9999,1690.3145 292.6779,1689.0005 291.5739,1689.0005 L288.4879,1689.0005 C287.9409,1689.0005 287.4959,1689.4395 287.4879,1689.9855 C287.4799,1690.5435 287.9299,1691.0005 288.4879,1691.0005 M303.9999,1685.4915 L303.9999,1697.0005 C303.9999,1698.1045 303.1049,1699.0005 301.9999,1699.0005 L292.9999,1699.0005 C292.4479,1699.0005 291.9999,1698.5525 291.9999,1698.0005 C291.9999,1697.4485 292.4479,1697.0005 292.9999,1697.0005 L300.9999,1697.0005 C301.5519,1697.0005 301.9999,1696.5525 301.9999,1696.0005 L301.9999,1687.0005 L297.9999,1687.0005 C296.8959,1687.0005 295.9999,1686.1045 295.9999,1685.0005 L295.9999,1681.0005 L286.9999,1681.0005 C286.4479,1681.0005 285.9999,1681.4485 285.9999,1682.0005 L285.9999,1690.0005 C285.9999,1690.5525 285.5519,1691.0005 284.9999,1691.0005 C284.4479,1691.0005 283.9999,1690.5525 283.9999,1690.0005 L283.9999,1681.0005 C283.9999,1679.8955 284.8959,1679.0005 285.9999,1679.0005 L297.5819,1679.0005 C297.8489,1679.0005 298.1059,1679.1075 298.2939,1679.2985 L303.7119,1684.7895 C303.8969,1684.9765 303.9999,1685.2285 303.9999,1685.4915" id="file_arrow_up-[#FFA500]"> </path> </g> </g> </g> </g>

</svg>