<svg fill="none" height="64" viewBox="0 0 64 64" width="64" xmlns="http://www.w3.org/2000/svg"><path d="m21.0123 35.1327c.4792.5591.4145 1.4008-.1446 1.88-.5591.4793-1.4009.4145-1.8801-.1446l-8-9.3333c-.428-.4993-.428-1.2361 0-1.7355l8-9.3333c.4792-.5591 1.321-.6238 1.8801-.1446s.6238 1.321.1446 1.8801l-7.2562 8.4656zm2.8626 17.4315c-.3114.6673-1.1048.9558-1.7721.6444s-.9558-1.1048-.6444-1.772l18.6666-40c.3115-.6673 1.1048-.9558 1.7721-.6444s.9558 1.1048.6444 1.772zm19.1127-23.6961c-.4792-.5591-.4145-1.4008.1446-1.88.5591-.4793 1.4009-.4145 1.8801.1446l8 9.3333c.428.4993.428 1.2361 0 1.7355l-8 9.3333c-.4792.5591-1.321.6238-1.8801.1446s-.6238-1.321-.1446-1.8801l7.2563-8.4656z" fill="#7352ba"/></svg>