<?xml version="1.0" encoding="UTF-8"?>
<svg width="1669px" height="371px" viewBox="0 0 1669 371" version="1.1" xmlns="http://www.w3.org/2000/svg" xmlns:xlink="http://www.w3.org/1999/xlink">
    <!-- Generator: Sketch 56.3 (81716) - https://sketch.com -->
    <title>great-expectations-long-logo</title>
    <desc>Created with Sketch.</desc>
    <defs>
        <circle id="path-1" cx="185.5" cy="185.5" r="185.5"></circle>
    </defs>
    <g id="Page-1" stroke="none" stroke-width="1" fill="none" fill-rule="evenodd">
        <g id="Artboard" transform="translate(-1329.000000, -873.000000)">
            <g id="great-expectations-long-logo" transform="translate(1329.000000, 873.000000)">
                <g id="icon">
                    <g id="Group">
                        <mask id="mask-2" fill="white">
                            <use xlink:href="#path-1"></use>
                        </mask>
                        <use id="Mask" fill="#FFFFFF" xlink:href="#path-1"></use>
                        <g mask="url(#mask-2)" fill-rule="nonzero" id="Path">
                            <g transform="translate(57.551247, 61.662050)">
                                <path d="M285.591244,224.94831 C285.591244,224.94831 279.010003,219.942999 256.84161,210.622765 C234.673218,201.129933 196.051721,196.469816 190.509623,191.464505 C184.967525,186.459194 201.420629,178.001944 203.325725,172.824036 C205.404012,167.646128 194.319816,165.574965 194.319816,165.574965 C194.319816,165.574965 195.878531,143.655154 194.319816,131.745966 C192.7611,119.836777 189.47048,119.836777 189.47048,119.836777 C189.47048,119.836777 191.029195,119.66418 192.934291,116.039645 C194.666197,112.415109 174.922472,93.2568491 174.922472,93.2568491 L180.118189,93.429446 C177.693521,83.2462269 192.241529,73.9259924 192.241529,73.9259924 C199.515533,58.5648652 185.833478,47.1734675 185.833478,47.1734675 C193.973434,46.3104828 193.973434,42.1681564 193.973434,42.1681564 C193.973434,42.1681564 191.548767,42.8585441 185.660287,39.9243962 C179.771808,36.9902484 173.017376,21.2839273 145.653266,7.30357556 C118.289157,-6.67677616 104.260721,3.85163686 104.260721,3.85163686 C104.260721,3.85163686 90.7518568,5.05981541 87.4612361,5.40500928 C83.9974247,5.92280008 82.2655191,7.64876943 80.8799945,8.85694797 C79.49447,10.0651265 72.0472756,8.85694797 60.9630794,15.2430346 C49.8788831,21.6291211 42.4316888,32.502728 41.565736,38.1984269 C40.6997831,43.8941257 41.3925454,49.2446307 39.141068,52.8691664 C36.8895907,56.493702 21.3024397,61.67161 22.6879642,101.714099 C24.0734887,141.756588 43.2976416,173.687021 46.2418812,173.341827 C49.1861209,172.824036 44.1635944,163.848995 45.7223095,162.123026 C47.2810246,160.397057 70.8349417,187.494776 72.2204662,188.702954 C73.6059907,189.911133 78.9748983,188.702954 79.6676606,188.185163 C80.3604228,187.667372 78.1089455,177.311556 81.2263757,175.758184 C84.3438059,174.204812 106.339008,205.617454 104.260721,208.033811 C102.182434,210.277571 99.2381946,211.658346 87.1148549,215.282882 C74.9915153,218.907418 53.8622662,237.202693 49.3593114,240.309438 C44.8563567,243.416182 42.4316888,242.553198 34.2917322,243.416182 C25.978585,244.10657 0,258.432116 0,258.432116 C1.0391434,259.640294 2.25147736,260.675876 3.29062076,261.884054 C5.02252643,260.158085 7.10081322,258.604713 9.52548116,257.741728 C11.2573868,257.223937 12.9892925,257.05134 14.5480076,256.360953 C17.6654378,255.152774 20.0901057,252.391223 22.8611548,250.492657 C25.6322038,248.421494 29.6155869,247.385912 32.3866359,249.457075 C33.7721605,250.665254 34.4649227,252.56382 34.6381133,254.462386 C34.6381133,256.360953 34.1185416,257.914325 33.7721605,259.640294 C31.6938737,257.741728 29.2692057,256.360953 26.4981567,256.188356 C23.7271076,255.843162 20.782868,256.878743 19.2241529,259.122503 C17.8386283,260.848473 17.3190566,263.437427 15.4139604,264.473008 C14.374817,264.990799 12.9892925,264.990799 11.7769585,265.163396 C10.391434,265.335993 9.00590946,265.681187 7.96676606,266.371575 C12.9892925,271.204289 18.0118189,275.519212 23.0343453,279.488942 C23.2075359,278.798554 23.3807265,278.108166 23.553917,277.245182 C24.0734887,275.691809 24.766251,274.311034 25.6322038,273.102855 C26.4981567,271.894677 27.3641095,270.859095 28.4032529,269.823513 C29.6155869,268.442738 31.0011114,267.061962 32.2134454,265.853784 C32.3866359,265.681187 32.7330171,265.335993 33.0793982,265.163396 C33.4257793,264.990799 33.945351,264.990799 34.4649227,264.990799 C35.8504473,264.990799 37.2359718,264.990799 38.6214963,264.990799 C38.9678775,267.234559 37.9287341,269.650917 36.5432095,271.549483 C35.157685,273.448049 33.0793982,274.828825 31.174302,276.037003 C29.7887774,276.899988 28.2300623,277.935569 27.3641095,279.488942 C27.0177284,280.17933 26.8445378,280.869717 26.4981567,281.560105 C26.4981567,281.560105 26.3249661,281.732702 26.3249661,281.732702 C50.744836,300.373171 77.0698021,310.211196 102.528815,314.180926 L110.1492,265.163396 C110.1492,265.163396 123.311683,262.919636 130.066115,255.497968 C136.820548,248.0763 155.525129,249.111881 155.525129,249.111881 C155.525129,249.111881 156.0447,246.522927 155.525129,250.147463 C155.005557,253.771999 163.318704,252.218626 163.318704,252.218626 C180.810951,243.070989 189.990051,257.396534 189.990051,257.396534 L185.313906,257.396534 C185.313906,257.396534 184.274763,261.884054 180.29138,283.113477 C177.693521,296.576038 173.883329,306.414064 171.458661,311.764569 C174.922472,310.901584 178.559474,310.038599 181.850095,309.175615 C187.565383,298.474605 196.224912,278.971151 197.264055,257.741728 C197.264055,257.741728 201.76701,255.497968 201.76701,257.741728 C201.76701,259.2951 200.727867,286.565416 200.035104,302.962125 C203.498916,301.581349 206.616346,300.200574 209.733776,298.647202 L213.543968,266.198978 C219.778829,259.467697 226.533261,275.519212 230.170263,286.565416 C276.15423,257.396534 285.591244,224.94831 285.591244,224.94831 Z" fill="#000000"></path>
                                <path d="M263.249661,227.537264 C263.249661,230.644009 261.690946,232.197382 261.690946,232.197382 L256.322038,225.811295 C256.322038,225.983892 263.249661,224.603117 263.249661,227.537264 Z" fill="#FFFFFF"></path>
                                <path d="M188.431336,57.5292836 C193.107482,66.6769211 188.431336,72.7178139 188.431336,72.7178139 C187.738574,64.7783549 174.922472,52.1787786 174.922472,52.1787786 C174.922472,52.1787786 183.582,48.381646 188.431336,57.5292836 Z" fill="#FFFFFF"></path>
                                <path d="M180.810951,70.6466506 C180.810951,70.6466506 185.313906,74.6163801 179.425427,76.3423495 C173.536948,78.2409158 171.458661,76.3423495 171.458661,76.3423495 L180.810951,70.6466506 Z" fill="#FFFFFF"></path>
                                <path d="M101.316481,10.2377235 C102.009244,8.68435104 104.08753,8.5117541 105.646246,8.5117541 C112.054296,8.68435104 118.289157,8.68435104 124.524017,9.02954491 C124.350827,7.64876943 123.484874,6.26799395 122.27254,5.40500928 C124.697208,5.05981541 127.121876,4.88721847 129.546544,5.05981541 C130.412497,5.05981541 131.45164,5.23241234 132.317593,5.40500928 C133.356736,5.57760621 134.222689,6.26799395 135.088642,6.78578475 C140.63074,10.0651265 146.519219,12.9992744 152.407698,15.7608254 C154.832366,16.9690039 157.430225,18.0045855 159.681702,19.7305549 C161.93318,21.4565242 163.838276,23.5276874 164.531038,26.2892384 C164.531038,26.4618353 164.531038,26.8070292 164.531038,27.1522231 C162.972323,27.6700139 161.240417,27.6700139 159.681702,26.9796261 C158.98894,27.1522231 158.122987,26.9796261 157.603415,26.4618353 C154.312795,24.2180752 151.022174,21.974315 147.385172,20.5935395 C143.74817,19.0401671 139.591597,18.3497794 135.781404,19.0401671 C138.206072,20.5935395 139.764787,22.4921048 142.016264,24.0454782 C143.57498,25.2536568 145.306885,26.6344323 145.826457,28.5329985 C142.362646,26.8070292 138.552453,25.9440445 134.742261,25.5988507 C132.490783,25.4262537 130.066115,25.4262537 127.641447,25.4262537 C125.909542,25.4262537 124.177636,25.4262537 122.618921,25.5988507 C121.579778,25.5988507 120.540634,25.5988507 119.501491,26.1166415 C118.635538,26.4618353 117.250013,27.4974169 117.250013,28.5329985 C114.998536,27.8426108 112.573868,30.086371 110.322391,29.3959832 C108.763676,29.0507893 107.897723,27.4974169 106.512198,26.6344323 C105.126674,25.7714476 103.221578,25.7714476 101.489672,25.7714476 C101.316481,24.735866 102.009244,23.7002844 102.875196,23.1824936 C103.741149,22.6647028 104.780293,22.4921048 105.819436,22.3195089 C108.590485,21.8017181 111.361534,21.2839273 114.132583,20.4209426 C115.344917,20.0757487 116.730442,19.385361 116.730442,18.1771825 C116.730442,17.6593916 116.557251,17.3141978 116.21087,16.9690039 C114.998536,15.0704376 112.920249,13.8622591 110.841963,13.8622591 C109.456438,13.8622591 108.070913,14.207453 106.685389,14.3800499 C105.299864,14.5526468 103.91434,14.7252438 102.702006,14.034856 C101.662863,12.9992744 100.79691,11.445902 101.316481,10.2377235 Z" fill="#FFFFFF"></path>
                                <path d="M132.837164,41.3051717 L128.680591,41.3051717 C128.680591,41.3051717 127.295066,36.4724575 130.239306,36.9902484 C133.356736,37.5080392 132.837164,41.3051717 132.837164,41.3051717 Z" fill="#FFFFFF"></path>
                                <path d="M79.3212794,29.5685802 C79.6676606,29.2233863 80.1872323,28.8781924 80.5336134,28.5329985 C82.0923285,27.6700139 83.6510436,26.8070292 85.2097587,26.1166415 C87.4612361,25.0810598 90.0590946,24.563269 92.4837625,24.563269 C93.3497153,24.563269 94.3888587,25.7714476 94.2156682,26.6344323 C93.869287,27.32482 93.1765248,27.8426108 92.4837625,28.1878047 C91.9641908,28.5329985 91.2714285,28.7055955 90.7518568,29.0507893 C89.885904,29.5685802 89.0199512,29.913774 88.1539983,30.2589679 C85.5561398,31.2945495 81.7459474,31.4671464 78.9748983,31.1219526 C78.8017077,30.4315648 78.9748983,29.913774 79.3212794,29.5685802 Z" fill="#FFFFFF"></path>
                                <path d="M58.711602,21.6291211 C62.0022228,21.1113303 64.9464624,24.735866 68.0638926,21.4565242 C68.7566549,20.7661365 69.103036,19.9031518 69.9689888,19.385361 C71.3545134,18.5223763 73.086419,19.0401671 74.4719436,19.7305549 C74.8183247,21.8017181 73.4328002,23.7002844 72.0472756,25.2536568 C71.0081322,26.4618353 69.9689888,27.6700139 68.9298455,28.8781924 C68.2370832,29.7411771 67.3711304,30.6041618 66.331987,30.9493556 C65.119653,31.4671464 63.7341285,31.1219526 62.5217945,30.9493556 C59.5775549,30.6041618 56.6333152,30.4315648 53.515885,30.6041618 C53.515885,27.8426108 55.4209813,22.146912 58.711602,21.6291211 Z" fill="#FFFFFF"></path>
                                <path d="M42.9512605,104.648247 C42.9512605,104.648247 38.9678775,107.582395 38.7946869,104.648247 C38.6214963,101.714099 42.9512605,100.50592 42.9512605,100.50592 L42.9512605,104.648247 Z" fill="#FFFFFF"></path>
                                <path d="M42.9512605,93.2568491 L38.7946869,93.2568491 C38.7946869,93.2568491 38.1019246,89.1145227 40.8729737,89.1145227 C43.6440227,89.1145227 42.9512605,93.2568491 42.9512605,93.2568491 Z" fill="#FFFFFF"></path>
                                <path d="M44.8563567,63.2249824 C44.8563567,63.2249824 40.0070209,63.0523855 40.6997831,60.1182376 C41.3925454,57.1840897 50.744836,47.0008706 50.744836,47.0008706 C50.744836,47.0008706 55.0746001,44.0667227 54.3818379,48.381646 C53.3426945,52.6965694 44.8563567,63.2249824 44.8563567,63.2249824 Z" fill="#FFFFFF"></path>
                                <path d="M47.4542152,71.6822323 C47.4542152,71.6822323 51.9571699,73.4082016 60.6166983,66.1591303 C69.2762266,58.9100591 69.2762266,58.9100591 69.2762266,58.9100591 C69.2762266,58.9100591 73.2596096,64.6057579 69.2762266,67.3673089 C65.2928436,70.1288598 62.3486039,70.1288598 61.8290322,72.7178139 C61.3094605,75.4793648 47.2810246,78.2409158 47.4542152,71.6822323 Z" fill="#FFFFFF"></path>
                                <path d="M69.103036,103.267471 C68.5834643,95.8458031 59.923936,92.5664614 59.923936,92.5664614 C61.4826511,85.8351809 75.1647058,92.2212675 73.4328002,97.9169663 C71.7008945,103.612665 78.4553266,117.075226 78.4553266,117.075226 C78.4553266,117.075226 69.6226077,110.68914 69.103036,103.267471 Z" fill="#FFFFFF"></path>
                                <path d="M83.6510436,150.731628 C83.6510436,150.731628 77.2429926,149.52345 75.511087,141.756588 C73.7791813,133.989726 80.1872323,133.817129 80.1872323,133.817129 C80.1872323,133.817129 80.706804,140.548409 85.0365681,142.274379 C89.3663323,144.000348 94.9084304,149.52345 94.9084304,149.52345 C94.9084304,149.52345 91.2714285,149.178256 88.1539983,148.660465 C85.0365681,148.142674 83.6510436,150.731628 83.6510436,150.731628 Z" fill="#FFFFFF"></path>
                                <path d="M68.9298455,235.476723 C68.2370832,236.339708 67.5443209,237.030096 66.8515587,237.893081 C66.331987,238.410871 65.8124153,239.101259 65.8124153,239.964244 C65.4660341,239.964244 64.2537002,239.273856 64.0805096,238.756065 C63.907319,238.238274 64.0805096,237.893081 64.2537002,237.547887 C64.4268907,236.684902 64.7732719,235.821917 64.9464624,234.958933 C65.119653,234.613739 65.119653,234.268545 65.2928436,233.923351 C65.6392247,233.40556 65.9856058,233.060366 66.5051775,232.715172 C67.5443209,232.024785 68.7566549,231.334397 70.1421794,230.989203 C71.5277039,230.644009 72.3936568,230.989203 73.6059907,231.852188 C71.7008945,232.369979 70.1421794,233.923351 68.9298455,235.476723 Z" fill="#FFFFFF"></path>
                                <path d="M79.3212794,226.846877 C78.9748983,224.775713 80.1872323,222.531953 81.9191379,221.323775 C83.6510436,220.115596 85.902521,219.597805 88.1539983,219.770402 C88.3271889,219.770402 88.5003795,219.770402 88.67357,219.942999 C88.8467606,220.115596 88.8467606,220.288193 88.8467606,220.46079 C89.0199512,223.049744 89.1931417,225.638698 89.0199512,228.227652 C88.1539983,228.572846 87.2880455,228.400249 86.4220927,228.227652 C83.8242342,227.192071 81.9191379,227.019474 79.3212794,226.846877 Z" fill="#FFFFFF"></path>
                                <path d="M87.2880455,250.837851 C87.4612361,250.492657 87.4612361,250.147463 87.6344266,249.629672 C88.1539983,247.731106 88.67357,245.83254 90.0590946,244.624361 C90.9250474,243.933973 91.9641908,243.588779 93.0033342,243.416182 C94.2156682,243.243585 95.4280021,243.070989 96.4671455,243.070989 C96.8135267,243.070989 96.9867172,243.070989 97.3330984,243.243585 C97.8526701,243.416182 98.0258606,243.761376 98.3722417,244.10657 C100.104147,246.35033 100.623719,249.457075 99.7577663,252.046029 C98.8918134,252.046029 98.0258606,252.046029 97.3330984,251.700835 C97.1599078,251.700835 96.9867172,251.528238 96.9867172,251.528238 C96.8135267,251.355641 96.8135267,251.183044 96.8135267,251.010448 C96.6403361,250.32006 95.7743833,249.802269 94.9084304,249.629672 C93.6960965,249.457075 92.4837625,249.629672 91.4446191,249.974866 C90.7518568,250.32006 90.0590946,250.837851 89.3663323,251.010448 C88.67357,251.355641 87.9808078,251.010448 87.2880455,250.837851 Z" fill="#FFFFFF"></path>
                                <path d="M101.143291,310.038599 L96.9867172,309.003018 C96.9867172,309.003018 95.4280021,304.3429 96.9867172,300.200574 C96.9867172,300.200574 93.6960965,300.027977 93.869287,307.104451 C93.869287,307.104451 87.9808078,301.581349 90.5786663,296.230844 C93.3497153,291.052936 96.293955,291.743324 96.293955,287.946192 C96.293955,284.149059 96.9867172,280.351926 96.9867172,280.351926 L100.277338,278.625957 L101.316481,266.026381 C101.316481,266.026381 105.819436,265.163396 105.473055,272.412467 C105.126674,279.661539 101.143291,310.038599 101.143291,310.038599 Z" fill="#FFFFFF"></path>
                                <path d="M109.97601,229.090637 C108.763676,228.91804 106.85858,228.745443 105.473055,228.745443 C105.299864,227.019474 105.299864,225.293504 105.819436,223.567535 C105.992627,222.877147 106.339008,222.359356 106.512198,221.841566 C107.204961,220.633387 107.897723,219.252612 108.590485,218.044433 C108.936866,217.526642 109.110057,218.044433 109.456438,218.389627 C112.054296,221.668969 114.652155,225.293504 114.998536,229.608428 C113.26663,229.090637 111.534725,229.263234 109.97601,229.090637 Z" fill="#FFFFFF"></path>
                                <path d="M148.424315,220.805984 C147.731553,221.151178 146.8656,220.978581 146.172838,220.805984 L146.172838,221.151178 C145.826457,221.323775 145.480076,220.978581 145.306885,220.633387 C145.133695,220.288193 145.133695,219.942999 145.133695,219.597805 C145.133695,218.907418 145.133695,218.044433 145.826457,217.526642 C145.999648,217.354045 146.346029,217.354045 146.69241,217.181448 C147.038791,217.181448 147.385172,217.181448 147.904744,217.354045 C149.117078,217.699239 149.983031,218.907418 149.80984,220.115596 C149.117078,220.115596 148.943887,220.633387 148.424315,220.805984 Z" fill="#FFFFFF"></path>
                                <path d="M157.430225,224.94831 C157.257034,226.501683 155.698319,228.400249 153.966414,227.019474 C153.620032,226.67428 153.446842,226.156489 153.446842,225.638698 C153.446842,225.120907 153.273651,224.775713 153.273651,224.257923 C153.273651,223.912729 153.100461,223.567535 153.446842,223.222341 C153.620032,222.877147 154.139604,222.877147 154.485985,222.877147 C155.005557,222.877147 155.525129,222.877147 156.0447,222.877147 C156.391082,222.877147 156.564272,222.877147 156.910653,223.049744 C157.430225,223.394938 157.603415,224.257923 157.430225,224.94831 Z" fill="#FFFFFF"></path>
                                <path d="M165.743372,229.263234 C165.570182,229.435831 165.2238,229.435831 164.877419,229.435831 C162.625942,229.435831 162.10637,228.91804 162.10637,226.67428 C162.10637,226.501683 162.10637,226.156489 162.279561,225.983892 C162.452751,225.811295 162.799132,225.811295 162.972323,225.811295 C163.838276,225.811295 164.704229,225.811295 165.570182,226.156489 C165.743372,226.156489 165.916563,226.329086 165.916563,226.501683 C166.089753,226.67428 166.089753,226.846877 166.089753,227.019474 C166.089753,227.364667 166.089753,227.882458 166.089753,228.227652 C166.089753,228.572846 166.089753,229.090637 165.743372,229.263234 Z" fill="#FFFFFF"></path>
                                <path d="M167.302087,204.064081 C165.396991,205.790051 148.251125,208.551602 140.803931,204.064081 C133.356736,199.576561 133.356736,199.576561 133.356736,199.576561 C133.356736,199.576561 124.177636,200.78474 116.903632,195.779428 C109.629629,190.946714 109.110057,185.078418 109.110057,185.078418 C109.110057,185.078418 89.1931417,181.281286 88.3271889,174.377408 L105.646246,176.448572 C105.646246,176.448572 82.0923285,167.300934 85.0365681,163.848995 C87.9808078,160.397057 94.9084304,163.848995 94.9084304,163.848995 L110.1492,172.133648 C110.1492,172.133648 108.417295,170.235082 111.361534,169.372097 C114.305774,168.509113 115.864489,171.615858 115.864489,171.615858 C115.864489,171.615858 119.3283,167.473531 122.44573,169.372097 C125.563161,171.270664 130.412497,174.032215 130.412497,174.032215 L133.529927,172.824036 C133.529927,172.824036 128.161019,170.062485 127.468257,165.920159 C126.775495,161.777832 119.3283,162.295623 118.808729,164.366786 C118.808729,164.366786 105.126674,157.462909 105.819436,155.73694 C106.512198,154.01097 112.054296,149.868644 112.054296,149.868644 L100.277338,143.655154 C100.277338,143.655154 97.6794795,146.589302 95.2548116,144.863333 C92.8301436,143.137363 85.0365681,135.543098 87.2880455,133.989726 C89.5395229,132.436353 94.0424776,134.85271 94.0424776,134.85271 L100.623719,139.685425 L101.316481,136.751277 C101.316481,136.751277 95.081621,131.228175 95.9475738,130.537787 C96.8135267,129.847399 103.394768,130.537787 103.394768,130.537787 C104.08753,125.187282 103.221578,119.66418 101.662863,114.486272 C100.104147,109.308364 97.1599078,104.47565 93.1765248,101.023711 C93.0033342,100.160727 92.8301436,99.2977418 93.5229059,98.6073541 C95.4280021,98.779951 97.3330984,98.952548 99.065004,99.2977418 C99.4113851,99.2977418 99.5845757,99.2977418 99.9309568,99.1251449 C100.277338,98.952548 100.277338,98.6073541 100.277338,98.2621602 C100.277338,96.8813847 99.2381946,95.6732062 98.5454323,94.4650277 C96.9867172,91.5308798 97.6794795,88.0789411 97.5062889,84.7995993 C97.3330984,79.2764974 95.2548116,74.2711863 93.1765248,69.0932782 C92.8301436,68.2302936 92.4837625,67.3673089 91.7910002,66.8495181 C91.098238,66.3317273 90.0590946,65.9865334 89.3663323,66.5043242 C88.3271889,70.4740537 87.2880455,74.6163801 86.9416644,78.7587066 C86.9416644,79.6216913 86.7684738,80.312079 86.4220927,81.0024667 C86.0757115,81.6928545 85.3829493,82.3832422 84.5169964,82.3832422 C83.6510436,82.3832422 83.1314719,81.6928545 82.7850908,81.0024667 C82.4387096,80.312079 82.4387096,79.4490943 82.4387096,78.7587066 C82.2655191,72.7178139 82.0923285,66.6769211 81.7459474,60.6360284 C81.7459474,59.9456407 81.7459474,59.4278499 81.7459474,58.7374621 C81.9191379,57.7018805 82.4387096,56.6662989 82.6119002,55.6307173 C82.7850908,54.5951357 82.0923285,53.2143602 80.8799945,53.3869572 C80.706804,54.5951357 80.1872323,55.6307173 79.6676606,56.6662989 C79.3212794,57.5292836 78.8017077,58.3922683 77.9357549,58.9100591 C77.4161832,59.082656 76.8966115,59.2552529 76.3770398,59.2552529 C75.6842775,59.4278499 74.6451341,59.4278499 74.298753,58.7374621 C74.1255624,58.3922683 73.9523719,58.0470744 73.9523719,57.7018805 C73.7791813,56.6662989 73.7791813,55.4581204 73.7791813,54.2499418 C76.7234209,49.9350185 79.8408511,45.4474982 84.1706153,42.5133503 C85.902521,41.3051717 87.8076172,40.2695901 89.885904,39.7517993 C91.6178097,39.4066054 93.3497153,39.4066054 95.081621,39.4066054 C95.9475738,39.4066054 96.8135267,39.4066054 97.5062889,39.7517993 C98.8918134,40.442187 99.4113851,42.5133503 100.9701,43.203738 C102.528815,43.8941257 104.260721,44.5845135 105.992627,44.4119165 C107.724532,44.2393196 109.283247,43.7215288 111.015153,43.5489319 C115.171727,42.8585441 119.501491,43.3763349 123.311683,45.1023043 C125.38997,46.1378859 127.468257,47.3460644 129.719734,47.8638552 C131.278449,48.2090491 132.663974,48.2090491 134.222689,48.2090491 C135.088642,48.2090491 136.127785,48.2090491 136.993738,47.6912583 C138.379263,47.0008706 139.418406,45.2749012 141.150312,45.2749012 C142.189455,45.2749012 143.228598,45.792692 143.57498,46.6556767 C143.921361,47.5186614 143.921361,48.554243 143.921361,49.5898246 C143.74817,53.3869572 143.57498,57.0114928 143.401789,60.8086254 C144.440932,61.3264162 145.480076,60.8086254 146.519219,60.2908346 C147.731553,59.6004468 148.770697,58.7374621 149.636649,57.7018805 C150.848983,56.1485081 151.195365,54.0773449 152.407698,52.3513756 C153.446842,52.5239725 155.005557,51.8335847 155.87151,52.1787786 C160.374465,54.2499418 165.2238,56.493702 168.341231,60.4634315 C169.380374,61.844207 170.419517,63.5701763 169.899946,65.2961457 C169.033993,69.0932782 165.05061,72.0274261 161.240417,72.7178139 C161.586799,73.7533955 162.452751,74.4437832 163.491895,74.961574 C164.531038,75.3067679 165.396991,75.8245587 166.436134,76.1697526 C166.436134,76.8601403 166.262944,77.3779311 166.089753,78.0683188 C164.704229,81.0024667 164.877419,84.2818085 165.05061,87.3885533 C165.05061,88.0789411 165.05061,88.7693288 165.2238,89.4597165 C172.844185,95.5006093 179.598617,102.577084 185.313906,110.516543 C186.52624,112.242512 186.006668,115.004063 186.006668,117.075226 C183.235619,115.867048 180.118189,115.521854 177.34714,116.730032 C174.22971,118.110808 172.324614,121.044956 170.765899,123.979104 C171.458661,124.1517 172.151423,123.979104 172.844185,123.63391 C175.442044,122.425731 178.386283,122.425731 181.330523,122.425731 C182.196476,122.425731 183.062429,122.425731 184.101572,122.598328 C185.833478,122.943522 187.392193,123.979104 188.950908,125.014685 C190.509623,129.157012 190.682814,133.644532 191.029195,138.132052 C191.548767,147.27969 191.722136,156.427327 191.722136,165.574965 C191.722136,165.574965 191.895148,167.300934 177.000759,171.788454 C162.10637,176.275975 152.580889,175.41299 152.580889,175.41299 C152.580889,175.41299 157.083844,183.697643 165.916563,183.697643 C165.916563,183.697643 166.955706,193.017877 166.955706,195.606831 C167.302087,198.540979 169.033993,202.338112 167.302087,204.064081 Z" fill="#FFFFFF"></path>
                                <path d="M177.520331,179.38272 L189.816861,179.38272 L176.654378,195.779428 L172.844185,195.779428 C173.363757,186.804388 177.520331,179.38272 177.520331,179.38272 Z" fill="#FFFFFF"></path>
                                <path d="M178.559474,238.928662 C177.693521,239.791647 175.961616,240.482035 175.095663,239.61905 C173.883329,238.410871 174.056519,235.821917 174.22971,234.268545 C174.22971,233.923351 174.22971,233.40556 174.4029,233.060366 C174.576091,232.715172 174.922472,232.369979 175.268853,232.197382 C175.788425,232.024785 176.307997,232.369979 176.654378,232.887769 C177.000759,233.232963 177.34714,233.750754 177.693521,234.095948 C178.039902,234.268545 178.386283,234.441142 178.559474,234.613739 C178.905855,234.958933 179.079046,235.304126 179.252236,235.64932 C179.598617,236.857499 179.252236,238.065677 178.559474,238.928662 Z" fill="#FFFFFF"></path>
                                <path d="M191.548767,224.775713 C190.682814,224.94831 188.950908,224.775713 188.258146,224.085326 C186.35305,222.531953 186.872621,217.008851 187.911765,215.110285 C188.084955,214.765091 188.431336,214.2473 188.777717,214.074703 C189.124099,213.902107 189.64367,213.72951 190.163242,213.902107 C190.336433,214.074703 190.509623,214.074703 190.682814,214.2473 C191.548767,215.110285 192.241529,216.145867 192.414719,217.181448 C192.7611,218.21703 192.7611,219.252612 192.7611,220.288193 C192.7611,221.841566 193.453863,224.257923 191.548767,224.775713 Z" fill="#FFFFFF"></path>
                                <path d="M201.074248,245.659943 C200.035104,245.142152 198.995961,244.624361 198.130008,243.761376 C197.437246,243.070989 196.917674,242.380601 196.051721,241.690213 C195.358959,241.172422 194.666197,240.827228 194.319816,240.309438 C193.800244,239.61905 193.973434,238.756065 193.973434,237.893081 C193.973434,236.857499 193.973434,235.13153 194.666197,234.441142 C196.051721,234.441142 197.264055,235.13153 198.303199,235.994514 C199.342342,236.857499 200.035104,238.065677 200.727867,239.273856 C200.901057,239.791647 201.247438,240.309438 201.420629,240.827228 C201.76701,242.380601 201.593819,244.10657 201.074248,245.659943 Z" fill="#FFFFFF"></path>
                                <path d="M216.661399,205.790051 C215.622255,209.241989 214.236731,208.551602 214.236731,208.551602 L206.789536,201.30253 C207.82868,198.023189 217.700542,202.338112 216.661399,205.790051 Z" fill="#FFFFFF"></path>
                                <path d="M213.024397,251.355641 C212.158444,250.492657 211.119301,249.457075 210.426538,248.248897 C209.387395,246.35033 209.041014,244.279167 209.560585,242.208004 C209.560585,242.035407 209.733776,241.690213 209.733776,241.517616 C211.292491,242.208004 213.024397,243.761376 214.06354,245.142152 C214.756302,246.005136 215.449065,246.868121 215.968636,247.731106 C216.488208,248.766687 216.661399,249.802269 216.834589,250.837851 C217.00778,251.700835 217.18097,252.736417 217.354161,253.599402 C215.795446,253.771999 214.236731,252.56382 213.024397,251.355641 Z" fill="#FFFFFF"></path>
                                <path d="M226.533261,247.731106 C224.801355,246.695524 223.589021,244.969555 222.723068,243.070989 C221.857116,241.172422 221.337544,239.101259 220.471591,237.37529 C221.857116,237.547887 223.24264,238.410871 224.281784,239.273856 C225.494118,240.309438 226.706451,241.690213 227.745595,242.898392 C227.918785,243.070989 228.265167,243.416182 228.265167,243.761376 C228.438357,243.933973 228.438357,244.279167 228.438357,244.451764 C228.611548,245.659943 228.784738,246.868121 229.131119,248.0763 C228.265167,248.421494 227.226023,248.248897 226.533261,247.731106 Z" fill="#FFFFFF"></path>
                                <path d="M243.332746,247.558509 C242.639984,250.147463 239.349363,250.665254 239.349363,250.665254 C238.48341,245.83254 222.549878,227.364667 222.549878,227.364667 C228.265167,219.425208 244.025508,244.969555 243.332746,247.558509 Z" fill="#FFFFFF"></path>
                                <path d="M123.658064,172.824036 C123.484874,173.341827 123.658064,173.859618 123.484874,174.377408 C123.311683,174.895199 122.965302,175.240393 122.44573,175.41299 C121.926159,175.585587 121.406587,175.585587 121.060206,175.585587 C119.501491,175.585587 118.635538,174.722602 117.250013,174.722602 C115.864489,174.722602 114.305774,174.722602 112.920249,174.722602 C112.747059,175.240393 112.747059,175.758184 113.09344,176.103378 C113.786202,176.966363 114.652155,177.829347 115.691298,178.001944 C116.730442,178.347138 117.769585,178.347138 118.808729,178.347138 C121.233397,178.347138 123.484874,178.692332 125.909542,178.864929 C125.909542,178.174541 125.909542,177.484153 126.082732,176.793766 C126.082732,176.448572 126.255923,176.275975 126.255923,175.930781 C126.602304,174.722602 126.082732,173.514424 125.736351,172.306245 C124.870398,171.961051 123.831255,172.133648 123.658064,172.824036 Z" fill="#000000"></path>
                                <path d="M151.888127,193.880862 C148.597506,190.946714 146.172838,186.804388 145.306885,182.489464 C145.133695,181.799077 145.133695,181.281286 145.133695,180.590898 C145.306885,179.90051 145.826457,179.210123 146.172838,178.692332 C147.038791,177.65675 147.731553,176.793766 148.597506,175.758184 C148.943887,175.240393 149.983031,174.722602 150.502602,174.722602 C147.385172,173.687021 144.267742,173.16923 141.150312,172.824036 C139.937978,172.824036 138.552453,172.824036 137.6865,173.514424 C136.820548,174.377408 136.647357,175.585587 136.820548,176.793766 C136.993738,178.001944 137.6865,178.864929 138.379263,179.90051 C140.457549,183.179852 142.709027,186.459194 144.787314,189.738536 C146.519219,192.32749 148.077934,194.916444 150.502602,196.642413 C151.195365,197.160204 152.234508,197.332801 152.75408,196.81501 C153.100461,196.469816 153.100461,195.779428 152.92727,195.261638 C152.75408,194.743847 152.234508,194.226056 151.888127,193.880862 Z" fill="#000000"></path>
                                <path d="M149.80984,184.560628 C149.983031,184.905822 149.983031,185.251015 150.329412,185.423612 C150.675793,185.596209 151.022174,185.596209 151.368555,185.423612 C151.714936,185.251015 151.888127,185.078418 152.234508,184.733225 C152.580889,184.215434 152.75408,183.525046 152.92727,182.662061 C151.714936,182.662061 150.502602,182.662061 149.117078,182.662061 C149.290268,183.352449 149.636649,183.87024 149.80984,184.560628 Z" fill="#000000"></path>
                                <path d="M163.318704,141.756588 C162.972323,141.929185 162.625942,142.274379 162.452751,142.792169 C162.279561,143.30996 162.279561,143.827751 162.279561,144.345542 C162.452751,145.208526 162.625942,145.898914 162.799132,146.761899 C162.972323,147.452287 163.318704,148.142674 163.838276,148.660465 C164.357848,149.178256 165.2238,149.350853 165.743372,149.005659 C167.475278,148.142674 166.262944,145.381123 167.648468,144.345542 C169.207183,143.137363 172.497804,144.000348 174.22971,144.345542 C175.095663,144.518139 175.788425,144.863333 176.654378,144.863333 C177.520331,144.863333 178.213093,144.690736 178.905855,144.518139 C181.676904,143.827751 184.447953,143.137363 186.35305,141.0662 C187.045812,140.203215 187.565383,139.167634 187.219002,138.132052 C187.045812,137.614261 186.699431,137.096471 186.179859,136.57868 C185.487097,135.888292 184.794334,135.197904 184.101572,134.507517 C183.582,133.989726 182.889238,133.471935 182.196476,133.299338 C180.637761,132.781547 178.905855,133.989726 177.693521,135.025307 C175.268853,136.923874 172.844185,138.82244 169.899946,139.858022 C167.821659,140.375812 165.2238,140.375812 163.318704,141.756588 Z" fill="#000000"></path>
                                <path d="M181.850095,148.660465 C181.330523,149.178256 180.810951,150.559031 181.330523,151.249419 C181.850095,151.939807 184.101572,151.76721 184.794334,151.76721 C184.967525,151.76721 185.140716,151.76721 185.313906,151.594613 C185.487097,151.422016 185.487097,151.249419 185.487097,151.076822 C185.833478,149.178256 183.40881,147.107093 181.850095,148.660465 Z" fill="#000000"></path>
                                <path d="M184.101572,130.882981 C184.447953,131.228175 184.967525,131.228175 185.487097,131.228175 C186.179859,131.228175 186.872621,131.228175 187.565383,131.228175 C187.392193,130.537787 187.565383,129.847399 187.738574,129.157012 C187.911765,128.811818 187.911765,128.466624 187.911765,128.12143 C187.911765,126.740654 186.179859,125.705073 184.794334,125.87767 C183.062429,126.222864 183.582,127.948833 183.582,129.157012 C183.582,129.847399 183.582,130.537787 184.101572,130.882981 Z" fill="#000000"></path>
                                <path d="M166.262944,110.861736 C167.994849,111.897318 170.592708,113.45069 172.670995,113.623287 C174.749282,113.795884 174.922472,111.379527 174.922472,109.826155 C174.922472,109.135767 174.922472,108.272782 174.4029,107.754992 C174.056519,107.409798 173.363757,107.237201 172.844185,107.064604 C171.978232,106.892007 171.28547,106.892007 170.419517,106.892007 C170.073136,106.892007 169.899946,106.892007 169.553565,106.71941 C168.860802,106.374216 168.860802,105.511231 168.860802,104.820844 C168.687612,102.577084 167.648468,100.50592 165.916563,99.1251449 C165.2238,98.6073541 164.357848,98.0895633 163.665085,98.4347572 C163.145514,98.6073541 162.625942,99.1251449 162.279561,99.6429357 C161.586799,100.678517 160.720846,101.886696 160.547655,103.267471 C160.547655,104.130456 160.720846,104.993441 161.240417,105.856425 C162.279561,107.754992 164.184657,109.480961 166.262944,110.861736 Z" fill="#000000"></path>
                                <path d="M142.882217,101.714099 C142.362646,101.886696 141.843074,102.059293 141.323502,102.404487 C140.803931,102.749681 140.457549,103.267471 140.111168,103.612665 C139.418406,104.648247 139.245215,105.683828 139.245215,106.892007 C142.016264,107.064604 144.614123,106.892007 147.385172,106.546813 C148.077934,105.856425 148.424315,105.511231 148.251125,104.648247 C148.077934,103.785262 147.558363,102.922277 147.038791,102.23189 C146.69241,101.886696 146.346029,101.368905 145.826457,101.368905 C145.480076,101.368905 145.133695,101.368905 144.787314,101.541502 C144.094551,101.368905 143.401789,101.541502 142.882217,101.714099 Z" fill="#000000"></path>
                                <path d="M142.709027,96.0184001 C143.921361,94.8102215 144.787314,93.0842522 144.614123,91.3582828 C144.440932,89.6323135 143.401789,88.251538 142.362646,86.8707625 C141.496693,85.8351809 140.63074,84.6270024 139.764787,83.5914208 C139.245215,83.07363 138.898834,82.3832422 138.206072,82.2106453 C137.340119,82.0380483 136.647357,82.5558391 135.954595,83.07363 C132.490783,85.489987 129.546544,88.251538 126.775495,91.5308798 C123.311683,95.6732062 120.367444,100.678517 120.540634,106.029022 C120.713825,108.790573 122.965302,112.069915 125.736351,112.415109 C124.870398,110.171349 125.736351,107.754992 126.775495,105.511231 C127.468257,103.785262 128.161019,102.23189 129.373353,100.851114 C130.585687,99.4703388 132.317593,98.4347572 134.049498,98.6073541 C134.222689,99.4703388 135.435023,99.8155326 136.127785,99.8155326 C136.993738,99.8155326 137.6865,99.4703388 138.379263,98.952548 C139.937978,98.0895633 141.496693,97.2265786 142.709027,96.0184001 Z" fill="#000000"></path>
                                <path d="M130.412497,78.2409158 C133.356736,76.3423495 136.993738,75.6519618 140.63074,75.8245587 C141.496693,75.8245587 142.535836,75.9971556 143.401789,75.8245587 C144.267742,75.6519618 145.999648,73.7533955 145.306885,73.0630077 C143.228598,70.8192476 139.937978,69.9562629 136.820548,70.4740537 C133.703117,70.8192476 130.932068,72.2000231 128.33421,73.9259924 C123.138493,77.3779311 118.635538,82.0380483 116.557251,88.0789411 C119.674681,85.489987 123.138493,84.2818085 126.082732,81.6928545 C127.468257,80.312079 128.853781,79.2764974 130.412497,78.2409158 Z" fill="#000000"></path>
                            </g>
                        </g>
                    </g>
                </g>
                <text id="great_expectations" font-family="HKGrotesk-Regular, HK Grotesk" font-size="155" font-weight="normal" letter-spacing="-0.4" fill="#000000">
                    <tspan x="403" y="248">great_expectations</tspan>
                </text>
            </g>
        </g>
    </g>
</svg>
