<?xml version="1.0" encoding="UTF-8"?>
<svg width="512px" height="512px" viewBox="0 0 512 512" version="1.1" xmlns="http://www.w3.org/2000/svg" xmlns:xlink="http://www.w3.org/1999/xlink">
    <!-- Generator: Sketch 56.3 (81716) - https://sketch.com -->
    <title>icon-256 (1)</title>
    <desc>Created with Sketch.</desc>
    <defs>
        <circle id="path-1" cx="256" cy="256" r="256"></circle>
    </defs>
    <g id="Page-1" stroke="none" stroke-width="1" fill="none" fill-rule="evenodd">
        <g id="icon-256-(1)">
            <g id="Oval" fill="#FFFFFF" fill-rule="nonzero">
                <circle id="path-1" cx="256" cy="256" r="256"></circle>
            </g>
            <g id="pip-Clipped">
                <mask id="mask-2" fill="white">
                    <use xlink:href="#path-1"></use>
                </mask>
                <g id="path-1"></g>
                <g id="pip" mask="url(#mask-2)">
                    <g transform="translate(68.000000, 74.000000)" id="Group">
                        <g transform="translate(1.301010, 0.472728)">
                            <path d="M0,364.871446 C163.165443,529.405212 366.003272,410.386706 402.359596,318.848058 C249.715548,329.707332 130.455884,340.048334 44.5806048,349.871068 C41.0426408,350.275754 26.1824392,355.27588 0,364.871446 Z" id="Path-2" fill="#FFFFFF" fill-rule="nonzero"></path>
                            <g id="pip1" fill-rule="nonzero">
                                <g id="Group">
                                    <path d="M402.115742,318.213486 C402.115742,318.213486 392.849278,311.135568 361.635928,297.955994 C330.422578,284.532354 276.043068,277.942566 268.23973,270.864648 C260.436394,263.786728 283.602552,251.827486 286.284948,244.5055 C289.2112,237.183514 273.604526,234.25472 273.604526,234.25472 C273.604526,234.25472 275.799214,203.258316 273.604526,186.417749 C271.409836,169.577182 266.776604,169.577182 266.776604,169.577182 C266.776604,169.577182 268.971294,169.333116 271.65369,164.207726 C274.092234,159.082337 246.292844,131.990991 246.292844,131.990991 L253.608472,132.235057 C250.194512,117.835152 270.678274,104.655578 270.678274,104.655578 C280.920154,82.9336882 261.655664,66.8253202 261.655664,66.8253202 C273.116816,65.6049894 273.116816,59.747401 273.116816,59.747401 C273.116816,59.747401 269.702856,60.7236658 261.41181,56.5745406 C253.120764,52.4254156 243.610446,30.2153932 205.081466,10.4460325 C166.552487,-9.3233281 146.800289,5.56470892 146.800289,5.56470892 C146.800289,5.56470892 127.779654,7.27317218 123.146422,7.76130454 C118.269336,8.49350308 115.830793,10.9341649 113.879958,12.6426282 C111.929124,14.3510914 101.443389,12.6426282 85.8367138,21.6730768 C70.2300386,30.7035256 59.7443036,46.079695 58.5250322,54.1338788 C57.3057606,62.1880628 58.2811778,69.7541144 55.111072,74.8795042 C51.940966,80.004894 29.994079,87.3268794 31.9449134,143.950233 C33.8957478,200.573588 60.9635752,245.72583 65.1090982,245.237698 C69.2546214,244.5055 62.1828466,231.814058 64.3775354,229.373396 C66.572224,226.932734 99.736409,265.251126 101.687243,266.959588 C103.638078,268.668052 111.197561,266.959588 112.172978,266.22739 C113.148395,265.495192 109.97829,250.85122 114.367667,248.654624 C118.757044,246.45803 149.726541,290.878074 146.800289,294.295 C143.874037,297.467862 139.728514,299.42039 122.658713,304.54578 C105.588912,309.67117 75.8386874,335.542186 69.4984756,339.935376 C63.1582638,344.328568 59.7443036,343.108236 48.2831516,344.328568 C36.578145,345.304832 0,365.562326 0,365.562326 C1.4631258,367.270788 3.1701059,368.735186 4.63323172,370.44365 C7.07177472,368.002988 9.99802632,365.806392 13.4119865,364.58606 C15.8505295,363.853862 18.2890725,363.609796 20.4837612,362.633532 C24.8731386,360.925068 28.2870988,357.02001 32.1887676,354.335282 C36.0904364,351.406486 41.6990854,349.94209 45.6007542,352.870884 C47.5515886,354.579348 48.5270058,357.264076 48.7708602,359.948804 C48.7708602,362.633532 48.0392972,364.830126 47.5515886,367.270788 C44.625337,364.58606 41.2113768,362.633532 37.309708,362.389466 C33.4080392,361.901332 29.262516,363.36573 27.0678274,366.53859 C25.116993,368.979252 24.38543,372.640244 21.7030328,374.104642 C20.239907,374.83684 18.2890725,374.83684 16.5820924,375.080906 C14.631258,375.324972 12.6804236,375.813106 11.2172978,376.78937 C18.2890725,383.623222 25.3608472,389.724878 32.432622,395.3384 C32.6764762,394.362134 32.9203306,393.38587 33.1641848,392.16554 C33.8957478,389.968944 34.871165,388.016414 36.0904364,386.30795 C37.309708,384.599488 38.5289794,383.13509 39.9921052,381.670694 C41.6990854,379.718164 43.6499198,377.765634 45.3569,376.057172 C45.6007542,375.813106 46.0884628,375.324972 46.5761714,375.080906 C47.06388,374.83684 47.795443,374.83684 48.5270058,374.83684 C50.4778402,374.83684 52.4286746,374.83684 54.379509,374.83684 C54.8672176,378.0097 53.4040918,381.426628 51.4532574,384.111356 C49.502423,386.796084 46.5761714,388.748612 43.8937742,390.457076 C41.9429398,391.677406 39.748251,393.141804 38.5289794,395.3384 C38.0412708,396.314664 37.7974166,397.290928 37.309708,398.267194 C37.309708,398.267194 37.0658536,398.51126 37.0658536,398.51126 C71.44931,424.870408 108.515164,438.78218 144.361746,444.395702 L155.091335,375.080906 C155.091335,375.080906 173.624262,371.908046 183.13458,361.4132 C192.644897,350.918354 218.981162,352.382752 218.981162,352.382752 C218.981162,352.382752 219.712724,348.721758 218.981162,353.847148 C218.2496,358.972538 229.954606,356.775942 229.954606,356.775942 C254.58389,343.840436 267.508168,364.097928 267.508168,364.097928 L260.924102,364.097928 C260.924102,364.097928 259.460976,370.44365 253.852326,400.46379 C250.194512,419.500952 244.829718,433.412724 241.415758,440.978776 C246.292844,439.758444 251.413784,438.538114 256.047016,437.317782 C264.094208,422.18568 276.286922,394.6062 277.750048,364.58606 C277.750048,364.58606 284.09026,361.4132 284.09026,364.58606 C284.09026,366.782656 282.627134,405.345112 281.651718,428.5314 C286.528804,426.57887 290.91818,424.626342 295.307558,422.429746 L300.672352,376.545304 C309.451108,367.026722 318.961426,389.724878 324.082366,405.345112 C388.828318,364.097928 402.115742,318.213486 402.115742,318.213486 Z" id="Path" fill="#000000"></path>
                                    <path d="M370.658536,321.87448 C370.658536,326.26767 368.463848,328.464266 368.463848,328.464266 L360.904364,319.433818 C360.904364,319.677884 370.658536,317.725354 370.658536,321.87448 Z" id="Path" fill="#FFFFFF"></path>
                                    <path d="M265.31348,81.4692912 C271.897546,94.4047986 265.31348,102.947115 265.31348,102.947115 C264.338062,91.7200708 246.292844,73.9032396 246.292844,73.9032396 C246.292844,73.9032396 258.485558,68.5337836 265.31348,81.4692912 Z" id="Path" fill="#FFFFFF"></path>
                                    <path d="M254.58389,100.018321 C254.58389,100.018321 260.924102,105.631843 252.633056,108.072505 C244.34201,110.757233 241.415758,108.072505 241.415758,108.072505 L254.58389,100.018321 Z" id="Path" fill="#FFFFFF"></path>
                                    <path d="M142.654766,14.5951576 C143.630183,12.398562 146.556435,12.1544958 148.751123,12.1544958 C157.773732,12.398562 166.552487,12.398562 175.331242,12.8866943 C175.087388,10.9341649 173.868116,8.98163544 172.161136,7.76130454 C175.575096,7.27317218 178.989057,7.029106 182.403017,7.27317218 C183.622288,7.27317218 185.085414,7.51723836 186.304686,7.76130454 C187.767811,8.00537072 188.987083,8.98163544 190.206354,9.713834 C198.009692,14.3510914 206.300738,18.5002165 214.591784,22.4052754 C218.005744,24.1137386 221.66356,25.5781358 224.833666,28.0187976 C228.003772,30.4594594 230.686168,33.3882536 231.661586,37.2933124 C231.661586,37.5373786 231.661586,38.025511 231.661586,38.5136434 C229.466896,39.2458418 227.028354,39.2458418 224.833666,38.2695772 C223.858248,38.5136434 222.638976,38.2695772 221.907414,37.5373786 C217.274182,34.3645182 212.64095,31.1916578 207.52001,29.2391284 C202.39907,27.0425328 196.546566,26.066268 191.181772,27.0425328 C194.595732,29.2391284 196.790421,31.9238564 199.960526,34.120452 C202.155216,35.8289154 204.593758,37.7814448 205.325322,40.4661728 C200.448236,38.025511 195.08344,36.80518 189.718646,36.3170476 C186.54854,36.0729816 183.13458,36.0729816 179.72062,36.0729816 C177.282077,36.0729816 174.843534,36.0729816 172.648845,36.3170476 C171.185719,36.3170476 169.722593,36.3170476 168.259467,37.0492462 C167.040196,37.5373786 165.089361,39.0017756 165.089361,40.4661728 C161.919256,39.489908 158.505295,42.6627684 155.335189,41.6865036 C153.140501,41.1983714 151.921229,39.0017756 149.970395,37.7814448 C148.01956,36.5611138 145.337163,36.5611138 142.89862,36.5611138 C142.654766,35.0967168 143.630183,33.6323198 144.849455,32.9001212 C146.068726,32.1679226 147.531852,31.9238564 148.994978,31.6797902 C152.896646,30.9475918 156.798315,30.2153932 160.699984,28.9950622 C162.406964,28.50693 164.357799,27.5306652 164.357799,25.822202 C164.357799,25.0900034 164.113944,24.601871 163.626236,24.1137386 C161.919256,21.4290106 158.993004,19.7205474 156.066752,19.7205474 C154.115918,19.7205474 152.165084,20.2086798 150.214249,20.452746 C148.263415,20.6968122 146.31258,20.9408784 144.6056,19.9646136 C143.142474,18.5002165 141.923203,16.3036209 142.654766,14.5951576 Z" id="Path" fill="#FFFFFF"></path>
                                    <path d="M187.036249,58.5270702 L181.183745,58.5270702 C181.183745,58.5270702 179.232911,51.693217 183.378434,52.4254156 C187.767811,53.1576142 187.036249,58.5270702 187.036249,58.5270702 Z" id="Path" fill="#FFFFFF"></path>
                                    <path d="M111.68527,41.9305698 C112.172978,41.4424374 112.904541,40.9543052 113.39225,40.4661728 C115.586938,39.2458418 117.781627,38.025511 119.976316,37.0492462 C123.146422,35.5848492 126.804236,34.8526506 130.218197,34.8526506 C131.437468,34.8526506 132.900594,36.5611138 132.65674,37.7814448 C132.169031,38.7577094 131.193614,39.489908 130.218197,39.9780404 C129.486634,40.4661728 128.511216,40.710239 127.779654,41.1983714 C126.560382,41.9305698 125.34111,42.4187022 124.121839,42.9068346 C120.464024,44.3712316 115.09923,44.6152978 111.197561,44.1271654 C110.953707,43.1509008 111.197561,42.4187022 111.68527,41.9305698 Z" id="Path" fill="#FFFFFF"></path>
                                    <path d="M82.6666078,30.7035256 C87.2998396,29.971327 91.4453628,35.0967168 95.8347402,30.4594594 C96.8101574,29.4831946 97.297866,28.2628638 98.5171374,27.5306652 C100.467972,26.3103342 102.906515,27.0425328 104.857349,28.0187976 C105.345058,30.9475918 103.394223,33.6323198 101.443389,35.8289154 C99.9802632,37.5373786 98.5171374,39.2458418 97.0540116,40.9543052 C96.0785944,42.174636 94.859323,43.394967 93.3961972,43.8830992 C91.689217,44.6152978 89.7383826,44.1271654 88.0314026,43.8830992 C83.8858794,43.394967 79.7403562,43.1509008 75.3509788,43.394967 C75.3509788,39.489908 78.0333762,31.435724 82.6666078,30.7035256 Z" id="Path" fill="#FFFFFF"></path>
                                    <path d="M60.4758666,148.099358 C60.4758666,148.099358 54.8672176,152.248484 54.6233634,148.099358 C54.379509,143.950233 60.4758666,142.24177 60.4758666,142.24177 L60.4758666,148.099358 Z" id="Path" fill="#FFFFFF"></path>
                                    <path d="M60.4758666,131.990991 L54.6233634,131.990991 C54.6233634,131.990991 53.6479462,126.133402 57.549615,126.133402 C61.4512838,126.133402 60.4758666,131.990991 60.4758666,131.990991 Z" id="Path" fill="#FFFFFF"></path>
                                    <path d="M63.1582638,89.523475 C63.1582638,89.523475 56.3303434,89.279409 57.3057606,85.1302838 C58.2811778,80.9811588 71.44931,66.581254 71.44931,66.581254 C71.44931,66.581254 77.5456676,62.432129 76.5702504,68.5337836 C75.1071246,74.635438 63.1582638,89.523475 63.1582638,89.523475 Z" id="Path" fill="#FFFFFF"></path>
                                    <path d="M66.8160784,101.482718 C66.8160784,101.482718 73.1562902,103.92338 85.3490052,93.6726002 C97.5417202,83.4218206 97.5417202,83.4218206 97.5417202,83.4218206 C97.5417202,83.4218206 103.150369,91.4760046 97.5417202,95.3810634 C91.9330714,99.2861224 87.7875482,99.2861224 87.0559854,102.947115 C86.3244224,106.852174 66.572224,110.757233 66.8160784,101.482718 Z" id="Path" fill="#FFFFFF"></path>
                                    <path d="M97.297866,146.146829 C96.566303,135.651983 84.373588,131.014726 84.373588,131.014726 C86.5682768,121.496145 105.832766,130.526593 103.394223,138.580777 C100.95568,146.634961 110.465998,165.672123 110.465998,165.672123 C110.465998,165.672123 98.0294288,156.641675 97.297866,146.146829 Z" id="Path" fill="#FFFFFF"></path>
                                    <path d="M117.781627,213.265028 C117.781627,213.265028 108.759018,211.556566 106.320475,200.573588 C103.881932,189.590609 112.904541,189.346543 112.904541,189.346543 C112.904541,189.346543 113.636104,198.865124 119.732462,201.305786 C125.828819,203.746448 133.632157,211.556566 133.632157,211.556566 C133.632157,211.556566 128.511216,211.068434 124.121839,210.336234 C119.732462,209.604036 117.781627,213.265028 117.781627,213.265028 Z" id="Path" fill="#FFFFFF"></path>
                                    <path d="M97.0540116,333.101524 C96.0785944,334.321854 95.1031772,335.29812 94.12776,336.51845 C93.3961972,337.250648 92.6646342,338.226914 92.6646342,339.447244 C92.1769256,339.447244 90.4699456,338.47098 90.2260912,337.73878 C89.982237,337.006582 90.2260912,336.51845 90.4699456,336.030318 C90.7137998,334.809986 91.2015084,333.589656 91.4453628,332.369324 C91.689217,331.881192 91.689217,331.39306 91.9330714,330.904928 C92.42078,330.17273 92.9084886,329.684596 93.6400514,329.196464 C95.1031772,328.2202 96.8101574,327.243936 98.7609918,326.755802 C100.711826,326.26767 101.931098,326.755802 103.638078,327.976134 C100.95568,328.708332 98.7609918,330.904928 97.0540116,333.101524 Z" id="Path" fill="#FFFFFF"></path>
                                    <path d="M111.68527,320.898214 C111.197561,317.96942 112.904541,314.79656 115.343084,313.088096 C117.781627,311.379634 120.951733,310.647434 124.121839,310.8915 C124.365693,310.8915 124.609548,310.8915 124.853402,311.135568 C125.097256,311.379634 125.097256,311.6237 125.097256,311.867766 C125.34111,315.528758 125.584965,319.189752 125.34111,322.850744 C124.121839,323.338876 122.902567,323.09481 121.683296,322.850744 C118.025481,321.386346 115.343084,321.14228 111.68527,320.898214 Z" id="Path" fill="#FFFFFF"></path>
                                    <path d="M122.902567,354.823414 C123.146422,354.335282 123.146422,353.847148 123.390276,353.11495 C124.121839,350.430222 124.853402,347.745494 126.804236,346.037032 C128.023508,345.060766 129.486634,344.572634 130.949759,344.328568 C132.65674,344.084502 134.36372,343.840436 135.826845,343.840436 C136.314554,343.840436 136.558408,343.840436 137.046117,344.084502 C137.77768,344.328568 138.021534,344.8167 138.509243,345.304832 C140.947786,348.477692 141.679349,352.870884 140.460077,356.531876 C139.240806,356.531876 138.021534,356.531876 137.046117,356.043744 C136.802263,356.043744 136.558408,355.799678 136.558408,355.799678 C136.314554,355.555612 136.314554,355.311546 136.314554,355.06748 C136.0707,354.091214 134.851428,353.359016 133.632157,353.11495 C131.925177,352.870884 130.218197,353.11495 128.755071,353.603082 C127.779654,354.091214 126.804236,354.823414 125.828819,355.06748 C124.853402,355.555612 123.877985,355.06748 122.902567,354.823414 Z" id="Path" fill="#FFFFFF"></path>
                                    <path d="M142.410912,438.538114 L136.558408,437.073716 C136.558408,437.073716 134.36372,430.48393 136.558408,424.626342 C136.558408,424.626342 131.925177,424.382276 132.169031,434.388988 C132.169031,434.388988 123.877985,426.57887 127.535799,419.01282 C131.437468,411.690834 135.582991,412.667098 135.582991,407.297642 C135.582991,401.928186 136.558408,396.55873 136.558408,396.55873 L141.19164,394.118068 L142.654766,376.301238 C142.654766,376.301238 148.994978,375.080906 148.507269,385.331686 C148.01956,395.582466 142.410912,438.538114 142.410912,438.538114 Z" id="Path" fill="#FFFFFF"></path>
                                    <path d="M154.847481,324.071074 C153.140501,323.827008 150.458103,323.582942 148.507269,323.582942 C148.263415,321.14228 148.263415,318.701618 148.994978,316.260956 C149.238832,315.284692 149.726541,314.552494 149.970395,313.820296 C150.945812,312.111832 151.921229,310.159302 152.896646,308.45084 C153.384355,307.71864 153.628209,308.45084 154.115918,308.938972 C157.773732,313.576228 161.431547,318.701618 161.919256,324.803274 C159.480713,324.071074 157.04217,324.31514 154.847481,324.071074 Z" id="Path" fill="#FFFFFF"></path>
                                    <path d="M208.983136,312.355898 C208.007718,312.84403 206.788446,312.599964 205.81303,312.355898 L205.81303,312.84403 C205.325322,313.088096 204.837612,312.599964 204.593758,312.111832 C204.349904,311.6237 204.349904,311.135568 204.349904,310.647434 C204.349904,309.67117 204.349904,308.45084 205.325322,307.71864 C205.569176,307.474574 206.056884,307.474574 206.544592,307.230508 C207.032302,307.230508 207.52001,307.230508 208.251572,307.474574 C209.958552,307.962706 211.177824,309.67117 210.93397,311.379634 C209.958552,311.379634 209.714698,312.111832 208.983136,312.355898 Z" id="Path" fill="#FFFFFF"></path>
                                    <path d="M221.66356,318.213486 C221.419704,320.410082 219.225016,323.09481 216.786474,321.14228 C216.298764,320.654148 216.05491,319.92195 216.05491,319.189752 C216.05491,318.457552 215.811056,317.96942 215.811056,317.237222 C215.811056,316.74909 215.567202,316.260956 216.05491,315.772824 C216.298764,315.284692 217.030328,315.284692 217.518036,315.284692 C218.2496,315.284692 218.981162,315.284692 219.712724,315.284692 C220.200434,315.284692 220.444288,315.284692 220.931996,315.528758 C221.66356,316.01689 221.907414,317.237222 221.66356,318.213486 Z" id="Path" fill="#FFFFFF"></path>
                                    <path d="M233.368566,324.31514 C233.124712,324.559208 232.637002,324.559208 232.149294,324.559208 C228.979188,324.559208 228.247626,323.827008 228.247626,320.654148 C228.247626,320.410082 228.247626,319.92195 228.49148,319.677884 C228.735334,319.433818 229.223042,319.433818 229.466896,319.433818 C230.686168,319.433818 231.90544,319.433818 233.124712,319.92195 C233.368566,319.92195 233.61242,320.166016 233.61242,320.410082 C233.856274,320.654148 233.856274,320.898214 233.856274,321.14228 C233.856274,321.630412 233.856274,322.362612 233.856274,322.850744 C233.856274,323.338876 233.856274,324.071074 233.368566,324.31514 Z" id="Path" fill="#FFFFFF"></path>
                                    <path d="M235.563254,288.681478 C232.880858,291.12214 208.739282,295.0272 198.253546,288.681478 C187.767811,282.335758 187.767811,282.335758 187.767811,282.335758 C187.767811,282.335758 174.843534,284.044222 164.601653,276.966302 C154.359772,270.132448 153.628209,261.834198 153.628209,261.834198 C153.628209,261.834198 125.584965,256.464742 124.365693,246.702096 L148.751123,249.63089 C148.751123,249.63089 115.586938,236.695382 119.732462,231.814058 C123.877985,226.932734 133.632157,231.814058 133.632157,231.814058 L155.091335,243.529236 C155.091335,243.529236 152.652792,240.844508 156.798315,239.624176 C160.943838,238.403846 163.138527,242.797036 163.138527,242.797036 C163.138527,242.797036 168.015613,236.939448 172.404991,239.624176 C176.794368,242.308904 183.622288,246.213964 183.622288,246.213964 L188.011666,244.5055 C188.011666,244.5055 180.452182,240.60044 179.476765,234.742852 C178.501348,228.885264 168.015613,229.617462 167.28405,232.546256 C167.28405,232.546256 148.01956,222.78361 148.994978,220.342948 C149.970395,217.902286 157.773732,212.044698 157.773732,212.044698 L141.19164,203.258316 C141.19164,203.258316 137.533826,207.40744 134.119865,204.966778 C130.705905,202.526116 119.732462,191.787205 122.902567,189.590609 C126.072673,187.394014 132.412885,190.81094 132.412885,190.81094 L141.679349,197.644793 L142.654766,193.495668 C142.654766,193.495668 133.876011,185.68555 135.095283,184.709286 C136.314554,183.733021 145.581017,184.709286 145.581017,184.709286 C146.556435,177.143234 145.337163,169.333116 143.142474,162.011131 C140.947786,154.689145 136.802263,147.855292 131.193614,142.973969 C130.949759,141.753638 130.705905,140.533307 131.681322,139.557042 C134.36372,139.801108 137.046117,140.045174 139.48466,140.533307 C139.972369,140.533307 140.216223,140.533307 140.703931,140.289241 C141.19164,140.045174 141.19164,139.557042 141.19164,139.06891 C141.19164,137.11638 139.728514,135.407917 138.753097,133.699454 C136.558408,129.550329 137.533826,124.669005 137.289971,120.031748 C137.046117,112.22163 134.119865,105.143711 131.193614,97.8217252 C130.705905,96.6013944 130.218197,95.3810634 129.242779,94.6488648 C128.267362,93.9166664 126.804236,93.428534 125.828819,94.1607326 C124.365693,99.7742546 122.902567,105.631843 122.414859,111.489431 C122.414859,112.709762 122.171005,113.686027 121.683296,114.662292 C121.195587,115.638556 120.22017,116.614821 119.000899,116.614821 C117.781627,116.614821 117.050064,115.638556 116.562356,114.662292 C116.074647,113.686027 116.074647,112.465696 116.074647,111.489431 C115.830793,102.947115 115.586938,94.4047986 115.09923,85.8624824 C115.09923,84.8862176 115.09923,84.1540192 115.09923,83.1777544 C115.343084,81.7133574 116.074647,80.2489602 116.318501,78.7845632 C116.562356,77.320166 115.586938,75.3676366 113.879958,75.6117028 C113.636104,77.320166 112.904541,78.7845632 112.172978,80.2489602 C111.68527,81.4692912 110.953707,82.689622 109.734435,83.4218206 C109.002872,83.6658868 108.271309,83.909953 107.539747,83.909953 C106.564329,84.1540192 105.101204,84.1540192 104.613495,83.1777544 C104.369641,82.689622 104.125786,82.2014896 104.125786,81.7133574 C103.881932,80.2489602 103.881932,78.540497 103.881932,76.8320336 C108.027455,70.7303792 112.416833,64.3846584 118.51319,60.2355334 C120.951733,58.5270702 123.63413,57.062673 126.560382,56.3304746 C128.998925,55.8423422 131.437468,55.8423422 133.876011,55.8423422 C135.095283,55.8423422 136.314554,55.8423422 137.289971,56.3304746 C139.240806,57.3067392 139.972369,60.2355334 142.167057,61.2117982 C144.361746,62.1880628 146.800289,63.1643276 149.238832,62.9202614 C151.677375,62.6761952 153.872064,61.9439966 156.310607,61.6999304 C162.16311,60.7236658 168.259467,61.4558644 173.624262,63.8965262 C176.550514,65.3609232 179.476765,67.0693864 182.646871,67.801585 C184.84156,68.2897174 186.792394,68.2897174 188.987083,68.2897174 C190.206354,68.2897174 191.66948,68.2897174 192.888752,67.5575188 C194.839586,66.581254 196.302712,64.1405922 198.741255,64.1405922 C200.20438,64.1405922 201.667506,64.8727908 202.155216,66.0931218 C202.642924,67.3134526 202.642924,68.7778498 202.642924,70.2422468 C202.39907,75.6117028 202.155216,80.7370926 201.91136,86.1065486 C203.374486,86.838747 204.837612,86.1065486 206.300738,85.37435 C208.007718,84.3980852 209.470844,83.1777544 210.690116,81.7133574 C212.397096,79.5167616 212.884804,76.5879676 214.591784,74.1473056 C216.05491,74.3913718 218.2496,73.4151072 219.46887,73.9032396 C225.809082,76.8320336 232.637002,80.004894 237.02638,85.6184162 C238.489506,87.5709456 239.952632,90.0116074 239.221068,92.4522692 C238.001798,97.8217252 232.393148,101.97085 227.028354,102.947115 C227.516062,104.411512 228.735334,105.387777 230.19846,106.119975 C231.661586,106.608108 232.880858,107.340306 234.343982,107.828439 C234.343982,108.804703 234.100128,109.536902 233.856274,110.513167 C231.90544,114.662292 232.149294,119.299549 232.393148,123.69274 C232.393148,124.669005 232.393148,125.64527 232.637002,126.621535 C243.366592,135.163851 252.87691,145.170564 260.924102,156.397609 C262.631082,158.83827 261.899518,162.743329 261.899518,165.672123 C257.99785,163.96366 253.608472,163.475528 249.706804,165.183991 C245.317426,167.136521 242.63503,171.285646 240.44034,175.434771 C241.415758,175.678837 242.391174,175.434771 243.366592,174.946638 C247.024406,173.238175 251.16993,173.238175 255.315452,173.238175 C256.534724,173.238175 257.753996,173.238175 259.217122,173.482241 C261.655664,173.970374 263.850354,175.434771 266.045042,176.899168 C268.23973,182.756756 268.483584,189.102477 268.971294,195.448198 C269.702856,208.383706 269.946962,221.319212 269.946962,234.25472 C269.946962,234.25472 270.190566,236.695382 249.219096,243.041102 C228.247626,249.386824 214.835638,248.166492 214.835638,248.166492 C214.835638,248.166492 221.17585,259.88167 233.61242,259.88167 C233.61242,259.88167 235.075546,273.061242 235.075546,276.722236 C235.563254,280.87136 238.001798,286.240816 235.563254,288.681478 Z" id="Path" fill="#FFFFFF"></path>
                                    <path d="M249.950658,253.780014 L267.264314,253.780014 L248.731386,276.966302 L243.366592,276.966302 C244.098154,264.27486 249.950658,253.780014 249.950658,253.780014 Z" id="Path" fill="#FFFFFF"></path>
                                    <path d="M251.413784,337.982848 C250.194512,339.203178 247.75597,340.179442 246.536698,338.959112 C244.829718,337.250648 245.073572,333.589656 245.317426,331.39306 C245.317426,330.904928 245.317426,330.17273 245.56128,329.684596 C245.805134,329.196464 246.292844,328.708332 246.780552,328.464266 C247.512116,328.2202 248.243678,328.708332 248.731386,329.44053 C249.219096,329.928664 249.706804,330.660862 250.194512,331.148994 C250.68222,331.39306 251.16993,331.637126 251.413784,331.881192 C251.901492,332.369324 252.145346,332.857458 252.389202,333.34559 C252.87691,335.054052 252.389202,336.762516 251.413784,337.982848 Z" id="Path" fill="#FFFFFF"></path>
                                    <path d="M269.702856,317.96942 C268.483584,318.213486 266.045042,317.96942 265.069624,316.993156 C262.387228,314.79656 263.11879,306.986442 264.581916,304.301714 C264.82577,303.813582 265.31348,303.081384 265.801188,302.837318 C266.288896,302.59325 267.02046,302.349184 267.752022,302.59325 C267.995876,302.837318 268.23973,302.837318 268.483584,303.081384 C269.702856,304.301714 270.678274,305.766112 270.922128,307.230508 C271.409836,308.694906 271.409836,310.159302 271.409836,311.6237 C271.409836,313.820296 272.385254,317.237222 269.702856,317.96942 Z" id="Path" fill="#FFFFFF"></path>
                                    <path d="M283.114842,347.501428 C281.651718,346.76923 280.188592,346.037032 278.96932,344.8167 C277.993902,343.840436 277.26234,342.86417 276.043068,341.887906 C275.067652,341.155708 274.092234,340.667576 273.604526,339.935376 C272.872962,338.959112 273.116816,337.73878 273.116816,336.51845 C273.116816,335.054052 273.116816,332.613392 274.092234,331.637126 C276.043068,331.637126 277.750048,332.613392 279.213174,333.833722 C280.6763,335.054052 281.651718,336.762516 282.627134,338.47098 C282.870988,339.203178 283.358698,339.935376 283.602552,340.667576 C284.09026,342.86417 283.846406,345.304832 283.114842,347.501428 Z" id="Path" fill="#FFFFFF"></path>
                                    <path d="M305.06173,291.12214 C303.598604,296.003464 301.64777,295.0272 301.64777,295.0272 L291.162034,284.77642 C292.62516,280.139162 306.524856,286.240816 305.06173,291.12214 Z" id="Path" fill="#FFFFFF"></path>
                                    <path d="M299.94079,355.555612 C298.721518,354.335282 297.258392,352.870884 296.282976,351.16242 C294.81985,348.477692 294.33214,345.548898 295.063704,342.620104 C295.063704,342.376038 295.307558,341.887906 295.307558,341.64384 C297.502246,342.620104 299.94079,344.8167 301.403916,346.76923 C302.379332,347.98956 303.35475,349.209892 304.086312,350.430222 C304.817876,351.89462 305.06173,353.359016 305.305584,354.823414 C305.549438,356.043744 305.793292,357.508142 306.037148,358.728472 C303.842458,358.972538 301.64777,357.264076 299.94079,355.555612 Z" id="Path" fill="#FFFFFF"></path>
                                    <path d="M318.961426,350.430222 C316.522882,348.965826 314.815902,346.525164 313.59663,343.840436 C312.37736,341.155708 311.645796,338.226914 310.426524,335.786252 C312.37736,336.030318 314.328194,337.250648 315.79132,338.47098 C317.4983,339.935376 319.20528,341.887906 320.668406,343.59637 C320.91226,343.840436 321.399968,344.328568 321.399968,344.8167 C321.643822,345.060766 321.643822,345.548898 321.643822,345.792964 C321.887676,347.501428 322.131532,349.209892 322.61924,350.918354 C321.399968,351.406486 319.936842,351.16242 318.961426,350.430222 Z" id="Path" fill="#FFFFFF"></path>
                                    <path d="M342.615292,350.186156 C341.639876,353.847148 337.006644,354.579348 337.006644,354.579348 C335.787372,347.745494 313.352776,321.630412 313.352776,321.630412 C321.399968,310.403368 343.59071,346.525164 342.615292,350.186156 Z" id="Path" fill="#FFFFFF"></path>
                                    <path d="M174.111971,244.5055 C173.868116,245.237698 174.111971,245.969896 173.868116,246.702096 C173.624262,247.434294 173.136553,247.922426 172.404991,248.166492 C171.673428,248.410558 170.941865,248.410558 170.454156,248.410558 C168.259467,248.410558 167.040196,247.190228 165.089361,247.190228 C163.138527,247.190228 160.943838,247.190228 158.993004,247.190228 C158.74915,247.922426 158.74915,248.654624 159.236858,249.142758 C160.212275,250.363088 161.431547,251.58342 162.894673,251.827486 C164.357799,252.315618 165.820924,252.315618 167.28405,252.315618 C170.69801,252.315618 173.868116,252.80375 177.282077,253.047816 C177.282077,252.071552 177.282077,251.095286 177.525931,250.119022 C177.525931,249.63089 177.769785,249.386824 177.769785,248.898692 C178.257494,247.190228 177.525931,245.481764 177.038222,243.773302 C175.818951,243.285168 174.355825,243.529235 174.111971,244.5055 Z" id="Path" fill="#000000"></path>
                                    <path d="M213.860222,274.281574 C209.22699,270.132448 205.81303,264.27486 204.593758,258.173206 C204.349904,257.196942 204.349904,256.464742 204.349904,255.488478 C204.593758,254.512214 205.325322,253.535948 205.81303,252.80375 C207.032302,251.339352 208.007718,250.119022 209.22699,248.654624 C209.714698,247.922426 211.177824,247.190228 211.909388,247.190228 C207.52001,245.72583 203.130632,244.993632 198.741255,244.5055 C197.034275,244.5055 195.08344,244.5055 193.864169,245.481764 C192.644897,246.702096 192.401043,248.410558 192.644897,250.119022 C192.888752,251.827486 193.864169,253.047816 194.839586,254.512214 C197.765838,259.14947 200.935944,263.786728 203.862196,268.423986 C206.300738,272.084978 208.495426,275.74597 211.909388,278.186632 C212.884804,278.918832 214.34793,279.162898 215.079494,278.430698 C215.567202,277.942566 215.567202,276.966302 215.323348,276.234104 C215.079494,275.501904 214.34793,274.769706 213.860222,274.281574 Z" id="Path" fill="#000000"></path>
                                    <path d="M210.93397,261.102 C211.177824,261.590132 211.177824,262.078264 211.665532,262.322332 C212.153242,262.566398 212.64095,262.566398 213.128658,262.322332 C213.616368,262.078264 213.860222,261.834198 214.34793,261.346066 C214.835638,260.613868 215.079494,259.637604 215.323348,258.417272 C213.616368,258.417272 211.909388,258.417272 209.958552,258.417272 C210.202408,259.393536 210.690116,260.125736 210.93397,261.102 Z" id="Path" fill="#000000"></path>
                                    <path d="M229.954606,200.573588 C229.466896,200.817654 228.979188,201.305786 228.735334,202.037984 C228.49148,202.770182 228.49148,203.502382 228.49148,204.23458 C228.735334,205.45491 228.979188,206.431176 229.223042,207.651506 C229.466896,208.627772 229.954606,209.604036 230.686168,210.336234 C231.417732,211.068434 232.637002,211.3125 233.368566,210.824366 C235.807108,209.604036 234.100128,205.698978 236.050962,204.23458 C238.245652,202.526116 242.878884,203.746448 245.317426,204.23458 C246.536698,204.478646 247.512116,204.966778 248.731386,204.966778 C249.950658,204.966778 250.926076,204.722712 251.901492,204.478646 C255.803162,203.502382 259.70483,202.526116 262.387228,199.597323 C263.362644,198.376992 264.094208,196.912595 263.606498,195.448198 C263.362644,194.715999 262.874936,193.9838 262.143374,193.251602 C261.167956,192.275337 260.192538,191.299072 259.217122,190.322808 C258.485558,189.590609 257.510142,188.858411 256.534724,188.614344 C254.340036,187.882146 251.901492,189.590609 250.194512,191.055006 C246.780552,193.739734 243.366592,196.424462 239.221068,197.888859 C236.294818,198.621058 232.637002,198.621058 229.954606,200.573588 Z" id="Path" fill="#000000"></path>
                                    <path d="M256.047016,210.336234 C255.315452,211.068434 254.58389,213.020962 255.315452,213.997228 C256.047016,214.973492 259.217122,214.729426 260.192538,214.729426 C260.436394,214.729426 260.680248,214.729426 260.924102,214.48536 C261.167956,214.241294 261.167956,213.997228 261.167956,213.753162 C261.655664,211.068434 258.241704,208.139638 256.047016,210.336234 Z" id="Path" fill="#000000"></path>
                                    <path d="M259.217122,185.197418 C259.70483,185.68555 260.436394,185.68555 261.167956,185.68555 C262.143374,185.68555 263.11879,185.68555 264.094208,185.68555 C263.850354,184.709286 264.094208,183.733021 264.338062,182.756756 C264.581916,182.268624 264.581916,181.780491 264.581916,181.292359 C264.581916,179.33983 262.143374,177.875432 260.192538,178.119499 C257.753996,178.607631 258.485558,181.048293 258.485558,182.756756 C258.485558,183.733021 258.485558,184.709286 259.217122,185.197418 Z" id="Path" fill="#000000"></path>
                                    <path d="M234.100128,156.885741 C236.538672,158.350138 240.196486,160.546734 243.122738,160.7908 C246.04899,161.034866 246.292844,157.617939 246.292844,155.421344 C246.292844,154.445079 246.292844,153.224748 245.56128,152.49255 C245.073572,152.004417 244.098154,151.760351 243.366592,151.516285 C242.14732,151.272219 241.171904,151.272219 239.952632,151.272219 C239.464924,151.272219 239.221068,151.272219 238.73336,151.028153 C237.757944,150.54002 237.757944,149.319689 237.757944,148.343425 C237.514088,145.170564 236.050962,142.24177 233.61242,140.289241 C232.637002,139.557042 231.417732,138.824844 230.442314,139.312976 C229.710752,139.557042 228.979188,140.289241 228.49148,141.021439 C227.516062,142.485836 226.29679,144.1943 226.052936,146.146829 C226.052936,147.36716 226.29679,148.587491 227.028354,149.807822 C228.49148,152.49255 231.173876,154.933212 234.100128,156.885741 Z" id="Path" fill="#000000"></path>
                                    <path d="M201.179798,143.950233 C200.448236,144.1943 199.716672,144.438366 198.985109,144.926498 C198.253546,145.41463 197.765838,146.146829 197.278129,146.634961 C196.302712,148.099358 196.058858,149.563756 196.058858,151.272219 C199.960526,151.516285 203.61834,151.272219 207.52001,150.784086 C208.495426,149.807822 208.983136,149.319689 208.739282,148.099358 C208.495426,146.879028 207.763864,145.658697 207.032302,144.682432 C206.544592,144.1943 206.056884,143.462101 205.325322,143.462101 C204.837612,143.462101 204.349904,143.462101 203.862196,143.706167 C202.886778,143.462101 201.91136,143.706167 201.179798,143.950233 Z" id="Path" fill="#000000"></path>
                                    <path d="M200.935944,135.896049 C202.642924,134.187586 203.862196,131.746924 203.61834,129.306263 C203.374486,126.865601 201.91136,124.913071 200.448236,122.960542 C199.228964,121.496145 198.009692,119.787681 196.790421,118.323284 C196.058858,117.591086 195.571149,116.614821 194.595732,116.370755 C193.37646,116.126689 192.401043,116.858887 191.425626,117.591086 C186.54854,121.008012 182.403017,124.913071 178.501348,129.550329 C173.624262,135.407917 169.478739,142.485836 169.722593,150.051888 C169.966448,153.956947 173.136553,158.594204 177.038222,159.082337 C175.818951,155.909476 177.038222,152.49255 178.501348,149.319689 C179.476765,146.879028 180.452182,144.682432 182.159163,142.729902 C183.866143,140.777373 186.304686,139.312976 188.743229,139.557042 C188.987083,140.777373 190.694063,141.265505 191.66948,141.265505 C192.888752,141.265505 193.864169,140.777373 194.839586,140.045174 C197.034275,138.824844 199.228964,137.604513 200.935944,135.896049 Z" id="Path" fill="#000000"></path>
                                    <path d="M183.622288,110.757233 C187.767811,108.072505 192.888752,107.09624 198.009692,107.340306 C199.228964,107.340306 200.69209,107.584372 201.91136,107.340306 C203.130632,107.09624 205.569176,104.411512 204.593758,103.435247 C201.667506,100.262387 197.034275,99.0420562 192.644897,99.7742546 C188.25552,100.262387 184.353851,102.214916 180.696037,104.655578 C173.380408,109.536902 167.040196,116.126689 164.113944,124.669005 C168.503322,121.008012 173.380408,119.299549 177.525931,115.638556 C179.476765,113.686027 181.4276,112.22163 183.622288,110.757233 Z" id="Path" fill="#000000"></path>
                                </g>
                                <path d="M181.4276,370.44365 L187.036249,370.44365 C187.036249,370.44365 179.964474,428.043268 167.527904,438.538114 C155.091335,449.03296 151.189666,430.48393 151.189666,430.48393 C151.189666,430.48393 152.896646,426.334804 154.603627,426.334804 C156.310607,426.334804 155.579044,438.78218 165.333216,433.412724 C175.575096,428.287334 181.4276,370.44365 181.4276,370.44365 Z" id="Path" fill="#000000"></path>
                                <path d="M218.737308,368.979252 L224.58981,368.979252 C224.58981,368.979252 226.7845,378.7419 221.66356,378.7419 C216.542618,378.7419 218.737308,368.979252 218.737308,368.979252 Z" id="Path" fill="#000000"></path>
                                <path d="M187.280103,415.10776 L194.108023,415.10776 C194.108023,415.10776 194.351878,427.555136 190.694063,427.555136 C187.036249,427.555136 187.280103,415.10776 187.280103,415.10776 Z" id="Path" fill="#000000"></path>
                                <path d="M200.935944,422.917878 L205.81303,422.917878 C205.81303,422.917878 205.81303,431.70426 200.935944,431.216128 C196.058858,430.727996 200.935944,422.917878 200.935944,422.917878 Z" id="Path" fill="#000000"></path>
                                <path d="M198.741255,436.585584 L204.10605,436.585584 C204.10605,436.585584 204.593758,443.17537 199.960526,442.931304 C195.327295,442.687238 198.741255,436.585584 198.741255,436.585584 Z" id="Path" fill="#000000"></path>
                            </g>
                        </g>
                    </g>
                </g>
            </g>
        </g>
    </g>
</svg>