<?xml version="1.0" encoding="UTF-8"?>
<svg width="165px" height="80px" viewBox="0 0 165 80" version="1.1" xmlns="http://www.w3.org/2000/svg" xmlns:xlink="http://www.w3.org/1999/xlink">
    <!-- Generator: Sketch 56.3 (81716) - https://sketch.com -->
    <title>short-logo</title>
    <desc>Created with Sketch.</desc>
    <defs>
        <circle id="path-1" cx="40" cy="40" r="40"></circle>
    </defs>
    <g id="Page-1" stroke="none" stroke-width="1" fill="none" fill-rule="evenodd">
        <g id="long-pip-monder-lowercase-copy-2" transform="translate(-15.000000, -15.000000)">
            <g id="short-logo" transform="translate(15.000000, 15.000000)">
                <g id="pip-ge-initals" transform="translate(82.000000, 8.000000)" fill="#000000" font-family="HKGrotesk-Light, HK Grotesk" font-size="54" font-weight="300">
                    <text id="g_e">
                        <tspan x="0" y="49">g_e</tspan>
                    </text>
                </g>
                <g id="pip-circle-copy">
                    <mask id="mask-2" fill="white">
                        <use xlink:href="#path-1"></use>
                    </mask>
                    <use id="Oval" fill="#FFFFFF" xlink:href="#path-1"></use>
                    <g id="pip" mask="url(#mask-2)">
                        <g transform="translate(12.093023, 12.093023)">
                            <path d="M0,56.2101344 C25.6515889,81.5573223 57.5401582,63.221971 63.255814,49.1200187 C39.2583162,50.7929399 20.509249,52.3860193 7.00861237,53.8992569 C6.45240147,53.9616006 4.11619735,54.7318931 0,56.2101344 Z" id="Path-2" fill="#FFFFFF"></path>
                            <g id="pip1" stroke-width="1" fill="none">
                                <g id="Group" fill-rule="nonzero">
                                    <path d="M63.2174771,49.0222599 C63.2174771,49.0222599 61.7606765,47.9318737 56.8535588,45.9014994 C51.9464412,43.8335256 43.3973221,42.8183384 42.1705426,41.7279522 C40.9437632,40.637566 44.5857646,38.7951893 45.00747,37.6672036 C45.4675123,36.5392178 43.0139535,36.0880235 43.0139535,36.0880235 C43.0139535,36.0880235 43.3589852,31.3128839 43.0139535,28.7185167 C42.6689218,26.1241496 41.9405215,26.1241496 41.9405215,26.1241496 C41.9405215,26.1241496 42.2855532,26.08655 42.7072586,25.29696 C43.0906272,24.50737 38.7202255,20.3338228 38.7202255,20.3338228 L39.8703312,20.3714223 C39.3336152,18.1530504 42.5539112,16.1226761 42.5539112,16.1226761 C44.1640592,12.7763184 41.1354475,10.2947498 41.1354475,10.2947498 C42.9372798,10.1067522 42.9372798,9.20436358 42.9372798,9.20436358 C42.9372798,9.20436358 42.4005638,9.35476167 41.0971106,8.71556976 C39.7936575,8.07637784 38.2985201,4.65482112 32.2412967,1.60925965 C26.1840733,-1.43630183 23.0787879,0.857269157 23.0787879,0.857269157 C23.0787879,0.857269157 20.088513,1.12046583 19.3601128,1.19566488 C18.5933756,1.30846345 18.210007,1.68445869 17.9033122,1.94765536 C17.5966173,2.21085204 15.9481325,1.94765536 13.4945736,3.33883777 C11.0410148,4.73002017 9.39252995,7.09879021 9.20084567,8.33957452 C9.00916138,9.58035882 9.16250881,10.7459441 8.66412967,11.5355341 C8.16575053,12.3251241 4.7154334,13.4531098 5.02212826,22.1761995 C5.32882311,30.8992892 9.58421424,37.8552012 10.2359408,37.7800021 C10.8876674,37.6672036 9.77589852,35.7120283 10.1209302,35.336033 C10.4659619,34.9600378 15.6797745,40.8631631 15.9864693,41.1263598 C16.2931642,41.3895565 17.4816068,41.1263598 17.6349542,41.0135612 C17.7883016,40.9007627 17.2899225,38.6447912 17.9799859,38.3063955 C18.6700493,37.9679998 23.5388302,44.8111132 23.0787879,45.3375065 C22.6187456,45.8263004 21.967019,46.1270966 19.283439,46.9166866 C16.5998591,47.7062766 11.9227625,51.6918262 10.9260042,52.3686176 C9.92924595,53.045409 9.39252995,52.8574114 7.59069767,53.045409 C5.75052854,53.1958071 0,56.3165677 0,56.3165677 C0.230021142,56.5797643 0.49837914,56.8053615 0.728400282,57.0685582 C1.11176885,56.6925629 1.57181113,56.3541672 2.10852713,56.1661696 C2.4918957,56.053371 2.87526427,56.0157715 3.22029598,55.8653734 C3.91035941,55.6021767 4.44707541,55.0005843 5.06046512,54.5869895 C5.67385483,54.1357953 6.55560254,53.9101981 7.16899225,54.3613924 C7.4756871,54.6245891 7.62903453,55.0381838 7.66737139,55.4517786 C7.66737139,55.8653734 7.55236082,56.2037691 7.4756871,56.5797643 C7.01564482,56.1661696 6.47892882,55.8653734 5.86553911,55.8277739 C5.2521494,55.7525748 4.60042283,55.978172 4.25539112,56.4669658 C3.94869626,56.842961 3.83368569,57.4069539 3.41198027,57.632551 C3.18195913,57.7453496 2.87526427,57.7453496 2.60690627,57.7829491 C2.30021142,57.8205486 1.99351656,57.8957477 1.76349542,58.0461458 C2.87526427,59.0989325 3.98703312,60.0389206 5.09880197,60.9037097 C5.13713883,60.7533116 5.17547569,60.6029135 5.21381254,60.4149158 C5.32882311,60.0765201 5.48217054,59.7757239 5.67385483,59.5125272 C5.86553911,59.2493306 6.0572234,59.0237334 6.28724454,58.7981363 C6.55560254,58.4973401 6.86229739,58.1965439 7.13065539,57.9333472 C7.16899225,57.8957477 7.24566596,57.8205486 7.32233968,57.7829491 C7.39901339,57.7453496 7.51402396,57.7453496 7.62903453,57.7453496 C7.93572939,57.7453496 8.24242424,57.7453496 8.5491191,57.7453496 C8.62579281,58.2341434 8.39577167,58.7605368 8.08907681,59.1741315 C7.78238196,59.5877263 7.32233968,59.8885225 6.90063425,60.1517192 C6.59393939,60.3397168 6.24890768,60.5653139 6.0572234,60.9037097 C5.98054968,61.0541077 5.94221283,61.2045058 5.86553911,61.3549039 C5.86553911,61.3549039 5.82720226,61.3925035 5.82720226,61.3925035 C11.2326991,65.4532521 17.0599013,67.596425 22.6954193,68.4612141 L24.382241,57.7829491 C24.382241,57.7829491 27.2958421,57.2941553 28.7909796,55.6773758 C30.286117,54.0605962 34.4264975,54.2861934 34.4264975,54.2861934 C34.4264975,54.2861934 34.5415081,53.7222005 34.4264975,54.5117905 C34.311487,55.3013805 36.1516561,54.9629848 36.1516561,54.9629848 C40.0236786,52.97021 42.0555321,56.0909705 42.0555321,56.0909705 L41.0204369,56.0909705 C41.0204369,56.0909705 40.7904158,57.0685582 39.9086681,61.6932997 C39.3336152,64.6260626 38.4902044,66.7692355 37.9534884,67.9348207 C38.7202255,67.7468231 39.5252995,67.5588255 40.2536998,67.3708279 C41.5188161,65.0396573 43.4356589,60.7909111 43.6656801,56.1661696 C43.6656801,56.1661696 44.6624383,55.6773758 44.6624383,56.1661696 C44.6624383,56.5045653 44.4324172,62.4452902 44.2790698,66.017245 C45.0458069,65.7164488 45.7358703,65.4156526 46.4259338,65.0772569 L47.2693446,58.0085463 C48.6494715,56.5421648 50.1446089,60.0389206 50.9496829,62.4452902 C61.1285328,56.0909705 63.2174771,49.0222599 63.2174771,49.0222599 Z" id="Path" fill="#000000"></path>
                                    <path d="M58.2720226,49.5862528 C58.2720226,50.2630442 57.9269908,50.60144 57.9269908,50.60144 L56.7385483,49.2102576 C56.7385483,49.2478571 58.2720226,48.9470609 58.2720226,49.5862528 Z" id="Path" fill="#FFFFFF"></path>
                                    <path d="M41.7105004,12.5507213 C42.7455955,14.543496 41.7105004,15.8594794 41.7105004,15.8594794 C41.5571529,14.1299013 38.7202255,11.385136 38.7202255,11.385136 C38.7202255,11.385136 40.6370684,10.5579465 41.7105004,12.5507213 Z" id="Path" fill="#FFFFFF"></path>
                                    <path d="M40.0236786,15.4082851 C40.0236786,15.4082851 41.0204369,16.2730742 39.7169838,16.6490694 C38.4135307,17.0626642 37.9534884,16.6490694 37.9534884,16.6490694 L40.0236786,15.4082851 Z" id="Path" fill="#FFFFFF"></path>
                                    <path d="M22.4270613,2.24845156 C22.5804087,1.91005584 23.040451,1.87245632 23.3854827,1.87245632 C24.8039464,1.91005584 26.1840733,1.91005584 27.5642001,1.98525489 C27.5258633,1.68445869 27.334179,1.3836625 27.065821,1.19566488 C27.602537,1.12046583 28.139253,1.0828663 28.675969,1.12046583 C28.8676533,1.12046583 29.0976744,1.15806535 29.2893587,1.19566488 C29.5193798,1.2332644 29.7110641,1.3836625 29.9027484,1.49646107 C31.1295278,2.21085204 32.432981,2.85004395 33.7364341,3.45163634 C34.2731501,3.71483301 34.848203,3.94043016 35.3465821,4.3164254 C35.8449612,4.69242065 36.2666667,5.14361494 36.4200141,5.74520733 C36.4200141,5.78280686 36.4200141,5.8580059 36.4200141,5.93320495 C36.0749824,6.04600353 35.6916138,6.04600353 35.3465821,5.89560543 C35.1932347,5.93320495 35.0015504,5.89560543 34.8865398,5.78280686 C34.1581395,5.29401304 33.4297393,4.80521922 32.6246653,4.50442303 C31.8195913,4.16602731 30.8995067,4.01562921 30.0560958,4.16602731 C30.5928118,4.50442303 30.9378436,4.91801779 31.4362227,5.25641351 C31.7812544,5.51961018 32.164623,5.82040638 32.2796335,6.23400115 C31.5128964,5.8580059 30.6694856,5.67000828 29.8260747,5.59480923 C29.3276956,5.55720971 28.7909796,5.55720971 28.2542636,5.55720971 C27.870895,5.55720971 27.4875264,5.55720971 27.1424947,5.59480923 C26.9124736,5.59480923 26.6824524,5.59480923 26.4524313,5.70760781 C26.260747,5.78280686 25.9540521,6.008404 25.9540521,6.23400115 C25.455673,6.08360305 24.918957,6.57239687 24.4205779,6.42199877 C24.0755462,6.34679972 23.8838619,6.008404 23.577167,5.82040638 C23.2704722,5.63240876 22.8487667,5.63240876 22.4653982,5.63240876 C22.4270613,5.40681161 22.5804087,5.18121446 22.772093,5.06841589 C22.9637773,4.95561732 23.1937984,4.91801779 23.4238196,4.88041827 C24.0372093,4.7676197 24.650599,4.65482112 25.2639887,4.4668235 C25.5323467,4.39162445 25.8390416,4.24122635 25.8390416,3.97802968 C25.8390416,3.86523111 25.8007047,3.79003206 25.724031,3.71483301 C25.455673,3.30123824 24.9956307,3.03804157 24.5355884,3.03804157 C24.2288936,3.03804157 23.9221987,3.11324062 23.6155039,3.15084015 C23.308809,3.18843967 23.0021142,3.22603919 22.7337562,3.0756411 C22.503735,2.85004395 22.3120507,2.51164823 22.4270613,2.24845156 Z" id="Path" fill="#FFFFFF"></path>
                                    <path d="M29.4043693,9.01636596 L28.4842847,9.01636596 C28.4842847,9.01636596 28.1775899,7.96357927 28.8293164,8.07637784 C29.5193798,8.18917642 29.4043693,9.01636596 29.4043693,9.01636596 Z" id="Path" fill="#FFFFFF"></path>
                                    <path d="M17.5582805,6.45959829 C17.6349542,6.38439925 17.7499648,6.3092002 17.8266385,6.23400115 C18.1716702,6.04600353 18.5167019,5.8580059 18.8617336,5.70760781 C19.3601128,5.48201066 19.9351656,5.36921209 20.4718816,5.36921209 C20.6635659,5.36921209 20.893587,5.63240876 20.8552502,5.82040638 C20.7785765,5.97080448 20.625229,6.08360305 20.4718816,6.1588021 C20.356871,6.23400115 20.2035236,6.27160067 20.088513,6.34679972 C19.8968288,6.45959829 19.7051445,6.53479734 19.5134602,6.60999639 C18.9384073,6.83559354 18.0949965,6.87319306 17.4816068,6.79799401 C17.4432699,6.64759592 17.4816068,6.53479734 17.5582805,6.45959829 Z" id="Path" fill="#FFFFFF"></path>
                                    <path d="M12.9961945,4.73002017 C13.7245948,4.6172216 14.3763214,5.40681161 15.0663848,4.69242065 C15.2197322,4.54202255 15.2964059,4.35402493 15.4880902,4.24122635 C15.7947851,4.05322873 16.1781536,4.16602731 16.4848485,4.3164254 C16.5615222,4.7676197 16.2548273,5.18121446 15.9481325,5.51961018 C15.7181113,5.78280686 15.4880902,6.04600353 15.2580691,6.3092002 C15.1047216,6.49719782 14.9130374,6.68519544 14.6830162,6.76039449 C14.4146582,6.87319306 14.1079634,6.79799401 13.8396054,6.76039449 C13.1878788,6.68519544 12.5361522,6.64759592 11.8460888,6.68519544 C11.8460888,6.08360305 12.2677942,4.84281874 12.9961945,4.73002017 Z" id="Path" fill="#FFFFFF"></path>
                                    <path d="M9.50754052,22.8153914 C9.50754052,22.8153914 8.62579281,23.4545833 8.58745595,22.8153914 C8.5491191,22.1761995 9.50754052,21.9130028 9.50754052,21.9130028 L9.50754052,22.8153914 Z" id="Path" fill="#FFFFFF"></path>
                                    <path d="M9.50754052,20.3338228 L8.58745595,20.3338228 C8.58745595,20.3338228 8.43410853,19.4314342 9.04749824,19.4314342 C9.66088795,19.4314342 9.50754052,20.3338228 9.50754052,20.3338228 Z" id="Path" fill="#FFFFFF"></path>
                                    <path d="M9.92924595,13.7915056 C9.92924595,13.7915056 8.85581395,13.753906 9.00916138,13.1147141 C9.16250881,12.4755222 11.2326991,10.2571503 11.2326991,10.2571503 C11.2326991,10.2571503 12.1911205,9.61795835 12.0377731,10.5579465 C11.8077519,11.4979346 9.92924595,13.7915056 9.92924595,13.7915056 Z" id="Path" fill="#FFFFFF"></path>
                                    <path d="M10.5042988,15.6338823 C10.5042988,15.6338823 11.5010571,16.0098775 13.4178999,14.4306975 C15.3347428,12.8515174 15.3347428,12.8515174 15.3347428,12.8515174 C15.3347428,12.8515174 16.2164905,14.0923018 15.3347428,14.6938941 C14.4529951,15.2954865 13.8012685,15.2954865 13.6862579,15.8594794 C13.5712474,16.4610718 10.4659619,17.0626642 10.5042988,15.6338823 Z" id="Path" fill="#FFFFFF"></path>
                                    <path d="M15.2964059,22.5145952 C15.1813953,20.8978157 13.2645525,20.1834247 13.2645525,20.1834247 C13.6095842,18.7170433 16.6381959,20.1082257 16.2548273,21.34901 C15.8714588,22.5897943 17.3665962,25.5225572 17.3665962,25.5225572 C17.3665962,25.5225572 15.4114165,24.1313748 15.2964059,22.5145952 Z" id="Path" fill="#FFFFFF"></path>
                                    <path d="M18.5167019,32.8544644 C18.5167019,32.8544644 17.0982382,32.5912678 16.7148696,30.8992892 C16.3315011,29.2073106 17.7499648,29.169711 17.7499648,29.169711 C17.7499648,29.169711 17.8649753,30.6360925 18.8233968,31.0120877 C19.7818182,31.388083 21.0085976,32.5912678 21.0085976,32.5912678 C21.0085976,32.5912678 20.2035236,32.5160687 19.5134602,32.4032701 C18.8233968,32.2904716 18.5167019,32.8544644 18.5167019,32.8544644 Z" id="Path" fill="#FFFFFF"></path>
                                    <path d="M15.2580691,51.3158309 C15.1047216,51.5038285 14.9513742,51.6542266 14.7980268,51.8422243 C14.6830162,51.9550228 14.5680056,52.1054209 14.5680056,52.2934186 C14.4913319,52.2934186 14.2229739,52.1430205 14.1846371,52.0302219 C14.1463002,51.9174233 14.1846371,51.8422243 14.2229739,51.7670252 C14.2613108,51.5790276 14.3379845,51.39103 14.3763214,51.2030324 C14.4146582,51.1278333 14.4146582,51.0526343 14.4529951,50.9774352 C14.5296688,50.8646366 14.6063425,50.7894376 14.7213531,50.7142385 C14.9513742,50.5638404 15.2197322,50.4134423 15.5264271,50.3382433 C15.8331219,50.2630442 16.0248062,50.3382433 16.2931642,50.5262409 C15.8714588,50.6390395 15.5264271,50.9774352 15.2580691,51.3158309 Z" id="Path" fill="#FFFFFF"></path>
                                    <path d="M17.5582805,49.4358547 C17.4816068,48.9846604 17.7499648,48.4958666 18.1333333,48.2326699 C18.5167019,47.9694733 19.015081,47.8566747 19.5134602,47.8942742 C19.551797,47.8942742 19.5901339,47.8942742 19.6284708,47.9318737 C19.6668076,47.9694733 19.6668076,48.0070728 19.6668076,48.0446723 C19.7051445,48.6086652 19.7434813,49.172658 19.7051445,49.7366509 C19.5134602,49.8118499 19.3217759,49.7742504 19.1300916,49.7366509 C18.5550388,49.5110538 18.1333333,49.4734542 17.5582805,49.4358547 Z" id="Path" fill="#FFFFFF"></path>
                                    <path d="M19.3217759,54.6621886 C19.3601128,54.5869895 19.3601128,54.5117905 19.3984496,54.3989919 C19.5134602,53.9853972 19.6284708,53.5718024 19.9351656,53.3086057 C20.1268499,53.1582076 20.356871,53.0830086 20.5868922,53.045409 C20.8552502,53.0078095 21.1236082,52.97021 21.3536293,52.97021 C21.430303,52.97021 21.4686399,52.97021 21.5453136,53.0078095 C21.6603242,53.045409 21.698661,53.1206081 21.7753347,53.1958071 C22.1587033,53.684601 22.2737139,54.3613924 22.0820296,54.9253853 C21.8903453,54.9253853 21.698661,54.9253853 21.5453136,54.8501862 C21.5069767,54.8501862 21.4686399,54.8125867 21.4686399,54.8125867 C21.430303,54.7749872 21.430303,54.7373876 21.430303,54.6997881 C21.3919662,54.54939 21.2002819,54.4365915 21.0085976,54.3989919 C20.7402396,54.3613924 20.4718816,54.3989919 20.2418605,54.474191 C20.088513,54.54939 19.9351656,54.6621886 19.7818182,54.6997881 C19.6284708,54.7749872 19.4751233,54.6997881 19.3217759,54.6621886 Z" id="Path" fill="#FFFFFF"></path>
                                    <path d="M22.3887245,67.5588255 L21.4686399,67.3332283 C21.4686399,67.3332283 21.1236082,66.3180412 21.4686399,65.4156526 C21.4686399,65.4156526 20.7402396,65.3780531 20.7785765,66.9196336 C20.7785765,66.9196336 19.4751233,65.7164488 20.0501762,64.5508635 C20.6635659,63.4228778 21.3152925,63.5732759 21.3152925,62.7460863 C21.3152925,61.9188968 21.4686399,61.0917073 21.4686399,61.0917073 L22.1970402,60.715712 L22.4270613,57.9709467 C22.4270613,57.9709467 23.4238196,57.7829491 23.3471459,59.3621291 C23.2704722,60.9413092 22.3887245,67.5588255 22.3887245,67.5588255 Z" id="Path" fill="#FFFFFF"></path>
                                    <path d="M24.3439042,49.9246485 C24.0755462,49.887049 23.6538407,49.8494495 23.3471459,49.8494495 C23.308809,49.4734542 23.308809,49.097459 23.4238196,48.7214637 C23.4621564,48.5710656 23.5388302,48.4582671 23.577167,48.3454685 C23.7305144,48.0822718 23.8838619,47.7814756 24.0372093,47.518279 C24.113883,47.4054804 24.1522199,47.518279 24.2288936,47.593478 C24.8039464,48.307869 25.3789993,49.097459 25.455673,50.0374471 C25.0723044,49.9246485 24.6889359,49.962248 24.3439042,49.9246485 Z" id="Path" fill="#FFFFFF"></path>
                                    <path d="M32.8546864,48.1198713 C32.701339,48.1950704 32.5096547,48.1574709 32.3563073,48.1198713 L32.3563073,48.1950704 C32.2796335,48.2326699 32.2029598,48.1574709 32.164623,48.0822718 C32.1262861,48.0070728 32.1262861,47.9318737 32.1262861,47.8566747 C32.1262861,47.7062766 32.1262861,47.518279 32.2796335,47.4054804 C32.3179704,47.3678809 32.3946441,47.3678809 32.4713178,47.3302813 C32.5479915,47.3302813 32.6246653,47.3302813 32.7396758,47.3678809 C33.0080338,47.4430799 33.1997181,47.7062766 33.1613813,47.9694733 C33.0080338,47.9694733 32.969697,48.0822718 32.8546864,48.1198713 Z" id="Path" fill="#FFFFFF"></path>
                                    <path d="M34.848203,49.0222599 C34.8098661,49.3606557 34.4648344,49.7742504 34.0814658,49.4734542 C34.0047921,49.3982552 33.9664553,49.2854566 33.9664553,49.172658 C33.9664553,49.0598595 33.9281184,48.9846604 33.9281184,48.8718618 C33.9281184,48.7966628 33.8897815,48.7214637 33.9664553,48.6462647 C34.0047921,48.5710656 34.1198027,48.5710656 34.1964764,48.5710656 C34.311487,48.5710656 34.4264975,48.5710656 34.5415081,48.5710656 C34.6181818,48.5710656 34.6565187,48.5710656 34.7331924,48.6086652 C34.848203,48.6838642 34.8865398,48.8718618 34.848203,49.0222599 Z" id="Path" fill="#FFFFFF"></path>
                                    <path d="M36.6883721,49.962248 C36.6500352,49.9998476 36.5733615,49.9998476 36.4966878,49.9998476 C35.9983087,49.9998476 35.8832981,49.887049 35.8832981,49.3982552 C35.8832981,49.3606557 35.8832981,49.2854566 35.921635,49.2478571 C35.9599718,49.2102576 36.0366455,49.2102576 36.0749824,49.2102576 C36.2666667,49.2102576 36.458351,49.2102576 36.6500352,49.2854566 C36.6883721,49.2854566 36.7267089,49.3230561 36.7267089,49.3606557 C36.7650458,49.3982552 36.7650458,49.4358547 36.7650458,49.4734542 C36.7650458,49.5486533 36.7650458,49.6614518 36.7650458,49.7366509 C36.7650458,49.8118499 36.7650458,49.9246485 36.6883721,49.962248 Z" id="Path" fill="#FFFFFF"></path>
                                    <path d="M37.0334038,44.4727175 C36.6116984,44.8487127 32.8163495,45.4503051 31.1678647,44.4727175 C29.5193798,43.4951298 29.5193798,43.4951298 29.5193798,43.4951298 C29.5193798,43.4951298 27.4875264,43.7583265 25.8773784,42.6679403 C24.2672304,41.6151536 24.1522199,40.3367698 24.1522199,40.3367698 C24.1522199,40.3367698 19.7434813,39.5095803 19.551797,38.0055993 L23.3854827,38.4567936 C23.3854827,38.4567936 18.1716702,36.4640188 18.8233968,35.7120283 C19.4751233,34.9600378 21.0085976,35.7120283 21.0085976,35.7120283 L24.382241,37.5168055 C24.382241,37.5168055 23.9988724,37.1032107 24.650599,36.9152131 C25.3023256,36.7272155 25.6473573,37.4040069 25.6473573,37.4040069 C25.6473573,37.4040069 26.4140944,36.5016183 27.1041579,36.9152131 C27.7942213,37.3288078 28.8676533,37.9304002 28.8676533,37.9304002 L29.5577167,37.6672036 C29.5577167,37.6672036 28.3692741,37.0656112 28.2159267,36.1632226 C28.0625793,35.260834 26.4140944,35.3736326 26.2990839,35.8248269 C26.2990839,35.8248269 23.2704722,34.3208459 23.4238196,33.9448506 C23.577167,33.5688554 24.8039464,32.6664668 24.8039464,32.6664668 L22.1970402,31.3128839 C22.1970402,31.3128839 21.6219873,31.9520758 21.0852713,31.5760806 C20.5485553,31.2000854 18.8233968,29.5457063 19.3217759,29.2073106 C19.820155,28.8689148 20.8169133,29.3953082 20.8169133,29.3953082 L22.2737139,30.4480949 L22.4270613,29.808903 C22.4270613,29.808903 21.0469345,28.6057182 21.2386187,28.4553201 C21.430303,28.304922 22.8871036,28.4553201 22.8871036,28.4553201 C23.040451,27.2897348 22.8487667,26.08655 22.503735,24.9585643 C22.1587033,23.8305786 21.5069767,22.7777919 20.625229,22.0258014 C20.5868922,21.8378038 20.5485553,21.6498062 20.7019027,21.4994081 C21.1236082,21.5370076 21.5453136,21.5746071 21.9286822,21.6498062 C22.0053559,21.6498062 22.0436927,21.6498062 22.1203665,21.6122066 C22.1970402,21.5746071 22.1970402,21.4994081 22.1970402,21.424209 C22.1970402,21.1234128 21.967019,20.8602161 21.8136716,20.5970195 C21.4686399,19.9578276 21.6219873,19.2058371 21.5836505,18.4914461 C21.5453136,17.2882613 21.0852713,16.1978751 20.625229,15.0698894 C20.5485553,14.8818918 20.4718816,14.6938941 20.3185342,14.5810956 C20.1651868,14.468297 19.9351656,14.3930979 19.7818182,14.5058965 C19.551797,15.3706856 19.3217759,16.2730742 19.2451022,17.1754628 C19.2451022,17.3634604 19.2067653,17.5138585 19.1300916,17.6642566 C19.0534179,17.8146547 18.9000705,17.9650528 18.7083862,17.9650528 C18.5167019,17.9650528 18.4016913,17.8146547 18.3250176,17.6642566 C18.2483439,17.5138585 18.2483439,17.3258609 18.2483439,17.1754628 C18.210007,15.8594794 18.1716702,14.543496 18.0949965,13.2275127 C18.0949965,13.0771146 18.0949965,12.964316 18.0949965,12.8139179 C18.1333333,12.5883208 18.2483439,12.3627236 18.2866808,12.1371265 C18.3250176,11.9115293 18.1716702,11.6107331 17.9033122,11.6483327 C17.8649753,11.9115293 17.7499648,12.1371265 17.6349542,12.3627236 C17.5582805,12.5507213 17.4432699,12.7387189 17.2515856,12.8515174 C17.1365751,12.889117 17.0215645,12.9267165 16.9065539,12.9267165 C16.7532065,12.964316 16.5231853,12.964316 16.4465116,12.8139179 C16.4081748,12.7387189 16.3698379,12.6635198 16.3698379,12.5883208 C16.3315011,12.3627236 16.3315011,12.099527 16.3315011,11.8363303 C16.9832276,10.8963422 17.6732911,9.91875454 18.6317125,9.27956263 C19.015081,9.01636596 19.4367865,8.79076881 19.8968288,8.67797024 C20.2801973,8.60277119 20.6635659,8.60277119 21.0469345,8.60277119 C21.2386187,8.60277119 21.430303,8.60277119 21.5836505,8.67797024 C21.8903453,8.82836833 22.0053559,9.27956263 22.3503876,9.42996072 C22.6954193,9.58035882 23.0787879,9.73075692 23.4621564,9.69315739 C23.845525,9.65555787 24.1905567,9.5427593 24.5739253,9.50515977 C25.4940099,9.35476167 26.4524313,9.46756025 27.2958421,9.84355549 C27.7558844,10.0691526 28.2159267,10.3323493 28.7143058,10.4451479 C29.0593376,10.5203469 29.3660324,10.5203469 29.7110641,10.5203469 C29.9027484,10.5203469 30.1327696,10.5203469 30.3244538,10.4075484 C30.6311487,10.2571503 30.8611698,9.88115502 31.2445384,9.88115502 C31.4745595,9.88115502 31.7045807,9.99395359 31.7812544,10.1819512 C31.8579281,10.3699488 31.8579281,10.595546 31.8579281,10.8211431 C31.8195913,11.6483327 31.7812544,12.4379227 31.7429175,13.2651122 C31.9729387,13.3779108 32.2029598,13.2651122 32.432981,13.1523136 C32.701339,13.0019155 32.9313601,12.8139179 33.1230444,12.5883208 C33.3914024,12.2499251 33.4680761,11.7987308 33.7364341,11.4227355 C33.9664553,11.460335 34.311487,11.3099369 34.5031712,11.385136 C35.4999295,11.8363303 36.5733615,12.3251241 37.2634249,13.1899132 C37.4934461,13.4907094 37.7234672,13.8667046 37.6084567,14.2426998 C37.4167724,15.0698894 36.5350247,15.7090813 35.6916138,15.8594794 C35.7682875,16.0850765 35.9599718,16.2354746 36.189993,16.3482732 C36.4200141,16.4234723 36.6116984,16.5362708 36.8417195,16.6114699 C36.8417195,16.761868 36.8033827,16.8746666 36.7650458,17.0250647 C36.458351,17.6642566 36.4966878,18.3786475 36.5350247,19.055439 C36.5350247,19.2058371 36.5350247,19.3562352 36.5733615,19.5066333 C38.2601832,20.8226166 39.7553206,22.3641971 41.0204369,24.0937752 C41.2887949,24.4697705 41.1737844,25.0713629 41.1737844,25.5225572 C40.5603946,25.2593605 39.8703312,25.1841615 39.2569415,25.4473581 C38.5668781,25.7481543 38.1451727,26.3873462 37.8001409,27.0265382 C37.9534884,27.0641377 38.1068358,27.0265382 38.2601832,26.9513391 C38.8352361,26.6881424 39.4869626,26.6881424 40.1386892,26.6881424 C40.3303735,26.6881424 40.5220578,26.6881424 40.7520789,26.725742 C41.1354475,26.800941 41.4804792,27.0265382 41.8255109,27.2521353 C42.1705426,28.1545239 42.2088795,29.1321115 42.2855532,30.1096992 C42.4005638,32.1024739 42.4389204,34.0952487 42.4389204,36.0880235 C42.4389204,36.0880235 42.4772375,36.4640188 39.1802678,37.4416064 C35.8832981,38.419194 33.774771,38.2311964 33.774771,38.2311964 C33.774771,38.2311964 34.7715292,40.0359736 36.7267089,40.0359736 C36.7267089,40.0359736 36.9567301,42.0663479 36.9567301,42.6303408 C37.0334038,43.2695327 37.4167724,44.0967222 37.0334038,44.4727175 Z" id="Path" fill="#FFFFFF"></path>
                                    <path d="M39.2952784,39.0959855 L42.0171952,39.0959855 L39.1035941,42.6679403 L38.2601832,42.6679403 C38.3751938,40.712765 39.2952784,39.0959855 39.2952784,39.0959855 Z" id="Path" fill="#FFFFFF"></path>
                                    <path d="M39.5252995,52.0678214 C39.3336152,52.255819 38.9502467,52.4062171 38.7585624,52.2182195 C38.4902044,51.9550228 38.5285412,51.39103 38.5668781,51.0526343 C38.5668781,50.9774352 38.5668781,50.8646366 38.6052149,50.7894376 C38.6435518,50.7142385 38.7202255,50.6390395 38.7968992,50.60144 C38.9119098,50.5638404 39.0269204,50.6390395 39.1035941,50.7518381 C39.1802678,50.8270371 39.2569415,50.9398357 39.3336152,51.0150347 C39.4102889,51.0526343 39.4869626,51.0902338 39.5252995,51.1278333 C39.6019732,51.2030324 39.6403101,51.2782314 39.6786469,51.3534304 C39.7553206,51.6166271 39.6786469,51.8798238 39.5252995,52.0678214 Z" id="Path" fill="#FFFFFF"></path>
                                    <path d="M42.4005638,48.9846604 C42.2088795,49.0222599 41.8255109,48.9846604 41.6721635,48.8342623 C41.2504581,48.4958666 41.3654686,47.2926818 41.5954898,46.879087 C41.6338266,46.803888 41.7105004,46.6910894 41.7871741,46.6534899 C41.8638478,46.6158904 41.9788584,46.5782908 42.0938689,46.6158904 C42.1322058,46.6534899 42.1705426,46.6534899 42.2088795,46.6910894 C42.4005638,46.879087 42.5539112,47.1046842 42.5922481,47.3302813 C42.6689218,47.5558785 42.6689218,47.7814756 42.6689218,48.0070728 C42.6689218,48.3454685 42.8222692,48.8718618 42.4005638,48.9846604 Z" id="Path" fill="#FFFFFF"></path>
                                    <path d="M44.5090909,53.5342029 C44.2790698,53.4214043 44.0490486,53.3086057 43.8573643,53.1206081 C43.7040169,52.97021 43.5890063,52.8198119 43.3973221,52.6694138 C43.2439746,52.5566152 43.0906272,52.4814162 43.0139535,52.3686176 C42.8989429,52.2182195 42.9372798,52.0302219 42.9372798,51.8422243 C42.9372798,51.6166271 42.9372798,51.2406319 43.0906272,51.0902338 C43.3973221,51.0902338 43.6656801,51.2406319 43.8957012,51.4286295 C44.1257223,51.6166271 44.2790698,51.8798238 44.4324172,52.1430205 C44.4707541,52.255819 44.5474278,52.3686176 44.5857646,52.4814162 C44.6624383,52.8198119 44.6241015,53.1958071 44.5090909,53.5342029 Z" id="Path" fill="#FFFFFF"></path>
                                    <path d="M47.959408,44.8487127 C47.7293869,45.6007032 47.422692,45.4503051 47.422692,45.4503051 L45.7742072,43.8711251 C46.0042283,43.1567341 48.1894292,44.0967222 47.959408,44.8487127 Z" id="Path" fill="#FFFFFF"></path>
                                    <path d="M47.154334,54.7749872 C46.9626498,54.5869895 46.7326286,54.3613924 46.5792812,54.0981957 C46.34926,53.684601 46.2725863,53.2334067 46.3875969,52.7822124 C46.3875969,52.7446129 46.4259338,52.6694138 46.4259338,52.6318143 C46.7709655,52.7822124 47.154334,53.1206081 47.3843552,53.4214043 C47.5377026,53.6094019 47.69105,53.7973995 47.8060606,53.9853972 C47.9210712,54.2109943 47.959408,54.4365915 47.9977449,54.6621886 C48.0360817,54.8501862 48.0744186,55.0757834 48.1127555,55.263781 C47.7677237,55.3013805 47.422692,55.0381838 47.154334,54.7749872 Z" id="Path" fill="#FFFFFF"></path>
                                    <path d="M50.1446089,53.9853972 C49.7612403,53.7598 49.4928823,53.3838048 49.301198,52.97021 C49.1095137,52.5566152 48.9945032,52.1054209 48.8028189,51.7294257 C49.1095137,51.7670252 49.4162086,51.9550228 49.6462297,52.1430205 C49.9145877,52.3686176 50.1829457,52.6694138 50.4129669,52.9326105 C50.4513037,52.97021 50.5279774,53.045409 50.5279774,53.1206081 C50.5663143,53.1582076 50.5663143,53.2334067 50.5663143,53.2710062 C50.6046512,53.5342029 50.642988,53.7973995 50.7196617,54.0605962 C50.5279774,54.1357953 50.2979563,54.0981957 50.1446089,53.9853972 Z" id="Path" fill="#FFFFFF"></path>
                                    <path d="M53.863284,53.9477976 C53.7099366,54.5117905 52.9815363,54.6245891 52.9815363,54.6245891 C52.789852,53.5718024 49.2628612,49.5486533 49.2628612,49.5486533 C50.5279774,47.8190752 54.0166314,53.3838048 53.863284,53.9477976 Z" id="Path" fill="#FFFFFF"></path>
                                    <path d="M27.3725159,37.6672036 C27.334179,37.7800021 27.3725159,37.8928007 27.334179,38.0055993 C27.2958421,38.1183979 27.2191684,38.1935969 27.1041579,38.2311964 C26.9891473,38.268796 26.8741367,38.268796 26.797463,38.268796 C26.4524313,38.268796 26.260747,38.0807983 25.9540521,38.0807983 C25.6473573,38.0807983 25.3023256,38.0807983 24.9956307,38.0807983 C24.9572939,38.1935969 24.9572939,38.3063955 25.0339676,38.3815945 C25.187315,38.5695921 25.3789993,38.7575898 25.6090204,38.7951893 C25.8390416,38.8703883 26.0690627,38.8703883 26.2990839,38.8703883 C26.8357999,38.8703883 27.334179,38.9455874 27.870895,38.9831869 C27.870895,38.8327888 27.870895,38.6823907 27.9092319,38.5319926 C27.9092319,38.4567936 27.9475687,38.419194 27.9475687,38.343995 C28.0242424,38.0807983 27.9092319,37.8176017 27.8325581,37.554405 C27.6408739,37.4792059 27.4108527,37.5168055 27.3725159,37.6672036 Z" id="Path" fill="#000000"></path>
                                    <path d="M33.6214235,42.2543455 C32.8930233,41.6151536 32.3563073,40.712765 32.164623,39.7727769 C32.1262861,39.6223788 32.1262861,39.5095803 32.1262861,39.3591822 C32.164623,39.2087841 32.2796335,39.058386 32.3563073,38.9455874 C32.5479915,38.7199902 32.701339,38.5319926 32.8930233,38.3063955 C32.969697,38.1935969 33.1997181,38.0807983 33.3147287,38.0807983 C32.6246653,37.8552012 31.9346018,37.7424026 31.2445384,37.6672036 C30.9761804,37.6672036 30.6694856,37.6672036 30.4778013,37.8176017 C30.286117,38.0055993 30.2477801,38.268796 30.286117,38.5319926 C30.3244538,38.7951893 30.4778013,38.9831869 30.6311487,39.2087841 C31.091191,39.923175 31.5895701,40.637566 32.0496124,41.351957 C32.432981,41.9159498 32.7780127,42.4799427 33.3147287,42.8559379 C33.4680761,42.9687365 33.6980973,43.006336 33.8131078,42.8935375 C33.8897815,42.8183384 33.8897815,42.6679403 33.8514447,42.5551417 C33.8131078,42.4423432 33.6980973,42.3295446 33.6214235,42.2543455 Z" id="Path" fill="#000000"></path>
                                    <path d="M33.1613813,40.2239712 C33.1997181,40.2991703 33.1997181,40.3743693 33.2763918,40.4119688 C33.3530655,40.4495684 33.4297393,40.4495684 33.506413,40.4119688 C33.5830867,40.3743693 33.6214235,40.3367698 33.6980973,40.2615707 C33.774771,40.1487722 33.8131078,39.9983741 33.8514447,39.8103765 C33.5830867,39.8103765 33.3147287,39.8103765 33.0080338,39.8103765 C33.0463707,39.9607746 33.1230444,40.0735731 33.1613813,40.2239712 Z" id="Path" fill="#000000"></path>
                                    <path d="M36.1516561,30.8992892 C36.0749824,30.9368887 35.9983087,31.0120877 35.9599718,31.1248863 C35.921635,31.2376849 35.921635,31.3504835 35.921635,31.463282 C35.9599718,31.6512797 35.9983087,31.8016778 36.0366455,31.9896754 C36.0749824,32.1400735 36.1516561,32.2904716 36.2666667,32.4032701 C36.3816772,32.5160687 36.5733615,32.5536682 36.6883721,32.4784692 C37.0717407,32.2904716 36.8033827,31.6888792 37.1100775,31.463282 C37.4551092,31.2000854 38.1835095,31.388083 38.5668781,31.463282 C38.7585624,31.5008816 38.9119098,31.5760806 39.1035941,31.5760806 C39.2952784,31.5760806 39.4486258,31.5384811 39.6019732,31.5008816 C40.2153629,31.3504835 40.8287526,31.2000854 41.2504581,30.7488911 C41.4038055,30.5608934 41.5188161,30.3352963 41.4421424,30.1096992 C41.4038055,29.9969006 41.3271318,29.884102 41.2121212,29.7713034 C41.0587738,29.6209053 40.9054264,29.4705072 40.7520789,29.3201091 C40.6370684,29.2073106 40.4837209,29.094512 40.3303735,29.0569125 C39.9853418,28.9441139 39.6019732,29.2073106 39.3336152,29.4329077 C38.7968992,29.8465025 38.2601832,30.2600973 37.6084567,30.4856944 C37.1484144,30.598493 36.5733615,30.598493 36.1516561,30.8992892 Z" id="Path" fill="#000000"></path>
                                    <path d="M40.2536998,32.4032701 C40.1386892,32.5160687 40.0236786,32.8168649 40.1386892,32.967263 C40.2536998,33.1176611 40.7520789,33.0800616 40.9054264,33.0800616 C40.9437632,33.0800616 40.9821001,33.0800616 41.0204369,33.0424621 C41.0587738,33.0048625 41.0587738,32.967263 41.0587738,32.9296635 C41.1354475,32.5160687 40.5987315,32.0648744 40.2536998,32.4032701 Z" id="Path" fill="#000000"></path>
                                    <path d="M40.7520789,28.5305191 C40.8287526,28.6057182 40.9437632,28.6057182 41.0587738,28.6057182 C41.2121212,28.6057182 41.3654686,28.6057182 41.5188161,28.6057182 C41.4804792,28.4553201 41.5188161,28.304922 41.5571529,28.1545239 C41.5954898,28.0793248 41.5954898,28.0041258 41.5954898,27.9289267 C41.5954898,27.6281305 41.2121212,27.4025334 40.9054264,27.4401329 C40.5220578,27.515332 40.6370684,27.8913272 40.6370684,28.1545239 C40.6370684,28.304922 40.6370684,28.4553201 40.7520789,28.5305191 Z" id="Path" fill="#000000"></path>
                                    <path d="M36.8033827,24.1689743 C37.1867512,24.3945714 37.7618041,24.7329672 38.2218464,24.7705667 C38.6818887,24.8081662 38.7202255,24.2817729 38.7202255,23.9433771 C38.7202255,23.7929791 38.7202255,23.6049814 38.6052149,23.4921829 C38.5285412,23.4169838 38.3751938,23.3793843 38.2601832,23.3417848 C38.0684989,23.3041852 37.9151515,23.3041852 37.7234672,23.3041852 C37.6467935,23.3041852 37.6084567,23.3041852 37.5317829,23.2665857 C37.3784355,23.1913867 37.3784355,23.003389 37.3784355,22.8529909 C37.3400987,22.3641971 37.1100775,21.9130028 36.7267089,21.6122066 C36.5733615,21.4994081 36.3816772,21.3866095 36.2283298,21.4618085 C36.1133192,21.4994081 35.9983087,21.6122066 35.921635,21.7250052 C35.7682875,21.9506024 35.5766032,22.213799 35.5382664,22.5145952 C35.5382664,22.7025928 35.5766032,22.8905905 35.6916138,23.0785881 C35.921635,23.4921829 36.3433404,23.8681781 36.8033827,24.1689743 Z" id="Path" fill="#000000"></path>
                                    <path d="M31.627907,22.1761995 C31.5128964,22.213799 31.3978858,22.2513985 31.2828753,22.3265976 C31.1678647,22.4017966 31.091191,22.5145952 31.0145173,22.5897943 C30.8611698,22.8153914 30.822833,23.0409886 30.822833,23.3041852 C31.4362227,23.3417848 32.0112755,23.3041852 32.6246653,23.2289862 C32.7780127,23.0785881 32.8546864,23.003389 32.8163495,22.8153914 C32.7780127,22.6273938 32.6630021,22.4393962 32.5479915,22.2889981 C32.4713178,22.213799 32.3946441,22.1010005 32.2796335,22.1010005 C32.2029598,22.1010005 32.1262861,22.1010005 32.0496124,22.1386 C31.896265,22.1010005 31.7429175,22.1386 31.627907,22.1761995 Z" id="Path" fill="#000000"></path>
                                    <path d="M31.5895701,20.9354152 C31.8579281,20.6722185 32.0496124,20.2962233 32.0112755,19.920228 C31.9729387,19.5442328 31.7429175,19.2434366 31.5128964,18.9426404 C31.3212121,18.7170433 31.1295278,18.4538466 30.9378436,18.2282494 C30.822833,18.1154509 30.7461593,17.9650528 30.5928118,17.9274532 C30.4011276,17.8898537 30.2477801,18.0026523 30.0944327,18.1154509 C29.3276956,18.6418442 28.675969,19.2434366 28.0625793,19.9578276 C27.2958421,20.8602161 26.6441156,21.9506024 26.6824524,23.1161876 C26.7207893,23.71778 27.2191684,24.432171 27.8325581,24.50737 C27.6408739,24.0185762 27.8325581,23.4921829 28.0625793,23.003389 C28.2159267,22.6273938 28.3692741,22.2889981 28.6376321,21.9882019 C28.9059901,21.6874057 29.2893587,21.4618085 29.6727273,21.4994081 C29.7110641,21.6874057 29.9794221,21.7626047 30.1327696,21.7626047 C30.3244538,21.7626047 30.4778013,21.6874057 30.6311487,21.5746071 C30.9761804,21.3866095 31.3212121,21.1986119 31.5895701,20.9354152 Z" id="Path" fill="#000000"></path>
                                    <path d="M28.8676533,17.0626642 C29.5193798,16.6490694 30.3244538,16.4986713 31.1295278,16.5362708 C31.3212121,16.5362708 31.5512333,16.5738704 31.7429175,16.5362708 C31.9346018,16.4986713 32.3179704,16.0850765 32.164623,15.9346784 C31.7045807,15.4458846 30.9761804,15.257887 30.286117,15.3706856 C29.5960536,15.4458846 28.9826638,15.7466808 28.407611,16.1226761 C27.2575053,16.8746666 26.260747,17.8898537 25.8007047,19.2058371 C26.4907681,18.6418442 27.2575053,18.3786475 27.9092319,17.8146547 C28.2159267,17.5138585 28.5226216,17.2882613 28.8676533,17.0626642 Z" id="Path" fill="#000000"></path>
                                </g>
                                <path d="M28.5226216,57.0685582 L29.4043693,57.0685582 C29.4043693,57.0685582 28.2926004,65.9420459 26.3374207,67.5588255 C24.382241,69.175605 23.7688513,66.3180412 23.7688513,66.3180412 C23.7688513,66.3180412 24.0372093,65.6788493 24.3055673,65.6788493 C24.5739253,65.6788493 24.4589147,67.596425 25.992389,66.7692355 C27.602537,65.9796454 28.5226216,57.0685582 28.5226216,57.0685582 Z" id="Path" fill="#000000" fill-rule="nonzero"></path>
                                <path d="M34.3881607,56.842961 L35.3082452,56.842961 C35.3082452,56.842961 35.653277,58.346942 34.848203,58.346942 C34.043129,58.346942 34.3881607,56.842961 34.3881607,56.842961 Z" id="Path" fill="#000000" fill-rule="nonzero"></path>
                                <path d="M29.4427061,63.9492711 L30.5161381,63.9492711 C30.5161381,63.9492711 30.554475,65.8668469 29.9794221,65.8668469 C29.4043693,65.8668469 29.4427061,63.9492711 29.4427061,63.9492711 Z" id="Path" fill="#000000" fill-rule="nonzero"></path>
                                <path d="M31.5895701,65.1524559 L32.3563073,65.1524559 C32.3563073,65.1524559 32.3563073,66.5060388 31.5895701,66.4308397 C30.822833,66.3556407 31.5895701,65.1524559 31.5895701,65.1524559 Z" id="Path" fill="#000000" fill-rule="nonzero"></path>
                                <path d="M31.2445384,67.2580293 L32.0879493,67.2580293 C32.0879493,67.2580293 32.164623,68.2732164 31.4362227,68.2356169 C30.7078224,68.1980174 31.2445384,67.2580293 31.2445384,67.2580293 Z" id="Path" fill="#000000" fill-rule="nonzero"></path>
                            </g>
                        </g>
                    </g>
                </g>
            </g>
        </g>
    </g>
</svg>
