<svg enable-background="new 0 0 100 100" height="35" viewBox="0 0 100 100" width="35" xmlns="http://www.w3.org/2000/svg"><path d="m32.1 45-9.4-.5v-16.5l9.4 1.8z" fill="#f58536"/><path d="m84 45.2-8.8.3-7.4-.5 9.3-.5z" fill="#6b3a19"/><g fill="#9d5025"><path d="m67.8 34.9 9.5-1.4v11l-9.5.5z"/><path d="m15.9 62.2 34.1 8.7v-20.9h-34.1z"/><path d="m39.8 75.8 10.2 3.7v11.7l-10.2-5.1z"/><path d="m39.8 13.9 10.2-5.1v33l-10.2 1z"/><path d="m15.9 45.2 6.8-.7v-16.5l-6.8 2.7z"/></g><path d="m84.1 50h-34.1v20.9l34.1-8.7z" fill="#f58536"/><path d="m60.2 13.9-10.2-5.1v33l10.2 1z" fill="#f58536"/><path d="m84.1 35.5-6.8-2v11l6.8.7z" fill="#f58536"/><path d="m60.2 75.8-10.2 3.7v11.7l10.2-5.1z" fill="#f58536"/><path d="m60.2 75.8-10.2-2.8-10.2 2.8 10.2 3.7z" fill="#fbbf93"/><path d="m39.8 42.8 10.2-1 10.2 1-10.2.8z" fill="#6b3a19"/><path d="m15.9 45.2 6.7-.7 9.5.5-7.3.5z" fill="#6b3a19"/></svg>