<!DOCTYPE svg PUBLIC "-//W3C//DTD SVG 1.1//EN" "http://www.w3.org/Graphics/SVG/1.1/DTD/svg11.dtd">
<!-- Uploaded to: SVG Repo, www.svgrepo.com, Transformed by: SVG Repo Mixer Tools -->
<svg width="64px" height="64px" viewBox="0 0 20 20" version="1.1" xmlns="http://www.w3.org/2000/svg" xmlns:xlink="http://www.w3.org/1999/xlink" fill="#FFA500">
<g id="SVGRepo_bgCarrier" stroke-width="0"/>
<g id="SVGRepo_tracerCarrier" stroke-linecap="round" stroke-linejoin="round"/>
<g id="SVGRepo_iconCarrier"> <title>cloud_up [#FFA500]</title> <desc>Created with Sketch.</desc> <defs> </defs> <g id="Page-1" stroke="none" stroke-width="1" fill="none" fill-rule="evenodd"> <g id="Dribbble-Light-Preview" transform="translate(-260.000000, -3479.000000)" fill="#FFA500"> <g id="icons" transform="translate(56.000000, 160.000000)"> <path d="M218.024944,3330.00319 L218.01495,3330.00319 C218.404701,3329.00355 218.399704,3328.77263 218.009953,3328.38277 L215.423605,3325.69372 C214.643104,3324.913 213.375913,3324.86202 212.595411,3325.64274 L210.010063,3328.20083 C209.620311,3328.59169 209.010701,3329.21147 210.010063,3329.60234 L210.010063,3329.59534 C210.010063,3329.9862 211.03241,3329.9822 211.42316,3329.59234 L212.154693,3328.8586 C212.469492,3328.54371 213.008148,3328.76463 213.008148,3329.21047 L213.008148,3338.00035 C213.008148,3338.55216 213.535811,3339 214.087458,3339 L214.128432,3339 C214.68008,3339 215.006871,3338.55216 215.006871,3338.00035 L215.006871,3329.21047 C215.006871,3328.76463 215.544528,3328.54171 215.859327,3328.8566 L216.591859,3329.79627 C216.98161,3330.18613 217.634193,3330.00319 218.024944,3330.00319 M218.004956,3333.00213 C216.682801,3333.00213 216.6848,3331.00284 218.004956,3331.00284 C219.060282,3331.00284 219.819797,3331.07381 220.730216,3330.45203 C223.144674,3328.80062 221.889475,3324.908 218.904382,3325.01496 C217.572233,3318.41131 207.183868,3320.64551 209.24755,3327.4451 C207.154886,3325.78069 204.700454,3329.00555 206.800113,3330.56699 C208.301154,3331.6826 211.009424,3330.15614 211.009424,3332.00248 C211.009424,3333.26004 209.582336,3333.00213 208.212211,3333.00213 C204.87834,3333.00213 202.823652,3329.44339 204.732433,3326.72236 C205.643851,3325.42282 207.075936,3325.10193 207.075936,3325.10193 C207.735515,3319.99075 213.569789,3317.29171 217.891029,3320.18468 C219.745845,3321.42724 220.448396,3323.24259 220.448396,3323.24259 C225.580118,3324.80204 225.472187,3333.00213 218.004956,3333.00213" id="cloud_up-[#FFA500]"> </path> </g> </g> </g> </g>
</svg>