<!DOCTYPE svg PUBLIC "-//W3C//DTD SVG 1.1//EN" "http://www.w3.org/Graphics/SVG/1.1/DTD/svg11.dtd">

<!-- Uploaded to: SVG Repo, www.svgrepo.com, Transformed by: SVG Repo Mixer Tools -->
<svg fill="#FFA500" height="35px" width="35px" version="1.1" id="Layer_1" xmlns="http://www.w3.org/2000/svg" xmlns:xlink="http://www.w3.org/1999/xlink" viewBox="0 0 491.521 491.521" xml:space="preserve">

<g id="SVGRepo_bgCarrier" stroke-width="0"/>

<g id="SVGRepo_tracerCarrier" stroke-linecap="round" stroke-linejoin="round"/>

<g id="SVGRepo_iconCarrier"> <g> <g> <path d="M443.885,211.455c2.415-8.8,3.355-17.905,2.795-27.2c-2.64-43.655-40.855-79.455-85.18-79.805 c-31.209,0.203-59.504,16.649-74.78,42.187V68.045C286.721,29.255,225.091,0,143.36,0S0,29.255,0,68.045V310.83 c0,37.148,56.564,65.476,133.12,67.821v32.404c-14.323,3.724-25.541,14.943-29.266,29.266H20.48v20.48h83.374 c4.58,17.616,20.477,30.72,39.506,30.72c19.029,0,34.926-13.104,39.506-30.72h83.374v-20.48h-83.374 c-3.724-14.323-14.942-25.541-29.266-29.266v-32.439c36.303-1.258,71.617-9.076,96.737-21.571 c15.087-0.682,25.222-4.579,37.648-14.954c7.69,6.825,21.195,15.03,41.665,15.03c23.12,0,38.085-9.93,45.73-16.89 c37.16,15.08,63.72,6.6,79.755-3.615c25-15.9,36.385-43.28,36.385-61.985C491.521,244.83,471.771,219.56,443.885,211.455z M143.36,20.48c72.415,0,122.88,25.065,122.88,47.565s-50.465,47.565-122.88,47.565S20.48,90.545,20.48,68.045 S70.945,20.48,143.36,20.48z M20.48,103.963c24.624,19.542,69.376,32.127,122.88,32.127c53.504,0,98.256-12.584,122.88-32.127 v43.268c-9.074-3.25-18.811-4.774-28.735-3.816c-24.845,2.375-46.51,19.245-55.195,42.97c-0.928,2.535-1.675,5.087-2.27,7.652 c-11.877,1.54-24.11,2.503-36.68,2.503c-72.415,0-122.88-25.065-122.88-47.565V103.963z M143.492,277.468 c-0.044,0-0.088,0.003-0.132,0.003c-72.415,0-122.88-25.065-122.88-47.565v-45.013c24.624,19.542,69.376,32.127,122.88,32.127 c12.129,0,23.958-0.903,35.542-2.248c0.06,0.532,0.049,1.061,0.123,1.593c-21.645,11.275-35.665,33.7-35.665,58.265 C143.361,275.592,143.453,276.519,143.492,277.468z M163.841,450.56c0,11.295-9.185,20.48-20.48,20.48 c-11.295,0-20.48-9.185-20.48-20.48c0-11.295,9.185-20.48,20.48-20.48C154.656,430.08,163.841,439.265,163.841,450.56z M143.36,358.4c-72.415,0-122.88-25.07-122.88-47.57v-45.007c24.624,19.542,69.376,32.127,122.88,32.127 c1.423,0,2.811-0.061,4.223-0.079c8.734,22.832,30.391,38.307,58.187,39.909c2.966,4.252,6.746,7.615,10.829,10.362 C194.883,354.602,168.922,358.4,143.36,358.4z M444.146,319.34c-18.16,11.555-41.29,11.345-66.895-0.635l-7.42-3.47l-5.015,6.475 c-1.185,1.53-12.23,14.93-35.165,14.93c-22.555,0-31.95-13.885-32.27-14.37l-6.67-10.71l-9.11,8.725 c-15.66,15.005-22.435,16.42-36.45,16.42c-6.315,0-19.855-3.88-24.05-13.22l-2.715-6.045h-7.795 c-27.965,0-46.75-17.205-46.75-42.81c0-18.945,12.2-36.065,30.355-42.6l8.96-3.225l-2.57-9.175c-2.52-8.995-2.21-17.56,0.955-26.2 c5.99-16.37,20.875-27.995,37.915-29.625c1.485-0.145,2.97-0.215,4.445-0.215c13.545,0,26.395,5.915,35.03,16.305l13.345,16.055 l4.525-20.38c6.575-29.585,33.425-50.54,64.54-50.64c33.78,0.265,62.895,27.435,64.9,60.56c0.615,10.26-1.18,20.215-5.345,29.595 l-5.775,13.01l14.17,1.34c23.8,2.25,41.75,21.68,41.75,45.195C471.041,288.01,461.615,308.225,444.146,319.34z"/> </g> </g> </g>

</svg>