<svg viewBox="-0.06000000000002065 -0.26 372.94 603.6800000000001" xmlns="http://www.w3.org/2000/svg" width="1544" height="2500"><linearGradient id="a" gradientUnits="userSpaceOnUse" x1="321.038" x2="190.456" y1="372.543" y2="236.209"><stop offset="0" stop-color="#b4c0c9"/><stop offset="1" stop-color="#94a5b2"/></linearGradient><linearGradient id="b" gradientUnits="userSpaceOnUse" x1="18.929" x2="216.256" y1="266.734" y2="622.904"><stop offset="0" stop-color="#647989"/><stop offset="1" stop-color="#2f383e"/></linearGradient><linearGradient id="c" gradientUnits="userSpaceOnUse" x1="125.8" x2="336.043" y1="36.466" y2="236.983"><stop offset="0" stop-color="#2edaff"/><stop offset="1" stop-color="#004bff"/></linearGradient><path d="M372.88 279.56l-186.55-93.5v190.06z" fill="url(#a)"/><path d="M210.09 363.81l-23.76-141.29v153.6zM348.97 267.48l-162.64-81.42v20.73z" fill="#0d3958" opacity=".2"/><path d="M11.23 597.97c.39-.23 171.36-83.14 171.51-83.23 2.34-1.44 3.66-1.79 3.74-5.91l-.08-322.77c-72.43 36.23-174.39 87.12-183.19 91.8-2.81 1.56-3.2 2.89-3.2 4.91v306.87c-.07 6.93.39 13.78 11.22 8.33z" fill="url(#b)"/><path d="M372.88 96.68v182.81S24.85 105.32 12.81 99.09c-8.03-4.2-8.03-8.19 0-12.69C20.2 82.26 161.42 11.82 183.07.98c2.8-1.24 3.67-1.24 6.15-.23l180.17 90.31c2.57 1.26 3.35 2.5 3.49 5.62z" fill="url(#c)"/></svg>