<svg height="100" viewBox="0 0 100 100" width="100" xmlns="http://www.w3.org/2000/svg"><path d="m21.54 23.23-5.46 2.73v47.97l5.46 2.73 13.4-26.72z" fill="#8c3123"/><path d="m50 69.76-28.46 6.89v-53.42l28.46 6.89 13.45 19.9z" fill="#e05243"/><path d="m50 69.76 28.45 6.89 4.92-26.03-4.92-27.39-28.45 6.89z" fill="#8c3123"/><path d="m78.45 23.23 5.47 2.73v47.97l-5.47 2.73z" fill="#e05243"/><path d="m37.59 58.78 12.41 1.59 9.84-10.35-9.84-10.34-12.41 1.56z" fill="#8c3123"/><path d="m62.41 32.75-12.41 2.26-12.41-2.26 12.41-23.75z" fill="#5e1f18"/><path d="m62.41 67.25-12.41-2.28-12.41 2.28 12.41 23.75z" fill="#f2b0a9"/><path d="m62.41 32.75-12.41-3.07v-20.68l12.41 6.2z" fill="#e05243"/><path d="m37.59 32.75 12.41-3.07v-20.68l-12.41 6.2z" fill="#8c3123"/><path d="m50 91 12.41-6.2v-17.55l-12.41 3.07z" fill="#e05243"/><path d="m50 91-12.41-6.2v-17.55l12.41 3.07z" fill="#8c3123"/><path d="m62.41 58.78-12.41 1.59v-20.69l12.41 1.56z" fill="#e05243"/></svg>